<?xml version="1.0" encoding="UTF-8" standalone="no"?>
<!-- Created with Inkscape (http://www.inkscape.org/) -->

<svg
   xmlns:dc="http://purl.org/dc/elements/1.1/"
   xmlns:cc="http://creativecommons.org/ns#"
   xmlns:rdf="http://www.w3.org/1999/02/22-rdf-syntax-ns#"
   xmlns:svg="http://www.w3.org/2000/svg"
   xmlns="http://www.w3.org/2000/svg"
   xmlns:sodipodi="http://sodipodi.sourceforge.net/DTD/sodipodi-0.dtd"
   xmlns:inkscape="http://www.inkscape.org/namespaces/inkscape"
   id="svg2"
   version="1.1"
   inkscape:version="0.91 r13725"
   xml:space="preserve"
   width="1250"
   height="1250"
   viewBox="0 0 1250 1250"
   sodipodi:docname="cry.ai.svg"
   inkscape:export-filename="/Users/antenehs/Pictures/Emojis/Final V1/cry 2.png"
   inkscape:export-xdpi="90"
   inkscape:export-ydpi="90"><metadata
     id="metadata8"><rdf:RDF><cc:Work
         rdf:about=""><dc:format>image/svg+xml</dc:format><dc:type
           rdf:resource="http://purl.org/dc/dcmitype/StillImage" /><dc:title></dc:title></cc:Work></rdf:RDF></metadata><defs
     id="defs6"><clipPath
       clipPathUnits="userSpaceOnUse"
       id="clipPath16"><path
         d="m 0,1000 1000,0 L 1000,0 0,0 0,1000 Z"
         id="path18"
         inkscape:connector-curvature="0" /></clipPath><clipPath
       clipPathUnits="userSpaceOnUse"
       id="clipPath28"><path
         d="m 513.639,662.962 c -152.334,0 -187,-104.999 -186,-216 l 0,0 c 1.074,-119.288 66.705,-216 186,-216 l 0,0 2.796,0 c 119.293,0 184.925,96.712 186,216 l 0,0 c 1,111.001 -33.666,216 -186,216 l 0,0 -2.796,0 z"
         id="path30"
         inkscape:connector-curvature="0" /></clipPath><radialGradient
       fx="0"
       fy="0"
       cx="0"
       cy="0"
       r="1"
       gradientUnits="userSpaceOnUse"
       gradientTransform="matrix(213.45012,0,0,-237.47604,515.03613,446.96289)"
       spreadMethod="pad"
       id="radialGradient36"><stop
         style="stop-opacity:1;stop-color:#f77b28"
         offset="0"
         id="stop38" /><stop
         style="stop-opacity:1;stop-color:#f77b28"
         offset="0.422272"
         id="stop40" /><stop
         style="stop-opacity:1;stop-color:#f77b28"
         offset="0.72506948"
         id="stop42" /><stop
         style="stop-opacity:1;stop-color:#630c05"
         offset="1"
         id="stop44" /></radialGradient><clipPath
       clipPathUnits="userSpaceOnUse"
       id="clipPath52"><path
         d="m 0,1000 1000,0 L 1000,0 0,0 0,1000 Z"
         id="path54"
         inkscape:connector-curvature="0" /></clipPath><clipPath
       clipPathUnits="userSpaceOnUse"
       id="clipPath104"><path
         d="m 423.826,439.993 c -6.705,-5.331 -13.911,-15.126 -18.162,-23.316 l 0,0 c -10.059,-19.384 -6.978,-52.748 17.542,-53.156 l 0,0 c 15.189,-0.254 26.058,13.07 24.275,33.521 l 0,0 c -0.817,9.367 -5.141,16.988 -8.893,23.182 l 0,0 c -1.275,2.101 -11.618,19.881 -14.429,19.88 l 0,0 c -0.127,0 -0.238,-0.036 -0.333,-0.111"
         id="path106"
         inkscape:connector-curvature="0" /></clipPath><radialGradient
       fx="0"
       fy="0"
       cx="0"
       cy="0"
       r="1"
       gradientUnits="userSpaceOnUse"
       gradientTransform="matrix(18.144165,-1.8027039,-4.9224701,-37.640518,423.82275,398.26465)"
       spreadMethod="pad"
       id="radialGradient112"><stop
         style="stop-opacity:1;stop-color:#489cc8"
         offset="0"
         id="stop114" /><stop
         style="stop-opacity:1;stop-color:#489cc8"
         offset="0.52411771"
         id="stop116" /><stop
         style="stop-opacity:1;stop-color:#0c7e91"
         offset="1"
         id="stop118" /></radialGradient><clipPath
       clipPathUnits="userSpaceOnUse"
       id="clipPath126"><path
         d="m 427.667,454 c -6.001,-2 -20.667,-1 -24.334,0 l 0,0 c -3.666,1 -7.667,1.333 -7.667,1.333 l 0,0 c -2.667,0 0.334,-2 0.334,-2 l 0,0 c 14.333,-6.334 23,-3.666 27.836,-3.257 l 0,0 c 4.836,0.407 14.497,4.257 17.498,7.257 l 0,0 c 0.731,0.731 0.65,1.027 0.023,1.027 l 0,0 c -1.945,0 -9.153,-2.847 -13.69,-4.36"
         id="path128"
         inkscape:connector-curvature="0" /></clipPath><clipPath
       clipPathUnits="userSpaceOnUse"
       id="clipPath134"><path
         d="m -32767,32767 65534,0 0,-65534 -65534,0 0,65534 z"
         id="path136"
         inkscape:connector-curvature="0" /></clipPath><radialGradient
       fx="0"
       fy="0"
       cx="0"
       cy="0"
       r="1"
       gradientUnits="userSpaceOnUse"
       gradientTransform="matrix(17.03331,0,0,-17.03331,418.2085,453.76562)"
       spreadMethod="pad"
       id="radialGradient138"><stop
         style="stop-opacity:0.70000763;stop-color:#ffffff"
         offset="0"
         id="stop140" /><stop
         style="stop-opacity:1;stop-color:#ffffff"
         offset="0.428391"
         id="stop142" /><stop
         style="stop-opacity:1;stop-color:#ffffff"
         offset="0.7279814"
         id="stop144" /><stop
         style="stop-opacity:1;stop-color:#ffffff"
         offset="1"
         id="stop146" /></radialGradient><mask
       maskUnits="userSpaceOnUse"
       x="0"
       y="0"
       width="1"
       height="1"
       id="mask148"><g
         id="g150"><g
           clip-path="url(#clipPath134)"
           id="g152"><g
             id="g154"><g
               id="g156"><path
                 d="m -32767,32767 65534,0 0,-65534 -65534,0 0,65534 z"
                 style="fill:url(#radialGradient138);stroke:none"
                 id="path158"
                 inkscape:connector-curvature="0" /></g></g></g></g></mask><radialGradient
       fx="0"
       fy="0"
       cx="0"
       cy="0"
       r="1"
       gradientUnits="userSpaceOnUse"
       gradientTransform="matrix(17.03331,0,0,-17.03331,418.2085,453.76562)"
       spreadMethod="pad"
       id="radialGradient164"><stop
         style="stop-opacity:1;stop-color:#61c4db"
         offset="0"
         id="stop166" /><stop
         style="stop-opacity:1;stop-color:#489cc8"
         offset="0.428391"
         id="stop168" /><stop
         style="stop-opacity:1;stop-color:#489cc8"
         offset="0.7279814"
         id="stop170" /><stop
         style="stop-opacity:1;stop-color:#0c7e91"
         offset="1"
         id="stop172" /></radialGradient><clipPath
       clipPathUnits="userSpaceOnUse"
       id="clipPath180"><path
         d="m 417.011,452.012 c -1.81,-0.844 -3.761,-2.389 -4.913,-3.68 l 0,0 c -2.728,-3.058 -1.927,-8.299 4.679,-8.342 l 0,0 c 4.093,-0.026 7.032,2.078 6.57,5.29 l 0,0 c -0.212,1.473 -1.37,2.667 -2.376,3.637 l 0,0 c -0.341,0.33 -3.11,3.113 -3.869,3.113 l 0,0 c -0.034,0 -0.065,-0.006 -0.091,-0.018"
         id="path182"
         inkscape:connector-curvature="0" /></clipPath><clipPath
       clipPathUnits="userSpaceOnUse"
       id="clipPath188"><path
         d="m -32767,32767 65534,0 0,-65534 -65534,0 0,65534 z"
         id="path190"
         inkscape:connector-curvature="0" /></clipPath><radialGradient
       fx="0"
       fy="0"
       cx="0"
       cy="0"
       r="1"
       gradientUnits="userSpaceOnUse"
       gradientTransform="matrix(-2.5,-13.999985,-13.999985,2.5,420.5,454.5)"
       spreadMethod="pad"
       id="radialGradient192"><stop
         style="stop-opacity:0.70000763;stop-color:#ffffff"
         offset="0"
         id="stop194" /><stop
         style="stop-opacity:1;stop-color:#ffffff"
         offset="0.428391"
         id="stop196" /><stop
         style="stop-opacity:1;stop-color:#ffffff"
         offset="0.7279814"
         id="stop198" /><stop
         style="stop-opacity:1;stop-color:#ffffff"
         offset="1"
         id="stop200" /></radialGradient><mask
       maskUnits="userSpaceOnUse"
       x="0"
       y="0"
       width="1"
       height="1"
       id="mask202"><g
         id="g204"><g
           clip-path="url(#clipPath188)"
           id="g206"><g
             id="g208"><g
               id="g210"><path
                 d="m -32767,32767 65534,0 0,-65534 -65534,0 0,65534 z"
                 style="fill:url(#radialGradient192);stroke:none"
                 id="path212"
                 inkscape:connector-curvature="0" /></g></g></g></g></mask><radialGradient
       fx="0"
       fy="0"
       cx="0"
       cy="0"
       r="1"
       gradientUnits="userSpaceOnUse"
       gradientTransform="matrix(-2.5,-13.999985,-13.999985,2.5,420.5,454.5)"
       spreadMethod="pad"
       id="radialGradient218"><stop
         style="stop-opacity:1;stop-color:#61c4db"
         offset="0"
         id="stop220" /><stop
         style="stop-opacity:1;stop-color:#489cc8"
         offset="0.428391"
         id="stop222" /><stop
         style="stop-opacity:1;stop-color:#489cc8"
         offset="0.7279814"
         id="stop224" /><stop
         style="stop-opacity:1;stop-color:#0c7e91"
         offset="1"
         id="stop226" /></radialGradient><clipPath
       clipPathUnits="userSpaceOnUse"
       id="clipPath234"><path
         d="m 0,1000 1000,0 L 1000,0 0,0 0,1000 Z"
         id="path236"
         inkscape:connector-curvature="0" /></clipPath><clipPath
       clipPathUnits="userSpaceOnUse"
       id="clipPath262"><path
         d="m 591.19,420.224 c -3.753,-6.194 -8.075,-13.815 -8.893,-23.182 l 0,0 c -1.783,-20.451 9.086,-33.775 24.275,-33.521 l 0,0 c 24.52,0.408 27.602,33.772 17.542,53.156 l 0,0 c -4.251,8.19 -11.457,17.985 -18.163,23.316 l 0,0 c -0.094,0.075 -0.206,0.111 -0.332,0.111 l 0,0 c -2.81,0.001 -13.154,-17.779 -14.429,-19.88"
         id="path264"
         inkscape:connector-curvature="0" /></clipPath><radialGradient
       fx="0"
       fy="0"
       cx="0"
       cy="0"
       r="1"
       gradientUnits="userSpaceOnUse"
       gradientTransform="matrix(-18.144165,-1.8027039,4.9224701,-37.640518,605.95605,398.26465)"
       spreadMethod="pad"
       id="radialGradient270"><stop
         style="stop-opacity:1;stop-color:#489cc8"
         offset="0"
         id="stop272" /><stop
         style="stop-opacity:1;stop-color:#489cc8"
         offset="0.52411771"
         id="stop274" /><stop
         style="stop-opacity:1;stop-color:#0c7e91"
         offset="1"
         id="stop276" /></radialGradient><clipPath
       clipPathUnits="userSpaceOnUse"
       id="clipPath284"><path
         d="m 588.445,457.333 c 3,-3 12.661,-6.85 17.497,-7.257 l 0,0 c 4.837,-0.409 13.504,-3.077 27.836,3.257 l 0,0 c 0,0 3.002,2 0.333,2 l 0,0 c 0,0 -3.999,-0.333 -7.666,-1.333 l 0,0 c -3.667,-1 -18.334,-2 -24.333,0 l 0,0 c -4.538,1.513 -11.745,4.36 -13.69,4.36 l 0,0 c -0.627,0 -0.708,-0.296 0.023,-1.027"
         id="path286"
         inkscape:connector-curvature="0" /></clipPath><clipPath
       clipPathUnits="userSpaceOnUse"
       id="clipPath292"><path
         d="m -32767,32767 65534,0 0,-65534 -65534,0 0,65534 z"
         id="path294"
         inkscape:connector-curvature="0" /></clipPath><radialGradient
       fx="0"
       fy="0"
       cx="0"
       cy="0"
       r="1"
       gradientUnits="userSpaceOnUse"
       gradientTransform="matrix(-17.03331,0,0,-17.03331,611.57031,453.76562)"
       spreadMethod="pad"
       id="radialGradient296"><stop
         style="stop-opacity:0.70000763;stop-color:#ffffff"
         offset="0"
         id="stop298" /><stop
         style="stop-opacity:1;stop-color:#ffffff"
         offset="0.428391"
         id="stop300" /><stop
         style="stop-opacity:1;stop-color:#ffffff"
         offset="0.7279814"
         id="stop302" /><stop
         style="stop-opacity:1;stop-color:#ffffff"
         offset="1"
         id="stop304" /></radialGradient><mask
       maskUnits="userSpaceOnUse"
       x="0"
       y="0"
       width="1"
       height="1"
       id="mask306"><g
         id="g308"><g
           clip-path="url(#clipPath292)"
           id="g310"><g
             id="g312"><g
               id="g314"><path
                 d="m -32767,32767 65534,0 0,-65534 -65534,0 0,65534 z"
                 style="fill:url(#radialGradient296);stroke:none"
                 id="path316"
                 inkscape:connector-curvature="0" /></g></g></g></g></mask><radialGradient
       fx="0"
       fy="0"
       cx="0"
       cy="0"
       r="1"
       gradientUnits="userSpaceOnUse"
       gradientTransform="matrix(-17.03331,0,0,-17.03331,611.57031,453.76562)"
       spreadMethod="pad"
       id="radialGradient322"><stop
         style="stop-opacity:1;stop-color:#61c4db"
         offset="0"
         id="stop324" /><stop
         style="stop-opacity:1;stop-color:#489cc8"
         offset="0.428391"
         id="stop326" /><stop
         style="stop-opacity:1;stop-color:#489cc8"
         offset="0.7279814"
         id="stop328" /><stop
         style="stop-opacity:1;stop-color:#0c7e91"
         offset="1"
         id="stop330" /></radialGradient><clipPath
       clipPathUnits="userSpaceOnUse"
       id="clipPath338"><path
         d="m 608.807,448.917 c -1.005,-0.97 -2.165,-2.164 -2.375,-3.637 l 0,0 c -0.463,-3.212 2.477,-5.316 6.569,-5.29 l 0,0 c 6.607,0.043 7.407,5.284 4.679,8.342 l 0,0 c -1.152,1.291 -3.102,2.836 -4.913,3.68 l 0,0 c -0.026,0.012 -0.056,0.018 -0.091,0.018 l 0,0 c -0.759,0 -3.527,-2.783 -3.869,-3.113"
         id="path340"
         inkscape:connector-curvature="0" /></clipPath><clipPath
       clipPathUnits="userSpaceOnUse"
       id="clipPath346"><path
         d="m -32767,32767 65534,0 0,-65534 -65534,0 0,65534 z"
         id="path348"
         inkscape:connector-curvature="0" /></clipPath><radialGradient
       fx="0"
       fy="0"
       cx="0"
       cy="0"
       r="1"
       gradientUnits="userSpaceOnUse"
       gradientTransform="matrix(2.4999847,-13.999893,13.999893,2.4999847,609.27832,454.5)"
       spreadMethod="pad"
       id="radialGradient350"><stop
         style="stop-opacity:0.70000763;stop-color:#ffffff"
         offset="0"
         id="stop352" /><stop
         style="stop-opacity:1;stop-color:#ffffff"
         offset="0.428391"
         id="stop354" /><stop
         style="stop-opacity:1;stop-color:#ffffff"
         offset="0.7279814"
         id="stop356" /><stop
         style="stop-opacity:1;stop-color:#ffffff"
         offset="1"
         id="stop358" /></radialGradient><mask
       maskUnits="userSpaceOnUse"
       x="0"
       y="0"
       width="1"
       height="1"
       id="mask360"><g
         id="g362"><g
           clip-path="url(#clipPath346)"
           id="g364"><g
             id="g366"><g
               id="g368"><path
                 d="m -32767,32767 65534,0 0,-65534 -65534,0 0,65534 z"
                 style="fill:url(#radialGradient350);stroke:none"
                 id="path370"
                 inkscape:connector-curvature="0" /></g></g></g></g></mask><radialGradient
       fx="0"
       fy="0"
       cx="0"
       cy="0"
       r="1"
       gradientUnits="userSpaceOnUse"
       gradientTransform="matrix(2.4999847,-13.999893,13.999893,2.4999847,609.27832,454.5)"
       spreadMethod="pad"
       id="radialGradient376"><stop
         style="stop-opacity:1;stop-color:#61c4db"
         offset="0"
         id="stop378" /><stop
         style="stop-opacity:1;stop-color:#489cc8"
         offset="0.428391"
         id="stop380" /><stop
         style="stop-opacity:1;stop-color:#489cc8"
         offset="0.7279814"
         id="stop382" /><stop
         style="stop-opacity:1;stop-color:#0c7e91"
         offset="1"
         id="stop384" /></radialGradient><clipPath
       clipPathUnits="userSpaceOnUse"
       id="clipPath392"><path
         d="m 0,1000 1000,0 L 1000,0 0,0 0,1000 Z"
         id="path394"
         inkscape:connector-curvature="0" /></clipPath><clipPath
       clipPathUnits="userSpaceOnUse"
       id="clipPath400"><path
         d="m 479.422,314.981 20.488,0 0,-12.295 -20.488,0 0,12.295 z"
         id="path402"
         inkscape:connector-curvature="0" /></clipPath></defs><sodipodi:namedview
     pagecolor="#ffffff"
     bordercolor="#666666"
     borderopacity="1"
     objecttolerance="10"
     gridtolerance="10"
     guidetolerance="10"
     inkscape:pageopacity="0"
     inkscape:pageshadow="2"
     inkscape:window-width="1280"
     inkscape:window-height="752"
     id="namedview4"
     showgrid="false"
     inkscape:zoom="0.7552"
     inkscape:cx="697.1207"
     inkscape:cy="621.47401"
     inkscape:window-x="0"
     inkscape:window-y="0"
     inkscape:window-maximized="1"
     inkscape:current-layer="g10" /><g
     id="g10"
     inkscape:groupmode="layer"
     inkscape:label="Order__FO18D48823B8_cry"
     transform="matrix(1.25,0,0,-1.25,0,1250)"><g
       id="g12"><g
         id="g14"
         clip-path="url(#clipPath16)"><g
           id="g20"
           transform="translate(516.0371,771.9629)"><path
             d="m 0,0 0.398,0 c 179.494,0 294.999,-138 284.999,-325 0,0 -12,-156.333 -151.999,-157.667 0,0 -52.666,-57.334 -132,-55 l -4.796,0 c -79.334,-2.334 -132,55 -132,55 -140,1.334 -152,157.667 -152,157.667 -10,187 105.505,325 285,325 L -2,0 0,0 Z"
             style="fill:#0a0205;fill-opacity:1;fill-rule:nonzero;stroke:none"
             id="path22"
             inkscape:connector-curvature="0" /></g></g></g><g
       id="g24"><g
         id="g26"
         clip-path="url(#clipPath28)"><g
           id="g32"><g
             id="g34"><path
               d="m 513.639,662.962 c -152.334,0 -187,-104.999 -186,-216 l 0,0 c 1.074,-119.288 66.705,-216 186,-216 l 0,0 2.796,0 c 119.293,0 184.925,96.712 186,216 l 0,0 c 1,111.001 -33.666,216 -186,216 l 0,0 -2.796,0 z"
               style="fill:url(#radialGradient36);stroke:none"
               id="path46"
               inkscape:connector-curvature="0" /></g></g></g></g><g
       id="g48"><g
         id="g50"
         clip-path="url(#clipPath52)"><g
           id="g56"
           transform="translate(513,315)" /><g
           id="g60"
           transform="translate(509.5703,296.6631)" /><g
           id="g64"
           transform="translate(565.2344,317.8965)" /><g
           id="g68"
           transform="translate(516.9307,344.5098)"><path
             d="m 0,0 c -12.875,0 -22.617,9.211 -22.763,9.352 -0.507,0.49 -0.717,1.211 -0.555,1.898 4.408,18.613 7.42,69.148 7.45,69.656 2.885,99.094 -23.683,106.867 -23.951,106.934 -1.058,0.264 -1.728,1.33 -1.484,2.392 0.243,1.064 1.274,1.743 2.343,1.514 1.231,-0.259 30.101,-7.534 27.087,-111.016 -0.123,-2.105 -2.948,-49.511 -7.287,-69.238 3.821,-3.25 20.007,-15.174 36.576,-0.038 -4.41,18.73 -5.307,25.709 -7.286,69.244 -3.015,103.514 25.855,110.789 27.086,111.048 1.076,0.227 2.141,-0.464 2.369,-1.545 0.228,-1.081 -0.464,-2.141 -1.545,-2.369 C 37.807,187.773 11.239,180 14.127,80.848 16.129,36.832 17.008,30.529 21.574,11.25 21.736,10.563 21.525,9.842 21.019,9.352 13.769,2.338 6.487,0 0,0"
             style="fill:#361100;fill-opacity:1;fill-rule:nonzero;stroke:none"
             id="path70"
             inkscape:connector-curvature="0" /></g><g
           id="g72"
           transform="translate(533.5352,279.0889)" /><g
           id="g76"
           transform="translate(517.1055,319.25)" /><g
           id="g80"
           transform="translate(347.7485,517.0923)"><path
             d="M 0,0 C 0,0 55.251,-25.911 133.163,22.625 133.163,22.625 75.792,-46.944 0,0"
             style="fill:#070409;fill-opacity:1;fill-rule:nonzero;stroke:none"
             id="path82"
             inkscape:connector-curvature="0" /><path
             inkscape:connector-curvature="0"
             id="path4552"
             style="fill:#070409;fill-opacity:1;fill-rule:nonzero;stroke:none"
             d="m 233.99389,-231.90838 c 0,0 -49.03451,36.32726 -135.007283,4.16042 0,0 69.997713,56.84714 135.007283,-4.16042" /></g><g
           id="g84"
           transform="translate(347.7485,517.0923)"><path
             d="M 0,3.3993486e-7 C 0,3.3993486e-7 55.251,-25.911 133.163,22.625 133.163,22.625 75.792,-46.944 0,3.3993486e-7 Z"
             style="fill:none;stroke:#421404;stroke-width:1;stroke-linecap:butt;stroke-linejoin:miter;stroke-miterlimit:10;stroke-dasharray:none;stroke-opacity:1"
             id="path86"
             inkscape:connector-curvature="0" /></g><g
           id="g88"
           transform="translate(354.3442,495.3398)"><path
             d="M 0,0 C 0,0 75.625,-36.438 127.686,25.668 120.823,17.481 118.405,-1.025 112.695,-11.292 82.822,-65.006 24.092,-49.965 0,0"
             style="fill:#070409;fill-opacity:1;fill-rule:nonzero;stroke:none"
             id="path90"
             inkscape:connector-curvature="0" /></g><g
           id="g92"
           transform="translate(359.8838,490.6143)"><path
             d="M 0,0 C 0,0 70.116,-34.52 114.973,18.993 110.272,13.385 109.38,5.849 106.741,-0.751 100.47,-16.428 85.743,-29.516 69.513,-34.059 52.626,-38.785 34.197,-35.091 20.66,-23.938 13.022,-17.646 4.807,-8.7 0,0"
             style="fill:#efe8d3;fill-opacity:1;fill-rule:nonzero;stroke:none"
             id="path94"
             inkscape:connector-curvature="0" /></g><g
           id="g96"
           transform="translate(389.6299,481.4805)"><path
             d="m 0,0 c -0.625,-2.408 -0.959,-4.934 -0.959,-7.539 0,-5.323 1.396,-10.317 3.833,-14.649 11.458,-5.133 24.581,-6.183 36.893,-2.737 6.332,1.772 12.424,4.858 17.885,8.878 0.8,2.697 1.235,5.552 1.235,8.508 0,4.688 -1.081,9.124 -3.003,13.074 C 36.376,-3.262 15.989,-2.845 0,0"
             style="fill:#070409;fill-opacity:1;fill-rule:nonzero;stroke:none"
             id="path98"
             inkscape:connector-curvature="0" /></g></g></g><g
       id="g100"><g
         id="g102"
         clip-path="url(#clipPath104)"><g
           id="g108"><g
             id="g110"><path
               d="m 423.826,439.993 c -6.705,-5.331 -13.911,-15.126 -18.162,-23.316 l 0,0 c -10.059,-19.384 -6.978,-52.748 17.542,-53.156 l 0,0 c 15.189,-0.254 26.058,13.07 24.275,33.521 l 0,0 c -0.817,9.367 -5.141,16.988 -8.893,23.182 l 0,0 c -1.275,2.101 -11.618,19.881 -14.429,19.88 l 0,0 c -0.127,0 -0.238,-0.036 -0.333,-0.111"
               style="fill:url(#radialGradient112);stroke:none"
               id="path120"
               inkscape:connector-curvature="0" /></g></g></g></g><g
       id="g122"><g
         id="g124"
         clip-path="url(#clipPath126)"><g
           id="g130"><g
             id="g132" /><g
             id="g160"
             mask="url(#mask148)"><g
               id="g162"><path
                 d="m 427.667,454 c -6.001,-2 -20.667,-1 -24.334,0 l 0,0 c -3.666,1 -7.667,1.333 -7.667,1.333 l 0,0 c -2.667,0 0.334,-2 0.334,-2 l 0,0 c 14.333,-6.334 23,-3.666 27.836,-3.257 l 0,0 c 4.836,0.407 14.497,4.257 17.498,7.257 l 0,0 c 0.731,0.731 0.65,1.027 0.023,1.027 l 0,0 c -1.945,0 -9.153,-2.847 -13.69,-4.36"
                 style="fill:url(#radialGradient164);stroke:none"
                 id="path174"
                 inkscape:connector-curvature="0" /></g></g></g></g></g><g
       id="g176"><g
         id="g178"
         clip-path="url(#clipPath180)"><g
           id="g184"><g
             id="g186" /><g
             id="g214"
             mask="url(#mask202)"><g
               id="g216"><path
                 d="m 417.011,452.012 c -1.81,-0.844 -3.761,-2.389 -4.913,-3.68 l 0,0 c -2.728,-3.058 -1.927,-8.299 4.679,-8.342 l 0,0 c 4.093,-0.026 7.032,2.078 6.57,5.29 l 0,0 c -0.212,1.473 -1.37,2.667 -2.376,3.637 l 0,0 c -0.341,0.33 -3.11,3.113 -3.869,3.113 l 0,0 c -0.034,0 -0.065,-0.006 -0.091,-0.018"
                 style="fill:url(#radialGradient218);stroke:none"
                 id="path228"
                 inkscape:connector-curvature="0" /></g></g></g></g></g><g
       id="g230"><g
         id="g232"
         clip-path="url(#clipPath234)"><g
           id="g238"
           transform="translate(682.0293,517.0923)"><path
             d="m 0,0 c 0,0 -55.25,-25.911 -133.162,22.625 0,0 57.371,-69.569 133.162,-22.625"
             style="fill:#070409;fill-opacity:1;fill-rule:nonzero;stroke:none"
             id="path240"
             inkscape:connector-curvature="0" /><path
             inkscape:connector-curvature="0"
             id="path4550"
             style="fill:#070409;fill-opacity:1;fill-rule:nonzero;stroke:none"
             d="m 0,0 c 0,0 -55.25,-25.911 -133.162,22.625 0,0 57.371,-69.569 133.162,-22.625" /></g><g
           id="g242"
           transform="translate(682.0293,517.0923)"><path
             d="m 0,0 c 0,0 -55.25,-25.911 -133.162,22.625 0,0 57.371,-69.569 133.162,-22.625 z"
             style="fill:none;stroke:#421404;stroke-width:1;stroke-linecap:butt;stroke-linejoin:miter;stroke-miterlimit:10;stroke-dasharray:none;stroke-opacity:1"
             id="path244"
             inkscape:connector-curvature="0" /></g><g
           id="g246"
           transform="translate(675.4336,495.3398)"><path
             d="m 0,0 c 0,0 -75.625,-36.438 -127.686,25.668 6.864,-8.187 9.282,-26.693 14.991,-36.96 C -82.822,-65.006 -24.092,-49.965 0,0"
             style="fill:#070409;fill-opacity:1;fill-rule:nonzero;stroke:none"
             id="path248"
             inkscape:connector-curvature="0" /></g><g
           id="g250"
           transform="translate(669.8945,490.6143)"><path
             d="m 0,0 c 0,0 -70.116,-34.52 -114.973,18.993 4.702,-5.608 5.593,-13.144 8.233,-19.744 6.269,-15.677 20.997,-28.765 37.227,-33.308 16.887,-4.726 35.316,-1.032 48.853,10.121 C -13.021,-17.646 -4.807,-8.7 0,0"
             style="fill:#efe8d3;fill-opacity:1;fill-rule:nonzero;stroke:none"
             id="path252"
             inkscape:connector-curvature="0" /></g><g
           id="g254"
           transform="translate(640.1484,481.4805)"><path
             d="m 0,0 c 0.625,-2.408 0.959,-4.934 0.959,-7.539 0,-5.323 -1.396,-10.317 -3.833,-14.649 -11.458,-5.133 -24.581,-6.183 -36.893,-2.737 -6.332,1.772 -12.424,4.858 -17.885,8.878 -0.799,2.697 -1.235,5.552 -1.235,8.508 0,4.688 1.08,9.124 3.002,13.074 C -36.377,-3.262 -15.988,-2.845 0,0"
             style="fill:#070409;fill-opacity:1;fill-rule:nonzero;stroke:none"
             id="path256"
             inkscape:connector-curvature="0" /></g></g></g><g
       id="g258"><g
         id="g260"
         clip-path="url(#clipPath262)"><g
           id="g266"><g
             id="g268"><path
               d="m 591.19,420.224 c -3.753,-6.194 -8.075,-13.815 -8.893,-23.182 l 0,0 c -1.783,-20.451 9.086,-33.775 24.275,-33.521 l 0,0 c 24.52,0.408 27.602,33.772 17.542,53.156 l 0,0 c -4.251,8.19 -11.457,17.985 -18.163,23.316 l 0,0 c -0.094,0.075 -0.206,0.111 -0.332,0.111 l 0,0 c -2.81,0.001 -13.154,-17.779 -14.429,-19.88"
               style="fill:url(#radialGradient270);stroke:none"
               id="path278"
               inkscape:connector-curvature="0" /></g></g></g></g><g
       id="g280"><g
         id="g282"
         clip-path="url(#clipPath284)"><g
           id="g288"><g
             id="g290" /><g
             id="g318"
             mask="url(#mask306)"><g
               id="g320"><path
                 d="m 588.445,457.333 c 3,-3 12.661,-6.85 17.497,-7.257 l 0,0 c 4.837,-0.409 13.504,-3.077 27.836,3.257 l 0,0 c 0,0 3.002,2 0.333,2 l 0,0 c 0,0 -3.999,-0.333 -7.666,-1.333 l 0,0 c -3.667,-1 -18.334,-2 -24.333,0 l 0,0 c -4.538,1.513 -11.745,4.36 -13.69,4.36 l 0,0 c -0.627,0 -0.708,-0.296 0.023,-1.027"
                 style="fill:url(#radialGradient322);stroke:none"
                 id="path332"
                 inkscape:connector-curvature="0" /></g></g></g></g></g><g
       id="g334"><g
         id="g336"
         clip-path="url(#clipPath338)"><g
           id="g342"><g
             id="g344" /><g
             id="g372"
             mask="url(#mask360)"><g
               id="g374"><path
                 d="m 608.807,448.917 c -1.005,-0.97 -2.165,-2.164 -2.375,-3.637 l 0,0 c -0.463,-3.212 2.477,-5.316 6.569,-5.29 l 0,0 c 6.607,0.043 7.407,5.284 4.679,8.342 l 0,0 c -1.152,1.291 -3.102,2.836 -4.913,3.68 l 0,0 c -0.026,0.012 -0.056,0.018 -0.091,0.018 l 0,0 c -0.759,0 -3.527,-2.783 -3.869,-3.113"
                 style="fill:url(#radialGradient376);stroke:none"
                 id="path386"
                 inkscape:connector-curvature="0" /></g></g></g></g></g><g
       id="g388"><g
         id="g390"
         clip-path="url(#clipPath392)"><g
           id="g396"><g
             id="g398" /><g
             id="g404"><g
               clip-path="url(#clipPath400)"
               id="g406"
               style="opacity:0.10000598"><g
                 transform="translate(499.8633,307.1602)"
                 id="g408" /></g></g></g></g></g></g><g
     inkscape:groupmode="layer"
     id="layer1"
     inkscape:label="lip"
     style="display:none"><path
       transform="matrix(1.25,0,0,-1.25,641.25,856.25)"
       d="m 0,0 c -7.5,0 -21.572,3.938 -32.5,3.5 -10.928,-0.438 -25,1 -32,-2 -6.998,-2.999 -8.5,-0.054 -8.5,2.501 0,4.249 7.947,4.07 9.893,4.415 5.17,0.916 10.153,4.227 14.966,6.272 10.646,4.523 21.647,10.261 33.529,9.964 4.554,-0.108 8.561,-1.072 11.912,-2.865 0.809,-0.432 1.452,-0.836 1.921,-1.13 L -0.5,20.438 c 1.375,-0.438 2.207,0.219 2.207,0.219 0.469,0.294 1.111,0.698 1.921,1.13 3.351,1.793 7.357,2.757 11.912,2.865 11.882,0.297 22.882,-5.441 33.528,-9.964 C 53.881,12.643 58.864,9.332 64.035,8.416 65.98,8.071 73.5,8 73.928,4.001 c 0.271,-2.54 -1.503,-5.5 -8.5,-2.501 -7,3 -21.073,1.562 -32,2 C 22.5,3.938 8.428,0 0.928,0 L 0,0 Z"
       style="fill:#2e0e0d;fill-opacity:1;fill-rule:nonzero;stroke:none"
       id="path58"
       inkscape:connector-curvature="0" /><path
       transform="matrix(1.25,0,0,-1.25,636.96287,879.17113)"
       d="m 0,0 c -24.07,-1.663 -30.82,-4.163 -36.85,6.854 -3.75,6.854 -9.3,12.81 -9.361,12.867 l -4.076,3.778 5.392,1.336 c 0.243,0.06 6.03,1.467 14.567,1.467 4.305,0 8.576,-0.361 12.695,-1.071 l 0.258,-0.055 C -12.711,23.94 0.25,20.651 4.156,20.261 4.264,20.25 4.383,20.246 4.514,20.246 c 2.66,0 8.734,1.573 14.609,3.095 5.582,1.445 11.356,2.94 15.383,3.414 1.316,0.154 2.781,0.233 4.355,0.233 8.143,0 17.104,-2.055 17.483,-2.142 l 5.523,-1.281 -4.166,-3.846 C 57.643,19.664 52.611,13.396 48.342,6.855 39.68,-6.413 33.301,0 12.492,0 12.492,0 5.18,0.212 2.055,0.087 L 0,0 Z"
       style="fill:#2e0e0d;fill-opacity:1;fill-rule:nonzero;stroke:none"
       id="path62"
       inkscape:connector-curvature="0" /><path
       transform="matrix(1.25,0,0,-1.25,706.543,852.62937)"
       d="m 0,0 c -6.161,1.205 -9.468,-12.091 -12.527,-15.162 -3.578,-3.594 -9.527,-3.371 -14.146,-3.509 -6.293,-0.187 -12.554,-0.057 -18.845,-0.057 l -8.8,0 c -29.041,-1.543 -31.94,1.345 -35.461,7.97 -3.522,6.627 -10.059,11.757 -10.059,11.757 0,0 11.531,2.425 26.031,0.3 22.453,-5.05 16.718,-3.802 22,-4.25 3.765,-0.32 19.911,3.414 31,4.525 C -12.313,2.423 -0.018,0.003 0,0"
       style="fill:#81301c;fill-opacity:1;fill-rule:nonzero;stroke:none"
       id="path66"
       inkscape:connector-curvature="0" /><path
       transform="matrix(1.25,0,0,-1.25,666.919,901.13887)"
       d="m 0,0 c -0.13,0.519 -0.453,0.955 -0.912,1.229 -5.765,3.46 -12.067,5.214 -18.732,5.214 -11.185,0 -19.638,-5.001 -19.992,-5.214 -0.459,-0.274 -0.783,-0.71 -0.912,-1.23 -0.13,-0.518 -0.05,-1.055 0.226,-1.512 0.358,-0.599 1.015,-0.972 1.716,-0.972 0.361,0 0.717,0.098 1.024,0.283 0.317,0.187 7.905,4.583 18.011,4.583 5.95,0 11.536,-1.541 16.601,-4.581 0.91,-0.545 2.199,-0.223 2.744,0.685 C 0.05,-1.056 0.13,-0.519 0,0"
       style="fill:#330400;fill-opacity:1;fill-rule:nonzero;stroke:none"
       id="path74"
       inkscape:connector-curvature="0" /><path
       transform="matrix(1.25,0,0,-1.25,646.38188,850.9375)"
       d="M 0,0 C 0,0 11.242,2.785 21.25,3.25 31.258,3.715 50.5,2 56.5,0.5 c 0,0 6,-2 7.75,-2.25 C 66,-2 67,-0.375 65.625,0.625 c -1.375,1 -8.25,2.125 -10.5,3 -2.25,0.875 -16.25,7.5 -21.75,9.625 -5.5,2.125 -21.625,6.125 -35.25,0 0,0 -1.23,-0.687 -2.543,-0.125 L -4.73,13.25 c -13.625,6.125 -29.75,2.125 -35.25,0 -5.5,-2.125 -19.5,-8.75 -21.75,-9.625 -2.25,-0.875 -9.125,-2 -10.5,-3 -1.375,-1 -0.375,-2.625 1.375,-2.375 1.75,0.25 7.75,2.25 7.75,2.25 6,1.5 25.242,3.215 35.25,2.75 C -17.848,2.785 -6.605,0 -6.605,0 c 0,0 2.21,-1.5 6.605,0"
       style="fill:#81301c;fill-opacity:1;fill-rule:nonzero;stroke:none"
       id="path78"
       inkscape:connector-curvature="0" /><path
       transform="matrix(1.25,0,0,-1.25,624.82912,866.04975)"
       d="m 0,0 c -0.536,-3.266 -5.536,-5.165 -11.167,-4.241 -5.632,0.924 -9.763,4.321 -9.227,7.587 0.536,3.266 5.536,5.166 11.167,4.242 C -3.595,6.664 0.536,3.267 0,0"
       style="opacity:0.10000598;fill:#eae8e8;fill-opacity:1;fill-rule:nonzero;stroke:none"
       id="path410"
       inkscape:connector-curvature="0" /></g><g
     inkscape:groupmode="layer"
     id="layer2"
     inkscape:label="lip simple" /></svg>