<?xml version="1.0" encoding="UTF-8" standalone="no"?>
<!-- Created with Inkscape (http://www.inkscape.org/) -->

<svg
   xmlns:dc="http://purl.org/dc/elements/1.1/"
   xmlns:cc="http://creativecommons.org/ns#"
   xmlns:rdf="http://www.w3.org/1999/02/22-rdf-syntax-ns#"
   xmlns:svg="http://www.w3.org/2000/svg"
   xmlns="http://www.w3.org/2000/svg"
   xmlns:sodipodi="http://sodipodi.sourceforge.net/DTD/sodipodi-0.dtd"
   xmlns:inkscape="http://www.inkscape.org/namespaces/inkscape"
   id="svg3355"
   version="1.1"
   inkscape:version="0.91 r13725"
   xml:space="preserve"
   width="1250"
   height="1250"
   viewBox="0 0 1250 1250"
   sodipodi:docname="editedMine.ai.svg"
   inkscape:export-filename="/Users/antenehs/Pictures/Emojis/Final V1/Sad 1.png"
   inkscape:export-xdpi="90"
   inkscape:export-ydpi="90"><metadata
     id="metadata3361"><rdf:RDF><cc:Work
         rdf:about=""><dc:format>image/svg+xml</dc:format><dc:type
           rdf:resource="http://purl.org/dc/dcmitype/StillImage" /><dc:title /></cc:Work></rdf:RDF></metadata><defs
     id="defs3359"><clipPath
       clipPathUnits="userSpaceOnUse"
       id="clipPath3369"><path
         d="m 0,1000 1000,0 L 1000,0 0,0 0,1000 Z"
         id="path3371"
         inkscape:connector-curvature="0" /></clipPath><clipPath
       clipPathUnits="userSpaceOnUse"
       id="clipPath3381"><path
         d="m 504.451,739.302 c -229.938,0 -282.266,-158.492 -280.756,-326.04 l 0,0 C 225.316,233.201 324.383,87.221 504.451,87.221 l 0,0 4.223,0 c 180.066,0 279.134,145.98 280.755,326.041 l 0,0 c 1.511,167.548 -50.815,326.04 -280.755,326.04 l 0,0 -4.223,0 z"
         id="path3383"
         inkscape:connector-curvature="0" /></clipPath><radialGradient
       fx="0"
       fy="0"
       cx="0"
       cy="0"
       r="1"
       gradientUnits="userSpaceOnUse"
       gradientTransform="matrix(322.1911,0,0,-358.4556,506.56152,413.26172)"
       spreadMethod="pad"
       id="radialGradient3389"><stop
         style="stop-opacity:1;stop-color:#f77b28"
         offset="0"
         id="stop3391" /><stop
         style="stop-opacity:1;stop-color:#f77b28"
         offset="0.422272"
         id="stop3393" /><stop
         style="stop-opacity:1;stop-color:#f77b28"
         offset="0.72506948"
         id="stop3395" /><stop
         style="stop-opacity:1;stop-color:#630c05"
         offset="1"
         id="stop3397" /></radialGradient><clipPath
       clipPathUnits="userSpaceOnUse"
       id="clipPath3405"><path
         d="m 0,1000 1000,0 L 1000,0 0,0 0,1000 Z"
         id="path3407"
         inkscape:connector-curvature="0" /></clipPath><clipPath
       clipPathUnits="userSpaceOnUse"
       id="clipPath3469"><path
         d="m 235.627,512.73 234.731,0 0,-192.472 -234.731,0 0,192.472 z"
         id="path3471"
         inkscape:connector-curvature="0" /></clipPath><clipPath
       clipPathUnits="userSpaceOnUse"
       id="clipPath3493"><path
         d="m 542.767,512.73 234.729,0 0,-192.472 -234.729,0 0,192.472 z"
         id="path3495"
         inkscape:connector-curvature="0" /></clipPath><clipPath
       clipPathUnits="userSpaceOnUse"
       id="clipPath4908"><path
         d="m 0,1000 1000,0 L 1000,0 0,0 0,1000 Z"
         id="path4910"
         inkscape:connector-curvature="0" /></clipPath><clipPath
       clipPathUnits="userSpaceOnUse"
       id="clipPath4976"><path
         d="m 234.371,510.959 220.825,0 0,-178.631 -220.825,0 0,178.631 z"
         id="path4978"
         inkscape:connector-curvature="0" /></clipPath><clipPath
       clipPathUnits="userSpaceOnUse"
       id="clipPath4992"><path
         d="m 556.334,510.892 220.47,0 0,-178.014 -220.47,0 0,178.014 z"
         id="path4994"
         inkscape:connector-curvature="0" /></clipPath></defs><sodipodi:namedview
     pagecolor="#ffffff"
     bordercolor="#666666"
     borderopacity="1"
     objecttolerance="10"
     gridtolerance="10"
     guidetolerance="10"
     inkscape:pageopacity="0"
     inkscape:pageshadow="2"
     inkscape:window-width="1280"
     inkscape:window-height="752"
     id="namedview3357"
     showgrid="false"
     inkscape:zoom="0.49689089"
     inkscape:cx="579.31367"
     inkscape:cy="574.49676"
     inkscape:window-x="0"
     inkscape:window-y="0"
     inkscape:window-maximized="1"
     inkscape:current-layer="g4269" /><g
     id="g3363"
     inkscape:groupmode="layer"
     inkscape:label="cool"
     transform="matrix(1.25,0,0,-1.25,0,1250)"
     style="display:inline"
     sodipodi:insensitive="true"><g
       id="g3365"><g
         id="g3367"
         clip-path="url(#clipPath3369)"><g
           id="g3373"
           transform="translate(508.0723,903.8315)"><path
             d="m 0,0 0.602,0 c 270.935,0 445.285,-208.303 430.19,-490.57 0,0 -18.113,-235.976 -229.434,-237.99 0,0 -79.497,-86.542 -199.248,-83.02 l -7.24,0 c -119.75,-3.522 -199.246,83.02 -199.246,83.02 -211.324,2.014 -229.437,237.99 -229.437,237.99 C -448.908,-208.303 -274.557,0 -3.621,0 L -3.019,0 0,0 Z"
             style="fill:#0a0205;fill-opacity:1;fill-rule:nonzero;stroke:none"
             id="path3375"
             inkscape:connector-curvature="0" /></g></g></g><g
       id="g3377"
       transform="matrix(0.95501116,0,0,1,24.607819,-14.545455)"><g
         id="g3379"
         clip-path="url(#clipPath3381)"><g
           id="g3385"><g
             id="g3387"><path
               d="m 504.451,739.302 c -229.938,0 -282.266,-158.492 -280.756,-326.04 l 0,0 C 225.316,233.201 324.383,87.221 504.451,87.221 l 0,0 4.223,0 c 180.066,0 279.134,145.98 280.755,326.041 l 0,0 c 1.511,167.548 -50.815,326.04 -280.755,326.04 l 0,0 -4.223,0 z"
               style="fill:url(#radialGradient3389);stroke:none"
               id="path3399"
               inkscape:connector-curvature="0" /></g></g></g></g></g><g
     inkscape:groupmode="layer"
     id="layer4"
     inkscape:label="eyes"
     style="display:inline"
     sodipodi:insensitive="true"><g
       style="display:inline"
       id="g4904"
       transform="matrix(1.25,0,0,-1.25,11.243443,1256.0988)"><g
         id="g4906"
         clip-path="url(#clipPath4908)"><g
           id="g4912"
           transform="translate(553.4492,538.5459)" /><g
           id="g4916"
           transform="translate(779.3271,428.3691)"><path
             d="m 0,0 c -26.979,-26.971 -135.555,-125.188 -226.236,-35.853 0,0 -15.764,14.648 -16.177,22.337 -0.41,7.688 6.666,27.68 6.666,27.68 0,0 32.808,82.019 120.921,65.096 0,0 38.68,-2.408 114.062,-66.688 0,0 7.493,-5.842 0.764,-12.572"
             style="fill:#070409;fill-opacity:1;fill-rule:nonzero;stroke:none"
             id="path4918"
             inkscape:connector-curvature="0" /></g><g
           id="g4920"
           transform="translate(765.7695,429.4932)"><path
             d="m 0,0 c -22.792,-22.8 -119.24,-111.455 -199.736,-32.152 0,0 -13.877,12.895 -14.243,19.663 -0.36,6.769 5.867,24.369 5.867,24.369 0,0 28.88,72.203 106.449,57.303 0,0 33.693,-2.096 99.363,-57.812 0,0 7.618,-6.052 2.3,-11.371"
             style="fill:#efe8d3;fill-opacity:1;fill-rule:nonzero;stroke:none"
             id="path4922"
             inkscape:connector-curvature="0" /></g><g
           id="g4924"
           transform="translate(717.9541,432.8467)"><path
             d="m 0,0 c 0,26.512 -14.915,49.53 -36.802,61.151 -11.311,4.313 -17.046,4.678 -17.046,4.678 -11.881,2.283 -22.615,2.514 -32.285,1.281 -30.036,-7.552 -52.276,-34.73 -52.276,-67.11 0,-33.251 23.455,-61.016 54.723,-67.675 17.942,-0.987 35.468,2.917 51.666,9.321 C -12.774,-46.063 0,-24.531 0,0"
             style="fill:#070409;fill-opacity:1;fill-rule:nonzero;stroke:none"
             id="path4926"
             inkscape:connector-curvature="0" /></g><g
           id="g4928"
           transform="translate(459.6934,538.5459)" /><g
           id="g4932"
           transform="translate(231.8145,428.3691)"><path
             d="m 0,0 c 26.979,-26.971 135.556,-125.188 226.237,-35.853 0,0 15.764,14.648 16.173,22.337 0.414,7.688 -6.662,27.68 -6.662,27.68 0,0 -32.807,82.019 -120.921,65.096 0,0 -38.682,-2.408 -114.063,-66.688 C 0.764,12.572 -6.731,6.73 0,0"
             style="fill:#070409;fill-opacity:1;fill-rule:nonzero;stroke:none"
             id="path4934"
             inkscape:connector-curvature="0" /></g><g
           id="g4936"
           transform="translate(245.3701,429.4932)"><path
             d="m 0,0 c 22.795,-22.8 119.24,-111.455 199.739,-32.152 0,0 13.877,12.895 14.24,19.663 0.362,6.769 -5.866,24.369 -5.866,24.369 0,0 -28.881,72.203 -106.449,57.303 0,0 -33.692,-2.096 -99.365,-57.812 C 2.299,11.371 -5.319,5.319 0,0"
             style="fill:#efe8d3;fill-opacity:1;fill-rule:nonzero;stroke:none"
             id="path4938"
             inkscape:connector-curvature="0" /></g><g
           id="g4940"
           transform="translate(293.1885,432.8467)"><path
             d="m 0,0 c 0,26.512 14.912,49.53 36.802,61.151 11.312,4.313 17.043,4.678 17.043,4.678 11.884,2.283 22.618,2.514 32.288,1.281 30.036,-7.552 52.274,-34.73 52.274,-67.11 0,-33.251 -23.456,-61.016 -54.721,-67.675 -17.945,-0.987 -35.469,2.917 -51.665,9.321 C 12.774,-46.063 0,-24.531 0,0"
             style="fill:#070409;fill-opacity:1;fill-rule:nonzero;stroke:none"
             id="path4942"
             inkscape:connector-curvature="0" /></g><g
           id="g4944"
           transform="translate(512.6152,187.9111)" /><g
           id="g4948"
           transform="translate(581.3242,225.5205)" /><g
           id="g4952"
           transform="translate(591.4541,231.4023)" /><g
           id="g4956"
           transform="translate(507.0459,235.7686)" /><g
           id="g4960"
           transform="translate(508.4092,258.6133)" /><g
           id="g4964"
           transform="translate(534.9824,161.374)" /><g
           id="g4968"
           transform="translate(773.7422,497.7607)" /><g
           id="g4972"><g
             id="g4974" /><g
             id="g4980"><g
               clip-path="url(#clipPath4976)"
               id="g4982"
               style="opacity:0.25"><g
                 transform="translate(248.0439,483.8691)"
                 id="g4984" /></g></g></g><g
           id="g4988"><g
             id="g4990" /><g
             id="g4996"><g
               clip-path="url(#clipPath4992)"
               id="g4998"
               style="opacity:0.25"><g
                 transform="translate(569.6602,483.8691)"
                 id="g5000" /></g></g></g><g
           id="g5004"
           transform="translate(206.3721,497.7607)"><path
             d="M 0,0 C 2.946,-9.038 29.897,-7.176 32.055,1.067 24.383,6.578 7.104,4.465 0,0"
             style="fill:#161616;fill-opacity:1;fill-rule:nonzero;stroke:none"
             id="path5006"
             inkscape:connector-curvature="0" /></g><g
           id="g5008"
           transform="translate(773.7422,497.7607)"><path
             d="M 0,0 C 3.177,-6.707 26.984,-8.509 30.987,-1.068 26.249,4.874 5.268,7.411 0,0"
             style="fill:#161616;fill-opacity:1;fill-rule:nonzero;stroke:none"
             id="path5010"
             inkscape:connector-curvature="0" /></g></g></g></g><g
     inkscape:groupmode="layer"
     id="layer5"
     inkscape:label="simple sad lip"
     style="display:inline"
     sodipodi:insensitive="true"><path
       d="m 785.56018,1048.0631 c 0,0 -62.29749,-82.94091 -168.92111,-63.77297 0,0 -62.25143,13.20006 -100.48588,54.81457 -38.23322,41.6147 106.87936,-82.52413 269.40699,8.9584"
       style="display:inline;fill:#330400;fill-opacity:1;fill-rule:nonzero;stroke:none"
       id="path4930-4"
       inkscape:connector-curvature="0" /></g><g
     style="display:none"
     inkscape:label="simple happy lip"
     id="g5519"
     inkscape:groupmode="layer"><path
       inkscape:connector-curvature="0"
       id="path5521"
       style="display:inline;fill:#330400;fill-opacity:1;fill-rule:nonzero;stroke:#181818;stroke-width:0;stroke-miterlimit:4;stroke-dasharray:none;stroke-opacity:1"
       d="m 502.90921,953.25012 c 0,0 55.06995,179.81898 171.21307,140.09488 0,0 68.08229,-27.5257 114.45015,-116.6949 49.14336,-92.5523 -70.8035,89.9977 -283.91209,-23.39998"
       sodipodi:nodetypes="cccc" /><path
       style="fill:none;fill-rule:evenodd;stroke:#000000;stroke-width:1px;stroke-linecap:butt;stroke-linejoin:miter;stroke-opacity:1"
       d="m 525.26622,1004.4733 233.45165,8.05 0,0"
       id="path4259"
       inkscape:connector-curvature="0" /><path
       style="fill:none;fill-rule:evenodd;stroke:#ffffff;stroke-width:1px;stroke-linecap:butt;stroke-linejoin:miter;stroke-opacity:1"
       d="m 527.27874,1012.5233 235.46416,2.0125 0,0"
       id="path4265"
       inkscape:connector-curvature="0" /><path
       style="fill:#ffffff;fill-opacity:1;stroke:#0c0000;stroke-width:2;stroke-miterlimit:4;stroke-dasharray:none;stroke-opacity:1"
       d="m 528.98695,1010.809 -4.38854,-7.8248 c -6.13772,-10.94359 -19.81859,-45.24127 -18.55152,-46.50834 0.57603,-0.57603 8.6911,2.53467 18.03348,6.91266 39.54623,18.53199 71.55998,26.26442 114.74264,27.71433 49.71114,1.6691 81.83667,-5.48363 132.54514,-29.51111 22.94588,-10.87257 25.21367,-11.57148 25.80784,-7.95376 0.68407,4.16504 -13.01767,30.97489 -25.23236,49.37152 l -7.18288,10.8182 7.83185,-10.5377 c -78.00287,43.0513 -166.21969,40.5482 -243.60565,7.519 z"
       id="path4267"
       inkscape:connector-curvature="0"
       sodipodi:nodetypes="csssssssccc" /></g><g
     inkscape:groupmode="layer"
     id="g5542"
     inkscape:label="simple sarcarstic lip"
     style="display:none"
     sodipodi:insensitive="true"><path
       d="m 529.41564,1032.4465 c 0,0 84.97794,66.4183 204.91705,9.2759 0,0 69.7076,-35.4922 107.21808,-92.81455 37.50901,-57.32218 -110.20604,124.39945 -312.13513,83.53865"
       style="display:inline;fill:#330400;fill-opacity:1;fill-rule:nonzero;stroke:none"
       id="path5544"
       inkscape:connector-curvature="0" /></g><g
     style="display:none"
     inkscape:label="simple smile lip"
     id="g4269"
     inkscape:groupmode="layer"><path
       style="display:inline;fill:#330400;fill-opacity:1;fill-rule:nonzero;stroke:none"
       d="m 797.67773,985.35547 c -36.26021,26.53643 -163.73801,123.03463 -311.84179,-6.55078 l -8.42969,8.09765 c 100.44597,93.37916 193.26688,122.51076 321.12695,9.0625 1.94447,-2.2463 2.90507,-3.49608 4.33008,-5.21093 z"
       id="path4282"
       inkscape:connector-curvature="0"
       sodipodi:nodetypes="cccccc" /><path
       style="display:inline;fill:#330400;fill-opacity:1;fill-rule:nonzero;stroke:none"
       d="m 797.67773,985.35547 5.18555,5.39844 c 10.16289,-12.22998 7.34381,-11.82355 -5.18555,-5.39844 z"
       id="path4279"
       inkscape:connector-curvature="0" /><path
       style="display:inline;fill:#330400;fill-opacity:1;fill-rule:nonzero;stroke:none"
       d="m 477.40625,986.90234 8.42969,-8.09765 c -3.40979,-2.72618 -6.82546,-5.32654 -10.22266,-8.30274 l 0,14.08789 c 0,0 1.05814,1.35686 1.79297,2.3125 z"
       id="path4271"
       inkscape:connector-curvature="0" /><rect
       style="fill:#000000;fill-opacity:1;stroke:#0c0000;stroke-width:3.1497364;stroke-miterlimit:4;stroke-dasharray:none;stroke-opacity:1"
       id="rect4284"
       width="47.189003"
       height="13.20197"
       x="-204.28702"
       y="1046.4917"
       ry="6.6009851"
       transform="matrix(0.74530566,-0.66672294,0.58271179,0.81267889,0,0)" /><rect
       transform="matrix(-0.70300704,-0.71118289,0.793473,-0.60860545,0,0)"
       ry="5.9576111"
       y="-129.30118"
       x="-1296.9514"
       height="11.915222"
       width="42.469009"
       id="rect4286"
       style="fill:#000000;fill-opacity:1;stroke:#0c0000;stroke-width:2.83871365;stroke-miterlimit:4;stroke-dasharray:none;stroke-opacity:1" /></g><g
     inkscape:groupmode="layer"
     id="layer3"
     inkscape:label="lips"
     style="display:none"
     sodipodi:insensitive="true"><path
       transform="matrix(1.25,0,0,-1.25,737.89869,974.19813)"
       d="m 0,0 c 0,0 -9.87,-9.111 -15.183,-20.88 -5.316,-11.766 -16.704,-21.637 -53.526,-21.258 l -13.284,0 c -36.822,-0.379 -48.212,9.492 -53.527,21.258 -5.315,11.769 -15.182,20.88 -15.182,20.88 0,0 17.406,4.307 39.293,0.532 0,0 25.659,-6.792 33.206,-7.547 7.548,-0.754 33.963,8.302 46.794,9.812 C -18.58,4.307 0,0 0,0"
       style="display:inline;fill:#d1623f;fill-opacity:1;fill-rule:nonzero;stroke:none"
       id="path4950"
       inkscape:connector-curvature="0" /><path
       transform="matrix(1.25,0,0,-1.25,645.05082,961.38801)"
       d="m 0,0 c 6.072,0.381 6.486,1.768 10.415,3.868 4.32,2.31 9.413,3.23 14.261,3.347 18.303,0.429 34.316,-12.444 53.143,-9.87 0,0 2.279,0.758 5.566,3.036 3.294,2.276 8.859,-4.554 3.036,-9.362 -5.817,-4.812 -17.966,-1.52 -29.858,-1.52 -11.896,0 -29.357,-1.521 -37.203,-6.328 -7.844,-4.807 -18.473,-4.807 -18.473,-4.807 l -3.917,0 c 0,0 -10.628,0 -18.473,4.807 -7.845,4.807 -25.31,6.328 -37.204,6.328 -11.895,0 -24.041,-3.292 -29.864,1.52 -5.816,4.808 -0.25,11.638 3.037,9.362 3.293,-2.278 5.572,-3.036 5.572,-3.036 18.823,-2.574 34.841,10.299 53.144,9.87 4.846,-0.117 9.941,-1.037 14.259,-3.347 C -8.628,1.768 -8.216,0.381 -2.144,0 L 0,0 Z"
       style="display:inline;fill:#d1623f;fill-opacity:1;fill-rule:nonzero;stroke:none"
       id="path4958"
       inkscape:connector-curvature="0" /><path
       transform="matrix(1.25,0,0,-1.25,652.01244,1021.2099)"
       d="m 0,0 c 0.717,-0.007 1.376,-0.01 2.03,-0.01 34.334,0.001 43.211,9.406 47.368,18.605 2.911,6.443 7.036,12.09 10.401,16.095 -4.681,0.752 -10.79,1.509 -16.455,1.509 -2.026,0 -3.881,-0.097 -5.516,-0.29 -5.467,-0.642 -13.875,-2.821 -22.009,-4.927 -9.849,-2.551 -19.154,-4.96 -24.322,-4.96 -0.521,0 -1.005,0.024 -1.441,0.067 -7.544,0.755 -31.133,6.941 -33.721,7.623 -5.649,0.963 -11.513,1.451 -17.429,1.451 -4.617,0 -8.644,-0.295 -11.84,-0.656 3.341,-3.995 7.385,-9.569 10.251,-15.914 4.153,-9.197 13.034,-18.603 47.367,-18.603 0.652,0 1.315,0.003 1.984,0.01 L 0,0 Z m 2.03,-9.067 c -0.686,0 -1.373,0.004 -2.077,0.01 l -13.237,0 c -0.654,-0.006 -1.347,-0.01 -2.032,-0.01 -31.409,0 -48.042,7.157 -55.622,23.931 -4.853,10.748 -14.039,19.336 -14.13,19.422 l -6.153,5.703 8.139,2.017 c 0.366,0.09 9.102,2.214 21.988,2.214 6.497,0 12.946,-0.544 19.162,-1.616 l 0.39,-0.083 c 7.04,-1.866 26.604,-6.831 32.499,-7.419 0.163,-0.017 0.342,-0.023 0.54,-0.023 4.015,0 13.185,2.374 22.052,4.671 8.426,2.182 17.14,4.438 23.22,5.154 1.987,0.233 4.198,0.353 6.575,0.353 12.29,0 25.816,-3.105 26.387,-3.235 L 78.069,40.089 71.78,34.283 C 71.692,34.2 62.504,25.612 57.653,14.867 50.073,-1.908 33.44,-9.067 2.03,-9.067"
       style="display:inline;fill:#421404;fill-opacity:1;fill-rule:nonzero;stroke:none"
       id="path4946"
       inkscape:connector-curvature="0" /><path
       transform="matrix(1.25,0,0,-1.25,750.56107,966.84588)"
       d="m 0,0 c -2.574,-1.605 -4.449,-2.334 -5.01,-2.535 1.911,0.231 3.277,0.698 4.137,1.408 C -0.575,-0.881 -0.112,-0.441 0,0 m -170.962,0 c 0.112,-0.441 0.574,-0.881 0.869,-1.124 0.862,-0.713 2.229,-1.18 4.146,-1.411 -0.56,0.2 -2.436,0.93 -5.015,2.535 m 27.847,-1.606 c 4.703,0 28.704,-0.337 39.568,-6.997 6.574,-4.026 16.014,-4.138 16.109,-4.138 l 3.908,0 c 0.094,0 9.494,0.082 16.114,4.138 10.868,6.66 34.868,6.997 39.57,6.997 1.469,0 2.925,-0.046 4.364,-0.122 -4.552,1.035 -8.954,2.492 -13.273,3.922 -7.82,2.592 -15.168,5.045 -22.871,4.86 -4.775,-0.116 -9.006,-1.088 -12.232,-2.813 -0.862,-0.46 -1.531,-0.884 -2.131,-1.262 -2.745,-1.726 -4.797,-2.797 -10.137,-3.132 l -0.282,-0.008 -2.427,0.008 c -5.338,0.335 -7.391,1.406 -10.134,3.132 -0.606,0.378 -1.275,0.802 -2.133,1.262 -3.228,1.725 -7.458,2.697 -12.234,2.813 -7.594,0.18 -15.047,-2.267 -22.869,-4.86 -4.321,-1.43 -8.72,-2.887 -13.275,-3.922 1.441,0.076 2.898,0.122 4.365,0.122 m 59.594,-20.192 -3.917,0 c -0.487,0 -12.009,0.062 -20.841,5.474 -6.382,3.911 -22.093,5.661 -34.836,5.661 -3.398,0 -6.891,-0.291 -10.274,-0.57 -3.281,-0.272 -6.38,-0.529 -9.327,-0.529 -4.06,0 -9.225,0.415 -13.146,3.657 -3.7,3.056 -5.076,7.516 -3.594,11.637 1.312,3.648 4.634,6.197 8.075,6.197 1.442,0 2.83,-0.437 4.018,-1.259 1.961,-1.358 3.47,-2.066 4.116,-2.339 1.291,-0.154 2.615,-0.233 3.948,-0.233 7.476,0 14.649,2.377 22.246,4.894 8.199,2.72 16.717,5.528 25.932,5.315 6.276,-0.15 11.757,-1.456 16.288,-3.879 1.112,-0.594 1.981,-1.141 2.683,-1.582 1.762,-1.11 2.44,-1.535 5.743,-1.751 l 1.854,0 c 3.302,0.216 3.977,0.641 5.743,1.751 0.7,0.441 1.571,0.988 2.683,1.582 4.531,2.423 10.01,3.729 16.285,3.879 9.305,0.231 17.737,-2.597 25.936,-5.315 7.593,-2.517 14.766,-4.894 22.246,-4.894 1.333,0 2.659,0.079 3.95,0.233 0.623,0.265 2.139,0.974 4.11,2.339 1.188,0.822 2.577,1.259 4.015,1.259 3.446,0 6.77,-2.55 8.079,-6.197 C 9.976,-0.589 8.6,-5.05 4.896,-8.105 c -3.915,-3.241 -9.08,-3.657 -13.142,-3.657 -2.948,0 -6.047,0.257 -9.328,0.529 -3.382,0.281 -6.875,0.57 -10.272,0.57 -12.741,0 -28.455,-1.75 -34.838,-5.661 -8.833,-5.412 -20.35,-5.474 -20.837,-5.474"
       style="display:inline;fill:#421404;fill-opacity:1;fill-rule:nonzero;stroke:none"
       id="path4954"
       inkscape:connector-curvature="0" /></g><g
     inkscape:groupmode="layer"
     id="layer2"
     inkscape:label="Nose and brows"
     style="display:inline"
     sodipodi:insensitive="true"><path
       transform="matrix(1.25,0,0,-1.25,703.05494,582.91638)"
       d="m 0,0 c 0,0 61.384,71.446 142.894,40.252 0,0 47.296,-20.126 71.448,-64.404 C 238.491,-68.43 141.889,67.422 0,0"
       style="display:inline;fill:#330400;fill-opacity:1;fill-rule:nonzero;stroke:none"
       id="path4914"
       inkscape:connector-curvature="0" /><path
       transform="matrix(1.25,0,0,-1.25,585.86019,582.91638)"
       d="m 0,0 c 0,0 -61.383,71.446 -142.894,40.252 0,0 -47.296,-20.126 -71.448,-64.404 C -238.493,-68.43 -141.888,67.422 0,0"
       style="display:inline;fill:#330400;fill-opacity:1;fill-rule:nonzero;stroke:none"
       id="path4930"
       inkscape:connector-curvature="0" /><path
       transform="matrix(1.25,0,0,-1.25,646.75494,932.83213)"
       d="m 0,0 c -19.434,0 -34.139,13.904 -34.358,14.116 -0.766,0.74 -1.084,1.829 -0.84,2.866 6.655,28.095 11.201,104.375 11.247,105.142 4.353,149.576 -35.748,161.31 -36.154,161.411 -1.596,0.398 -2.607,2.007 -2.238,3.611 0.366,1.605 1.921,2.629 3.536,2.285 1.857,-0.39 45.435,-11.372 40.886,-167.573 -0.186,-3.177 -4.451,-74.735 -10.999,-104.51 5.768,-4.906 30.198,-22.905 55.209,-0.058 -6.657,28.272 -8.01,38.806 -10.998,104.521 -4.551,156.248 39.027,167.23 40.884,167.62 1.625,0.341 3.232,-0.7 3.576,-2.332 0.344,-1.632 -0.7,-3.232 -2.331,-3.576 C 57.067,283.434 16.965,271.7 21.324,122.035 24.346,55.597 25.672,46.083 32.565,16.982 32.811,15.945 32.491,14.856 31.727,14.116 20.783,3.529 9.792,0 0,0"
       style="display:inline;fill:#361100;fill-opacity:1;fill-rule:nonzero;stroke:none"
       id="path4962"
       inkscape:connector-curvature="0" /></g><g
     inkscape:groupmode="layer"
     id="layer1"
     inkscape:label="glasses"
     style="display:none"
     sodipodi:insensitive="true"><path
       transform="matrix(1.25,0,0,-1.25,978.42119,633.89788)"
       d="M 0,1.5589641 C 3.177,-5.2067346 26.984,-7.0245054 30.987,0.48161708 26.249,6.4756206 5.268,9.034824 0,1.5589641 m -567.37,0 c 2.946,-9.1170993 29.897,-7.2388033 32.055,1.0763382 -7.672,5.5592314 -24.952,3.4277388 -32.055,-1.0763382 m 363.288,-14.0135811 c -28.043,-31.52753 -5.983,-86.996777 12.822,-112.094523 39.219,-52.3401 136.222,-53.77555 172.027,-3.23406 14.235,20.09333 32.811,69.157002 14.96,105.628426 -14.221,29.0550791 -59.68,38.913611 -106.85,36.646946 -44.284,-2.127458 -75.913,-7.7815122 -92.959,-26.946789 m -321.616,0 c -31.983,-39.664122 -1.212,-111.302653 24.575,-132.573193 38.09,-31.42161 112.945,-24.66197 146.383,8.6218 15.039,14.96988 29.079,42.020568 34.192,66.826785 14.759,71.6032237 -54.781,87.239886 -120.74,84.071397 -38.835,-1.865183 -69.292,-8.1951005 -84.41,-26.946789 M 43.809,16.647874 c -3.241,-11.7126175 2.028,-22.901693 -2.138,-32.336549 -2.584,-5.85177 -8.994,-6.684999 -12.821,-12.932199 -9.387,-15.316888 -10.447,-37.58912 -13.891,-56.04827 -12.223,-65.505316 -55.266,-98.062786 -134.63,-92.694206 -67.18,4.54342 -96.364,45.413 -115.397,95.928264 -6.842,18.159551 -14.78,58.955493 -43.808,45.26774 -12.319,-5.806376 -17.299,-34.09783 -22.439,-47.424451 -18.714,-48.525003 -50.747,-88.915423 -113.26,-93.771553 -71.626,-5.56629 -113.963,19.37005 -130.357,68.98148 -9.414,28.489166 -7.101,76.568297 -33.123,91.616857 -0.281,11.5724009 -0.821,22.8845442 -2.137,33.412887 60.047,14.333355 143.991,20.383849 212.63,7.545464 32.088,-6.002073 65.555,-23.66128333 99.371,-23.71172092 23.42,-0.0363151 49.84,10.48698392 72.657,17.24461292 69.538,20.590643 161.259,16.128933 239.343,-1.078356"
       style="display:inline;fill:#1a1a1a;fill-opacity:1;fill-rule:nonzero;stroke:none"
       id="path4970"
       inkscape:connector-curvature="0" /><path
       transform="matrix(1.25,0,0,-1.25,321.29832,651.26238)"
       d="m 0,0 c -31.982,-39.32 -1.212,-110.338 24.575,-131.424 38.09,-31.148 112.945,-24.447 146.383,8.548 15.04,14.84 29.079,41.655 34.192,66.246 C 219.909,14.353 150.369,29.854 84.411,26.713 45.576,24.864 15.118,18.588 0,0"
       style="display:inline;opacity:0.25;fill:#ffffff;fill-opacity:1;fill-rule:nonzero;stroke:none"
       id="path4986"
       inkscape:connector-curvature="0" /><path
       transform="matrix(1.25,0,0,-1.25,723.31869,651.26238)"
       d="m 0,0 c -28.043,-31.254 -5.983,-86.242 12.822,-111.122 39.219,-51.887 136.222,-53.31 172.027,-3.206 14.235,19.919 32.811,68.557 14.96,104.712 C 185.588,19.187 140.129,28.959 92.959,26.713 48.675,24.604 17.046,18.999 0,0"
       style="display:inline;opacity:0.25;fill:#ffffff;fill-opacity:1;fill-rule:nonzero;stroke:none"
       id="path5002"
       inkscape:connector-curvature="0" /></g></svg>