<?xml version="1.0" encoding="UTF-8" standalone="no"?>
<!-- Created with Inkscape (http://www.inkscape.org/) -->

<svg
   xmlns:dc="http://purl.org/dc/elements/1.1/"
   xmlns:cc="http://creativecommons.org/ns#"
   xmlns:rdf="http://www.w3.org/1999/02/22-rdf-syntax-ns#"
   xmlns:svg="http://www.w3.org/2000/svg"
   xmlns="http://www.w3.org/2000/svg"
   xmlns:sodipodi="http://sodipodi.sourceforge.net/DTD/sodipodi-0.dtd"
   xmlns:inkscape="http://www.inkscape.org/namespaces/inkscape"
   id="svg2"
   version="1.1"
   inkscape:version="0.91 r13725"
   xml:space="preserve"
   width="1250"
   height="1250"
   viewBox="0 0 1250 1250"
   sodipodi:docname="Ethiopian_flag_with_emoji.ai.svg"
   inkscape:export-filename="/Users/antenehs/Pictures/Emojis/Final V1/flag-no-star.png"
   inkscape:export-xdpi="90"
   inkscape:export-ydpi="90"><metadata
     id="metadata8"><rdf:RDF><cc:Work
         rdf:about=""><dc:format>image/svg+xml</dc:format><dc:type
           rdf:resource="http://purl.org/dc/dcmitype/StillImage" /><dc:title></dc:title></cc:Work></rdf:RDF></metadata><defs
     id="defs6"><clipPath
       clipPathUnits="userSpaceOnUse"
       id="clipPath16"><path
         d="m 0,1000 1000,0 L 1000,0 0,0 0,1000 Z"
         id="path18"
         inkscape:connector-curvature="0" /></clipPath><clipPath
       clipPathUnits="userSpaceOnUse"
       id="clipPath28"><path
         d="m 646.875,707.557 c -165.548,0 -203.22,-114.107 -202.135,-234.734 l 0,0 c 1.169,-129.637 72.493,-234.734 202.135,-234.734 l 0,0 3.039,0 c 129.638,0 200.962,105.097 202.13,234.734 l 0,0 c 1.088,120.627 -36.585,234.734 -202.13,234.734 l 0,0 -3.039,0 z"
         id="path30"
         inkscape:connector-curvature="0" /></clipPath><radialGradient
       fx="0"
       fy="0"
       cx="0"
       cy="0"
       r="1"
       gradientUnits="userSpaceOnUse"
       gradientTransform="matrix(231.96306,0,0,-258.07281,648.39258,472.82324)"
       spreadMethod="pad"
       id="radialGradient36"><stop
         style="stop-opacity:1;stop-color:#f77b28"
         offset="0"
         id="stop38" /><stop
         style="stop-opacity:1;stop-color:#f77b28"
         offset="0.422272"
         id="stop40" /><stop
         style="stop-opacity:1;stop-color:#f77b28"
         offset="0.72506948"
         id="stop42" /><stop
         style="stop-opacity:1;stop-color:#630c05"
         offset="1"
         id="stop44" /></radialGradient><clipPath
       clipPathUnits="userSpaceOnUse"
       id="clipPath52"><path
         d="m 0,1000 1000,0 L 1000,0 0,0 0,1000 Z"
         id="path54"
         inkscape:connector-curvature="0" /></clipPath><clipPath
       clipPathUnits="userSpaceOnUse"
       id="clipPath188"><path
         d="m 380.494,485.503 c 0.157,-15.988 3.702,-40.26 0.084,-57.193 l 0,0 c -3.616,-16.932 -11.198,-42.539 -19.604,-54.882 l 0,0 c -8.407,-12.341 -21.333,-31.231 -24.705,-40.592 l 0,0 c -3.373,-9.363 -11.552,-39.45 -3.562,-64.033 l 0,0 c 7.991,-24.582 20.711,-67.738 32.349,-73.237 l 0,0 c 11.639,-5.5 23.553,-17.322 56.849,-6.334 l 0,0 c 33.293,10.991 52.438,15.445 66.66,21.769 l 0,0 c 14.222,6.323 32.228,18.226 28.637,36.243 l 0,0 c 0,0 -8.086,-2.22 -13.548,0.176 l 0,0 c 0,0 16.659,7.786 19.378,15.942 l 0,0 c 2.716,8.156 1.663,19.411 -3.01,22.286 l 0,0 c 0,0 -9.569,-2.582 -13.557,-1.698 l 0,0 c 0,0 13.171,8.341 15.037,13.619 l 0,0 c 1.866,5.276 4.539,26.162 -3.817,30.413 l 0,0 c 0,0 -8.048,-1.819 -11.943,-3.281 l 0,0 c 0,0 10.351,9.627 10.489,17.162 l 0,0 c 0.14,7.533 -2.994,22.676 -17.326,32.716 l 0,0 c -12.484,6.753 -23.341,10.323 -42.813,6.824 l 0,0 c -19.475,-3.496 -28.938,-6.041 -44.571,-9.819 l 0,0 c -15.633,-3.78 -25.794,-5.853 -25.794,-5.853 l 0,0 c 0,0 30.159,11.812 32.531,19.938 l 0,0 c 2.372,8.125 10.68,24.891 10.527,51.22 l 0,0 c -0.154,26.331 -10.127,59.438 -30.192,61.798 l 0,0 c -0.934,0.165 -2.72,0.449 -4.818,0.45 l 0,0 c -5.587,0 -13.396,-2.012 -13.281,-13.634"
         id="path190"
         inkscape:connector-curvature="0" /></clipPath><radialGradient
       fx="0"
       fy="0"
       cx="0"
       cy="0"
       r="1"
       gradientUnits="userSpaceOnUse"
       gradientTransform="matrix(102.58641,35.324951,61.201523,-177.73402,429.51562,317.59961)"
       spreadMethod="pad"
       id="radialGradient196"><stop
         style="stop-opacity:1;stop-color:#f77b28"
         offset="0"
         id="stop198" /><stop
         style="stop-opacity:1;stop-color:#f77b28"
         offset="0.422272"
         id="stop200" /><stop
         style="stop-opacity:1;stop-color:#f77b28"
         offset="0.72506948"
         id="stop202" /><stop
         style="stop-opacity:1;stop-color:#630c05"
         offset="1"
         id="stop204" /></radialGradient></defs><sodipodi:namedview
     pagecolor="#ffffff"
     bordercolor="#666666"
     borderopacity="1"
     objecttolerance="10"
     gridtolerance="10"
     guidetolerance="10"
     inkscape:pageopacity="0"
     inkscape:pageshadow="2"
     inkscape:window-width="1280"
     inkscape:window-height="752"
     id="namedview4"
     showgrid="false"
     inkscape:zoom="0.31112698"
     inkscape:cx="212.07119"
     inkscape:cy="903.75593"
     inkscape:window-x="0"
     inkscape:window-y="0"
     inkscape:window-maximized="1"
     inkscape:current-layer="g10" /><g
     id="g10"
     inkscape:groupmode="layer"
     inkscape:label="Ethiopian_flag_with_emoji"
     transform="matrix(1.25,0,0,-1.25,0,1250)"><g
       id="g12"><g
         id="g14"
         clip-path="url(#clipPath16)"><g
           id="g20"
           transform="translate(649.4814,826.0107)"><path
             d="m 0,0 0.433,0 c 195.061,0 320.585,-149.969 309.717,-353.188 0,0 -13.041,-169.894 -165.182,-171.342 0,0 -57.235,-62.308 -143.447,-59.772 l -5.215,0 c -86.215,-2.536 -143.45,59.772 -143.45,59.772 -152.142,1.448 -165.183,171.342 -165.183,171.342 C -323.194,-149.969 -197.67,0 -2.606,0 L -2.174,0 0,0 Z"
             style="fill:#0a0205;fill-opacity:1;fill-rule:nonzero;stroke:none"
             id="path22"
             inkscape:connector-curvature="0" /></g></g></g><g
       id="g24"><g
         id="g26"
         clip-path="url(#clipPath28)"><g
           id="g32"><g
             id="g34"><path
               d="m 646.875,707.557 c -165.548,0 -203.22,-114.107 -202.135,-234.734 l 0,0 c 1.169,-129.637 72.493,-234.734 202.135,-234.734 l 0,0 3.039,0 c 129.638,0 200.962,105.097 202.13,234.734 l 0,0 c 1.088,120.627 -36.585,234.734 -202.13,234.734 l 0,0 -3.039,0 z"
               style="fill:url(#radialGradient36);stroke:none"
               id="path46"
               inkscape:connector-curvature="0" /></g></g></g></g><g
       id="g56"
       transform="translate(682.8789,563.021)"><path
         d="m 0,0 c 0,0 44.194,51.438 102.877,28.98 0,0 34.051,-14.489 51.437,-46.368 C 171.701,-49.265 102.152,48.542 0,0"
         style="fill:#330400;fill-opacity:1;fill-rule:nonzero;stroke:none"
         id="path58"
         inkscape:connector-curvature="0" /></g><g
       id="g60"
       transform="translate(844.0596,483.6992)"><path
         d="m 0,0 c -19.423,-19.417 -97.593,-90.13 -162.88,-25.813 0,0 -11.349,10.546 -11.646,16.081 -0.294,5.536 4.799,19.929 4.799,19.929 0,0 23.621,59.051 87.058,46.866 0,0 27.848,-1.733 82.12,-48.011 0,0 5.396,-4.206 0.549,-9.052"
         style="fill:#0a0205;fill-opacity:1;fill-rule:nonzero;stroke:none"
         id="path62"
         inkscape:connector-curvature="0" /></g><g
       id="g64"
       transform="translate(834.3008,484.5078)"><path
         d="m 0,0 c -16.411,-16.415 -85.849,-80.242 -143.803,-23.146 0,0 -9.99,9.283 -10.253,14.155 -0.259,4.874 4.224,17.546 4.224,17.546 0,0 20.792,51.982 76.638,41.255 0,0 24.258,-1.509 71.538,-41.622 0,0 5.483,-4.357 1.656,-8.188"
         style="fill:#efe8d3;fill-opacity:1;fill-rule:nonzero;stroke:none"
         id="path66"
         inkscape:connector-curvature="0" /></g><g
       id="g68"
       transform="translate(799.874,486.9238)"><path
         d="m 0,0 c 0,19.086 -10.737,35.658 -26.494,44.025 -8.145,3.106 -12.274,3.369 -12.274,3.369 -8.552,1.643 -16.281,1.809 -23.244,0.921 C -83.637,42.878 -99.647,23.311 -99.647,0 c 0,-23.939 16.885,-43.93 39.397,-48.725 12.917,-0.71 25.535,2.101 37.197,6.712 C -9.197,-33.164 0,-17.663 0,0"
         style="fill:#070409;fill-opacity:1;fill-rule:nonzero;stroke:none"
         id="path70"
         inkscape:connector-curvature="0" /></g><g
       id="g72"
       transform="translate(615.377,563.021)"><path
         d="m 0,0 c 0,0 -44.193,51.438 -102.876,28.98 0,0 -34.052,-14.489 -51.439,-46.368 C -171.703,-49.265 -102.152,48.542 0,0"
         style="fill:#330400;fill-opacity:1;fill-rule:nonzero;stroke:none"
         id="path74"
         inkscape:connector-curvature="0" /></g><g
       id="g76"
       transform="translate(454.1943,483.6992)"><path
         d="m 0,0 c 19.423,-19.417 97.594,-90.13 162.882,-25.813 0,0 11.348,10.546 11.643,16.081 0.298,5.536 -4.796,19.929 -4.796,19.929 0,0 -23.62,59.051 -87.058,46.866 0,0 -27.85,-1.733 -82.121,-48.011 C 0.55,9.052 -4.845,4.846 0,0"
         style="fill:#0a0205;fill-opacity:1;fill-rule:nonzero;stroke:none"
         id="path78"
         inkscape:connector-curvature="0" /></g><g
       id="g80"
       transform="translate(463.9546,484.5078)"><path
         d="m 0,0 c 16.411,-16.415 85.847,-80.242 143.803,-23.146 0,0 9.99,9.283 10.251,14.155 0.263,4.874 -4.223,17.546 -4.223,17.546 0,0 -20.792,51.982 -76.638,41.255 0,0 -24.256,-1.509 -71.537,-41.622 C 1.656,8.188 -3.83,3.831 0,0"
         style="fill:#efe8d3;fill-opacity:1;fill-rule:nonzero;stroke:none"
         id="path82"
         inkscape:connector-curvature="0" /></g><g
       id="g84"
       transform="translate(498.3818,486.9238)"><path
         d="m 0,0 c 0,19.086 10.735,35.658 26.495,44.025 8.145,3.106 12.271,3.369 12.271,3.369 8.556,1.643 16.284,1.809 23.247,0.921 C 83.636,42.878 99.646,23.311 99.646,0 c 0,-23.939 -16.887,-43.93 -39.396,-48.725 -12.921,-0.71 -25.536,2.101 -37.198,6.712 C 9.196,-33.164 0,-17.663 0,0"
         style="fill:#070409;fill-opacity:1;fill-rule:nonzero;stroke:none"
         id="path86"
         inkscape:connector-curvature="0" /></g><g
       id="g88"
       transform="translate(653.4795,310.5801)"><path
         d="m 0,0 c 0.515,-0.005 0.991,-0.008 1.463,-0.008 24.719,0.002 31.11,6.771 34.1,13.395 2.097,4.638 5.066,8.705 7.491,11.59 -3.371,0.541 -7.77,1.085 -11.849,1.085 -1.458,0 -2.792,-0.071 -3.971,-0.209 -3.935,-0.462 -9.989,-2.03 -15.845,-3.548 -7.09,-1.835 -13.789,-3.572 -17.51,-3.572 -0.375,0 -0.724,0.019 -1.037,0.05 -5.432,0.542 -22.416,4.996 -24.28,5.488 -4.066,0.693 -8.289,1.045 -12.547,1.045 -3.325,0 -6.223,-0.212 -8.524,-0.473 2.405,-2.874 5.317,-6.888 7.379,-11.456 2.991,-6.624 9.384,-13.395 34.102,-13.395 0.47,0 0.949,0.003 1.429,0.008 L 0,0 Z m 1.463,-6.527 c -0.495,0 -0.99,0.003 -1.496,0.007 l -9.532,0 c -0.47,-0.004 -0.968,-0.007 -1.463,-0.007 -22.613,0 -34.588,5.154 -40.044,17.23 -3.493,7.737 -10.107,13.921 -10.174,13.982 l -4.43,4.106 5.861,1.452 c 0.263,0.064 6.552,1.595 15.83,1.595 4.677,0 9.318,-0.394 13.795,-1.166 l 0.281,-0.06 c 5.068,-1.342 19.155,-4.917 23.4,-5.341 0.116,-0.012 0.245,-0.016 0.388,-0.016 2.89,0 9.492,1.709 15.876,3.363 6.067,1.571 12.342,3.196 16.719,3.71 1.428,0.168 3.021,0.253 4.731,0.253 8.85,0 18.588,-2.233 18.998,-2.328 l 6.003,-1.391 -4.526,-4.18 C 51.615,24.624 45,18.44 41.508,10.705 36.051,-1.373 24.076,-6.527 1.463,-6.527"
         style="fill:#421404;fill-opacity:1;fill-rule:nonzero;stroke:none"
         id="path90"
         inkscape:connector-curvature="0" /></g><g
       id="g92"
       transform="translate(702.9473,337.6582)"><path
         d="m 0,0 c 0,0 -7.105,-6.56 -10.931,-15.033 -3.829,-8.47 -12.027,-15.578 -38.537,-15.304 l -9.565,0 c -26.509,-0.274 -34.708,6.834 -38.536,15.304 C -101.396,-6.56 -108.5,0 -108.5,0 c 0,0 12.532,3.1 28.289,0.384 0,0 18.476,-4.892 23.91,-5.436 5.432,-0.542 24.449,5.98 33.687,7.064 C -13.376,3.1 0,0 0,0"
         style="fill:#82301d;fill-opacity:1;fill-rule:nonzero;stroke:none"
         id="path94"
         inkscape:connector-curvature="0" /></g><g
       id="g96"
       transform="translate(710.2402,341.8936)"><path
         d="m 0,0 c -1.854,-1.156 -3.204,-1.681 -3.605,-1.826 1.374,0.167 2.356,0.504 2.977,1.014 C -0.415,-0.636 -0.081,-0.317 0,0 m -123.086,0 c 0.08,-0.317 0.414,-0.636 0.626,-0.812 0.62,-0.51 1.605,-0.847 2.983,-1.014 -0.402,0.143 -1.752,0.67 -3.609,1.826 m 20.05,-1.159 c 3.386,0 20.665,-0.242 28.487,-5.037 4.733,-2.898 11.529,-2.979 11.597,-2.979 l 2.813,0 c 0.068,0 6.837,0.06 11.603,2.979 7.823,4.795 25.103,5.037 28.488,5.037 1.059,0 2.106,-0.032 3.142,-0.085 -3.277,0.742 -6.446,1.793 -9.555,2.824 -5.632,1.865 -10.922,3.63 -16.468,3.496 -3.436,-0.083 -6.484,-0.783 -8.805,-2.023 -0.62,-0.332 -1.102,-0.637 -1.535,-0.909 -1.976,-1.243 -3.454,-2.015 -7.297,-2.255 l -0.205,-0.007 -1.746,0.007 c -3.843,0.24 -5.323,1.012 -7.297,2.255 -0.435,0.272 -0.917,0.577 -1.535,0.909 -2.324,1.24 -5.37,1.94 -8.809,2.023 -5.467,0.132 -10.832,-1.631 -16.463,-3.496 -3.113,-1.031 -6.28,-2.082 -9.56,-2.824 1.038,0.053 2.087,0.085 3.145,0.085 m 42.904,-14.536 -2.82,0 c -0.351,0 -8.646,0.046 -15.005,3.94 -4.595,2.817 -15.905,4.076 -25.079,4.076 -2.447,0 -4.964,-0.209 -7.399,-0.41 -2.361,-0.195 -4.591,-0.381 -6.715,-0.381 -2.923,0 -6.64,0.298 -9.464,2.633 -2.663,2.201 -3.656,5.411 -2.586,8.379 0.945,2.626 3.335,4.459 5.812,4.459 1.039,0 2.038,-0.313 2.894,-0.904 1.411,-0.977 2.498,-1.487 2.964,-1.684 0.927,-0.111 1.882,-0.168 2.841,-0.168 5.382,0 10.547,1.712 16.016,3.523 5.902,1.958 12.034,3.98 18.67,3.828 4.519,-0.111 8.465,-1.049 11.727,-2.795 0.801,-0.425 1.427,-0.821 1.932,-1.137 1.27,-0.801 1.757,-1.105 4.134,-1.263 l 1.335,0 c 2.378,0.158 2.863,0.462 4.135,1.263 0.503,0.316 1.131,0.712 1.93,1.137 3.265,1.746 7.208,2.684 11.727,2.795 6.699,0.165 12.77,-1.87 18.672,-3.828 5.466,-1.811 10.632,-3.523 16.016,-3.523 0.958,0 1.915,0.057 2.844,0.168 0.449,0.191 1.538,0.7 2.958,1.684 0.857,0.591 1.856,0.904 2.894,0.904 2.478,0 4.872,-1.833 5.813,-4.459 1.07,-2.968 0.076,-6.178 -2.589,-8.379 -2.819,-2.332 -6.537,-2.633 -9.462,-2.633 -2.122,0 -4.353,0.186 -6.714,0.381 -2.438,0.203 -4.952,0.41 -7.397,0.41 -9.175,0 -20.485,-1.259 -25.08,-4.076 -6.359,-3.894 -14.652,-3.94 -15.004,-3.94"
         style="fill:#421404;fill-opacity:1;fill-rule:nonzero;stroke:none"
         id="path98"
         inkscape:connector-curvature="0" /></g><g
       id="g100"
       transform="translate(649.4697,345.0361)"><path
         d="m 0,0 c 4.373,0.272 4.67,1.272 7.5,2.784 3.109,1.663 6.776,2.325 10.267,2.409 13.175,0.31 24.706,-8.958 38.259,-7.105 0,0 1.64,0.546 4.007,2.184 2.371,1.641 6.379,-3.277 2.189,-6.739 -4.188,-3.464 -12.937,-1.096 -21.499,-1.096 -8.565,0 -21.137,-1.092 -26.784,-4.554 -5.649,-3.46 -13.3,-3.46 -13.3,-3.46 l -2.821,0 c 0,0 -7.65,0 -13.3,3.46 -5.647,3.462 -18.22,4.554 -26.784,4.554 -8.564,0 -17.308,-2.368 -21.502,1.096 -4.187,3.462 -0.18,8.38 2.187,6.739 2.371,-1.638 4.012,-2.184 4.012,-2.184 13.552,-1.853 25.084,7.415 38.26,7.105 3.491,-0.084 7.158,-0.746 10.267,-2.409 C -6.212,1.272 -5.914,0.272 -1.543,0 L 0,0 Z"
         style="fill:#82301d;fill-opacity:1;fill-rule:nonzero;stroke:none"
         id="path102"
         inkscape:connector-curvature="0" /></g><g
       id="g104"
       transform="translate(650.4512,361.4814)"><path
         d="m 0,0 c -13.99,0 -24.577,10.013 -24.737,10.164 -0.551,0.533 -0.781,1.316 -0.604,2.064 4.791,20.227 8.064,75.146 8.098,75.697 3.134,107.688 -25.738,116.137 -26.03,116.209 -1.149,0.286 -1.877,1.446 -1.612,2.599 0.265,1.156 1.384,1.893 2.545,1.646 1.337,-0.282 32.712,-8.188 29.436,-120.645 C -13.037,85.447 -16.106,33.929 -20.821,12.49 -16.669,8.96 0.92,-4 18.928,12.449 14.135,32.804 13.159,40.39 11.009,87.698 7.732,200.191 39.106,208.097 40.444,208.379 c 1.17,0.246 2.327,-0.504 2.576,-1.679 0.247,-1.175 -0.505,-2.328 -1.679,-2.575 C 41.087,204.062 12.214,195.613 15.352,87.861 17.528,40.027 18.484,33.18 23.446,12.228 23.623,11.48 23.394,10.697 22.843,10.164 14.965,2.542 7.052,0 0,0"
         style="fill:#361100;fill-opacity:1;fill-rule:nonzero;stroke:none"
         id="path106"
         inkscape:connector-curvature="0" /></g></g><g
     inkscape:groupmode="layer"
     id="layer2"
     inkscape:label="flag"
     style="display:inline"><g
       id="g168"
       transform="matrix(1.25,0,0,-1.25,597.48288,827.57938)"><g
         id="g4492"><g
           transform="translate(-86.909204,250.6465)"
           id="g112"><path
             inkscape:connector-curvature="0"
             id="path114"
             style="fill:#ff0000;fill-opacity:1;fill-rule:nonzero;stroke:none"
             d="M 0,0 -302.04,-104.006 -354.123,47.248 -52.083,151.253 0,0 Z" /></g><g
           transform="translate(-104.4306,301.5298)"
           id="g116"><path
             inkscape:connector-curvature="0"
             id="path118"
             style="fill:#ffff00;fill-opacity:1;fill-rule:nonzero;stroke:none"
             d="M 0,0 -302.04,-104.004 -336.602,-3.636 -34.562,100.37 0,0 Z" /></g><g
           transform="translate(-121.7925,351.9488)"
           id="g120"><path
             inkscape:connector-curvature="0"
             id="path122"
             style="fill:#006633;fill-opacity:1;fill-rule:nonzero;stroke:none"
             d="m 0,0 -302.04,-104.005 -17.2,49.95 L -17.2,49.951 0,0 Z" /></g><path
           inkscape:connector-curvature="0"
           id="path170"
           style="fill:#513704;fill-opacity:1;fill-rule:nonzero;stroke:none"
           d="m 0,0 -11.953,-4.118 -145.701,423.128 11.953,4.116 L 0,0 Z" /></g></g></g><g
     inkscape:groupmode="layer"
     id="layer3"
     inkscape:label="hand"
     style="display:inline"><g
       id="g172"
       transform="matrix(1.25,0,0,-1.25,469.06612,1011.4001)"><path
         d="m 0,0 c 0,0 -0.748,-26.698 -24.229,-29.291 -23.479,-2.591 -33.007,11.019 -47.695,38.539 -15.168,28.421 -20.799,55.19 -21.312,80.135 -1.055,51.086 36.001,81.489 58.225,35.574 C -12.786,79.039 -0.29,12.949 0,0"
         style="fill:#000000;fill-opacity:1;fill-rule:nonzero;stroke:none"
         id="path174"
         inkscape:connector-curvature="0" /></g><g
       id="g176"
       transform="matrix(1.25,0,0,-1.25,462.27537,1005.5169)"><path
         d="m 0,0 c 0,0 -0.202,-23.399 -19.8,-25.302 -19.597,-1.898 -27.782,10.188 -40.501,34.552 -13.138,25.165 -18.272,48.729 -19.096,70.61 -1.691,44.818 28.82,70.891 48.135,30.274 C -11.946,69.516 -0.447,11.36 0,0"
         style="fill:#a20d0d;fill-opacity:1;fill-rule:nonzero;stroke:none"
         id="path178"
         inkscape:connector-curvature="0" /></g><g
       id="g180"
       transform="matrix(1.25,0,0,-1.25,561.651,1015.9167)"><path
         d="m 0,0 c 0,0 43.262,12.756 54.978,20.832 11.719,8.075 25.131,24.342 17.909,43.245 0,0 14.871,12.725 4.729,39.419 0,0 9.239,21.483 -3.471,41.825 0,0 2.747,16.87 -6.659,33.834 -9.406,16.963 -35.974,23.027 -50.605,22.03 -14.631,-0.997 -37.523,-0.087 -37.523,-0.087 0,0 11.956,34.301 6.533,65.237 -5.423,30.931 -22.516,56.418 -43.522,53.226 -21.005,-3.192 -18.808,-24.064 -17.021,-39.612 1.788,-15.546 -1.442,-48.271 -9.179,-63.768 -7.734,-15.499 -24.34,-46.649 -32.216,-62.432 -7.875,-15.785 -18.971,-43.612 -12.219,-65.291 6.753,-21.683 13.341,-66.355 37.719,-84.343 24.375,-17.988 32.656,-20.5 54.024,-15.74 C -16.985,-7.274 0,0 0,0"
         style="fill:#000000;fill-opacity:1;fill-rule:nonzero;stroke:none"
         id="path182"
         inkscape:connector-curvature="0" /></g><g
       id="g184"
       transform="matrix(1.25,0,0,-1.25,0,1252.6483)"><g
         id="g186"
         clip-path="url(#clipPath188)"><g
           id="g192"><g
             id="g194"><path
               d="m 380.494,485.503 c 0.157,-15.988 3.702,-40.26 0.084,-57.193 l 0,0 c -3.616,-16.932 -11.198,-42.539 -19.604,-54.882 l 0,0 c -8.407,-12.341 -21.333,-31.231 -24.705,-40.592 l 0,0 c -3.373,-9.363 -11.552,-39.45 -3.562,-64.033 l 0,0 c 7.991,-24.582 20.711,-67.738 32.349,-73.237 l 0,0 c 11.639,-5.5 23.553,-17.322 56.849,-6.334 l 0,0 c 33.293,10.991 52.438,15.445 66.66,21.769 l 0,0 c 14.222,6.323 32.228,18.226 28.637,36.243 l 0,0 c 0,0 -8.086,-2.22 -13.548,0.176 l 0,0 c 0,0 16.659,7.786 19.378,15.942 l 0,0 c 2.716,8.156 1.663,19.411 -3.01,22.286 l 0,0 c 0,0 -9.569,-2.582 -13.557,-1.698 l 0,0 c 0,0 13.171,8.341 15.037,13.619 l 0,0 c 1.866,5.276 4.539,26.162 -3.817,30.413 l 0,0 c 0,0 -8.048,-1.819 -11.943,-3.281 l 0,0 c 0,0 10.351,9.627 10.489,17.162 l 0,0 c 0.14,7.533 -2.994,22.676 -17.326,32.716 l 0,0 c -12.484,6.753 -23.341,10.323 -42.813,6.824 l 0,0 c -19.475,-3.496 -28.938,-6.041 -44.571,-9.819 l 0,0 c -15.633,-3.78 -25.794,-5.853 -25.794,-5.853 l 0,0 c 0,0 30.159,11.812 32.531,19.938 l 0,0 c 2.372,8.125 10.68,24.891 10.527,51.22 l 0,0 c -0.154,26.331 -10.127,59.438 -30.192,61.798 l 0,0 c -0.934,0.165 -2.72,0.449 -4.818,0.45 l 0,0 c -5.587,0 -13.396,-2.012 -13.281,-13.634"
               style="fill:url(#radialGradient196);stroke:none"
               id="path206"
               inkscape:connector-curvature="0" /></g></g></g></g></g><g
     inkscape:groupmode="layer"
     id="layer1"
     inkscape:label="flag star"
     sodipodi:insensitive="true"
     style="display:none"><g
       id="g124"
       transform="matrix(1.25,0,0,-1.25,219.55938,499.75887)"><path
         d="M 0,0 C 7.301,-21.204 30.415,-32.478 51.617,-25.176 72.824,-17.875 84.095,5.239 76.793,26.443 69.491,47.648 46.38,58.92 25.173,51.619 3.971,44.317 -7.302,21.205 0,0"
         style="fill:#3399ff;fill-opacity:1;fill-rule:nonzero;stroke:none"
         id="path126"
         inkscape:connector-curvature="0" /></g><g
       id="g128"
       transform="matrix(1.25,0,0,-1.25,257.61475,514.42325)"><path
         d="m 0,0 0.132,14.871 7.82,-2.483 2.265,3.165 -10.049,3.192 -0.001,0.018 -3.69,1.165 -10e-4,-0.011 -5.485,1.741 -7.342,2.318 -6.086,-1.938 18.879,-5.995 -0.253,-27.706 3.773,5.257 L 0.009,0.013 0,0 Z"
         style="fill:#ffff00;fill-opacity:1;fill-rule:nonzero;stroke:none"
         id="path130"
         inkscape:connector-curvature="0" /></g><g
       id="g132"
       transform="matrix(1.25,0,0,-1.25,253.21837,488.5455)"><path
         d="M 0,0 3.692,-1.166 3.791,9.587 3.832,9.602 3.859,13.514 3.825,13.501 3.943,26.653 0.288,31.921 0.111,12.266 -25.987,3.579 -20.143,1.724 -13.188,3.937 0.077,8.351 0,0 Z"
         style="fill:#ffff00;fill-opacity:1;fill-rule:nonzero;stroke:none"
         id="path134"
         inkscape:connector-curvature="0" /></g><g
       id="g136"
       transform="matrix(1.25,0,0,-1.25,270.55237,472.28887)"><path
         d="m 0,0 16.708,5.499 0.175,0.058 3.855,5.185 L 2.46,4.659 -13.518,25.753 -13.567,20.2 -9.325,14.086 -1.25,3.423 -9.265,0.756 -9.292,-3.156 0.04,0.019 0,0 Z"
         style="fill:#ffff00;fill-opacity:1;fill-rule:nonzero;stroke:none"
         id="path138"
         inkscape:connector-curvature="0" /></g><g
       id="g140"
       transform="matrix(1.25,0,0,-1.25,293.8495,502.43587)"><path
         d="m 0,0 -0.003,0.004 -14.291,4.539 5.338,7.442 -2.324,3.111 -6.749,-9.368 -2.264,-3.165 0.018,-0.006 -7.955,-11.091 -0.048,-6.419 11.714,16.331 27.831,-8.837 -3.842,5.07 L 0,0 Z"
         style="fill:#ffff00;fill-opacity:1;fill-rule:nonzero;stroke:none"
         id="path142"
         inkscape:connector-curvature="0" /></g><g
       id="g144"
       transform="matrix(1.25,0,0,-1.25,280.246,482.87175)"><path
         d="M 0,0 2.321,-3.117 2.34,-3.09 11.363,-15.004 17.542,-17.03 4.599,0.06 20.014,21.549 14.208,19.616 10.279,14.329 2.259,3.15 -2.49,9.419 -6.208,8.196 0,0 Z"
         style="fill:#ffff00;fill-opacity:1;fill-rule:nonzero;stroke:none"
         id="path146"
         inkscape:connector-curvature="0" /></g><g
       id="g148"
       transform="matrix(1.25,0,0,-1.25,274.151,464.84188)"><path
         d="M 0,0 -1.408,0.461 5.186,20.551 6.593,20.09 0,0 Z"
         style="fill:#ffff00;fill-opacity:1;fill-rule:nonzero;stroke:none"
         id="path150"
         inkscape:connector-curvature="0" /></g><g
       id="g152"
       transform="matrix(1.25,0,0,-1.25,251.78462,472.66475)"><path
         d="m 0,0 -17.095,11.542 0.83,1.228 L 0.829,1.228 0,0 Z"
         style="fill:#ffff00;fill-opacity:1;fill-rule:nonzero;stroke:none"
         id="path154"
         inkscape:connector-curvature="0" /></g><g
       id="g156"
       transform="matrix(1.25,0,0,-1.25,232.48963,511.22625)"><path
         d="M 0,0 -0.891,1.183 15.21,13.287 16.099,12.103 0,0 Z"
         style="fill:#ffff00;fill-opacity:1;fill-rule:nonzero;stroke:none"
         id="path158"
         inkscape:connector-curvature="0" /></g><g
       id="g160"
       transform="matrix(1.25,0,0,-1.25,281.78712,526.25)"><path
         d="M 0,0 -6.684,18.848 -5.29,19.341 1.397,0.495 0,0 Z"
         style="fill:#ffff00;fill-opacity:1;fill-rule:nonzero;stroke:none"
         id="path162"
         inkscape:connector-curvature="0" /></g><g
       id="g164"
       transform="matrix(1.25,0,0,-1.25,313.3935,483.125)"><path
         d="M 0,0 -20.781,-0.498 -20.816,0.983 -0.036,1.48 0,0 Z"
         style="fill:#ffff00;fill-opacity:1;fill-rule:nonzero;stroke:none"
         id="path166"
         inkscape:connector-curvature="0" /></g></g></svg>