<?xml version="1.0" encoding="UTF-8" standalone="no"?>
<!-- Created with Inkscape (http://www.inkscape.org/) -->

<svg
   xmlns:dc="http://purl.org/dc/elements/1.1/"
   xmlns:cc="http://creativecommons.org/ns#"
   xmlns:rdf="http://www.w3.org/1999/02/22-rdf-syntax-ns#"
   xmlns:svg="http://www.w3.org/2000/svg"
   xmlns="http://www.w3.org/2000/svg"
   xmlns:xlink="http://www.w3.org/1999/xlink"
   xmlns:sodipodi="http://sodipodi.sourceforge.net/DTD/sodipodi-0.dtd"
   xmlns:inkscape="http://www.inkscape.org/namespaces/inkscape"
   id="svg2"
   version="1.1"
   inkscape:version="0.91 r13725"
   xml:space="preserve"
   width="1250"
   height="1000"
   viewBox="0 0 1250 1000"
   sodipodi:docname="kiss.ai.svg"
   inkscape:export-filename="/Users/antenehs/Pictures/Emojis/Final V1/kiss.png"
   inkscape:export-xdpi="90"
   inkscape:export-ydpi="90"><metadata
     id="metadata8"><rdf:RDF><cc:Work
         rdf:about=""><dc:format>image/svg+xml</dc:format><dc:type
           rdf:resource="http://purl.org/dc/dcmitype/StillImage" /><dc:title></dc:title></cc:Work></rdf:RDF></metadata><defs
     id="defs6"><clipPath
       clipPathUnits="userSpaceOnUse"
       id="clipPath16"><path
         d="M 0,800 1000,800 1000,0 0,0 0,800 Z"
         id="path18"
         inkscape:connector-curvature="0" /></clipPath><clipPath
       clipPathUnits="userSpaceOnUse"
       id="clipPath28"><path
         d="m 487.732,583.608 c -152.334,0 -187,-105.001 -186,-216 l 0,0 c 1.075,-119.29 66.705,-216 186,-216 l 0,0 2.798,0 c 119.292,0 184.924,96.71 185.998,216 l 0,0 c 1,110.999 -33.664,216 -185.998,216 l 0,0 -2.798,0 z"
         id="path30"
         inkscape:connector-curvature="0" /></clipPath><radialGradient
       fx="0"
       fy="0"
       cx="0"
       cy="0"
       r="1"
       gradientUnits="userSpaceOnUse"
       gradientTransform="matrix(213.45012,0,0,-237.47604,489.12988,367.60742)"
       spreadMethod="pad"
       id="radialGradient36"><stop
         style="stop-opacity:1;stop-color:#f77b28"
         offset="0"
         id="stop38" /><stop
         style="stop-opacity:1;stop-color:#f77b28"
         offset="0.422276"
         id="stop40" /><stop
         style="stop-opacity:1;stop-color:#f77b28"
         offset="0.72507138"
         id="stop42" /><stop
         style="stop-opacity:1;stop-color:#630c05"
         offset="1"
         id="stop44" /></radialGradient><clipPath
       clipPathUnits="userSpaceOnUse"
       id="clipPath52"><path
         d="M 0,800 1000,800 1000,0 0,0 0,800 Z"
         id="path54"
         inkscape:connector-curvature="0" /></clipPath><clipPath
       clipPathUnits="userSpaceOnUse"
       id="clipPath92"><path
         d="m 522.274,284.695 c -1.029,-5.434 -0.099,-10.633 1.697,-15.72 l 0,0 c 3.96,-11.229 11.272,-20.489 17.807,-30.282 l 0,0 c 9.546,3.519 19.133,6.66 27.931,11.688 l 0,0 c 3.795,2.17 7.282,4.751 10.251,7.981 l 0,0 c 3.416,3.717 5.796,7.95 5.967,13.118 l 0,0 c 0.38,11.533 -11.271,20.145 -22.442,16.639 l 0,0 c -2.792,-0.877 -5.199,-2.404 -7.34,-4.56 l 0,0 c -0.121,0.459 -0.213,0.771 -0.284,1.088 l 0,0 c -1.75,7.751 -8.009,13.15 -15.886,13.7 l 0,0 c -0.421,0.03 -0.838,0.044 -1.252,0.044 l 0,0 c -8.146,-0.001 -14.911,-5.596 -16.449,-13.696"
         id="path94"
         inkscape:connector-curvature="0" /></clipPath><radialGradient
       fx="0"
       fy="0"
       cx="0"
       cy="0"
       r="1"
       gradientUnits="userSpaceOnUse"
       gradientTransform="matrix(29.19338,-9.3073702,-9.3073702,-29.19338,550.44043,265.74414)"
       spreadMethod="pad"
       id="radialGradient100"><stop
         style="stop-opacity:1;stop-color:#fe2627"
         offset="0"
         id="stop102" /><stop
         style="stop-opacity:1;stop-color:#9a0000"
         offset="1"
         id="stop104" /></radialGradient><clipPath
       clipPathUnits="userSpaceOnUse"
       id="clipPath112"><path
         d="M 0,800 1000,800 1000,0 0,0 0,800 Z"
         id="path114"
         inkscape:connector-curvature="0" /></clipPath><clipPath
       clipPathUnits="userSpaceOnUse"
       id="clipPath132"><path
         d="m 485.926,213.784 15.381,0 0,-11.126 -15.381,0 0,11.126 z"
         id="path134"
         inkscape:connector-curvature="0" /></clipPath><radialGradient
       inkscape:collect="always"
       xlink:href="#radialGradient100"
       id="radialGradient4280"
       gradientUnits="userSpaceOnUse"
       gradientTransform="matrix(29.19338,-9.3073702,-9.3073702,-29.19338,550.44043,265.74414)"
       spreadMethod="pad"
       cx="0"
       cy="0"
       fx="0"
       fy="0"
       r="1" /></defs><sodipodi:namedview
     pagecolor="#ffffff"
     bordercolor="#666666"
     borderopacity="1"
     objecttolerance="10"
     gridtolerance="10"
     guidetolerance="10"
     inkscape:pageopacity="0"
     inkscape:pageshadow="2"
     inkscape:window-width="1280"
     inkscape:window-height="752"
     id="namedview4"
     showgrid="false"
     inkscape:zoom="0.6675088"
     inkscape:cx="402.74266"
     inkscape:cy="433.71587"
     inkscape:window-x="0"
     inkscape:window-y="0"
     inkscape:window-maximized="1"
     inkscape:current-layer="g10" /><g
     id="g10"
     inkscape:groupmode="layer"
     inkscape:label="Order__FO18D48823B8_kiss1"
     transform="matrix(1.25,0,0,-1.25,0,1000)"><g
       id="g12"><g
         id="g14"
         clip-path="url(#clipPath16)"><g
           id="g20"
           transform="translate(490.1309,692.6074)"><path
             d="m 0,0 0.398,0 c 179.494,0 294.999,-138 284.999,-325 0,0 -12,-156.333 -151.999,-157.667 0,0 -52.666,-57.334 -132,-55 l -4.796,0 c -79.334,-2.334 -132,55 -132,55 -140,1.334 -152,157.667 -152,157.667 -10,187 105.505,325 285,325 L -2,0 0,0 Z"
             style="fill:#0a0205;fill-opacity:1;fill-rule:nonzero;stroke:none"
             id="path22"
             inkscape:connector-curvature="0" /></g></g></g><g
       id="g24"><g
         id="g26"
         clip-path="url(#clipPath28)"><g
           id="g32"><g
             id="g34"><path
               d="m 487.732,583.608 c -152.334,0 -187,-105.001 -186,-216 l 0,0 c 1.075,-119.29 66.705,-216 186,-216 l 0,0 2.798,0 c 119.292,0 184.924,96.71 185.998,216 l 0,0 c 1,110.999 -33.664,216 -185.998,216 l 0,0 -2.798,0 z"
               style="fill:url(#radialGradient36);stroke:none"
               id="path46"
               inkscape:connector-curvature="0" /></g></g></g></g><g
       id="g48"><g
         id="g50"
         clip-path="url(#clipPath52)"><g
           id="g56"
           transform="translate(520.8633,450.6074)"><path
             d="M 0,0 C 0,0 40.666,47.333 94.666,26.667 94.666,26.667 126,13.334 142,-16 157.999,-45.334 94,44.667 0,0"
             style="fill:#330400;fill-opacity:1;fill-rule:nonzero;stroke:none"
             id="path58"
             inkscape:connector-curvature="0" /></g><g
           id="g60"
           transform="translate(458.1455,466.1016)"><path
             d="m 2.0263091,-15.667881 c 0,0 -40.1660151,47.757813 -94.3798391,27.661285 0,0 -31.47258,-13.0028138 -47.77993,-42.166555 -16.30833,-29.163519 48.634687,60.158729 142.1597691,14.50527"
             style="fill:#330400;fill-opacity:1;fill-rule:nonzero;stroke:none"
             id="path62"
             inkscape:connector-curvature="0" /></g><g
           id="g64"
           transform="translate(310.4316,377.6162)"><path
             d="m 0,0 c 17.873,-17.868 89.805,-82.937 149.881,-23.752 0,0 10.443,9.704 10.715,14.798 0.273,5.093 -4.414,18.338 -4.414,18.338 0,0 -21.735,54.337 -80.11,43.125 0,0 -25.627,-1.595 -75.566,-44.18 0,0 -4.965,-3.87 -0.506,-8.329"
             style="fill:#0a0205;fill-opacity:1;fill-rule:nonzero;stroke:none"
             id="path66"
             inkscape:connector-curvature="0" /></g><g
           id="g68"
           transform="translate(319.4121,378.3604)"><path
             d="m 0,0 c 15.102,-15.104 78.996,-73.838 132.326,-21.3 0,0 9.194,8.543 9.434,13.027 0.24,4.484 -3.887,16.144 -3.887,16.144 0,0 -19.133,47.834 -70.521,37.963 0,0 -22.321,-1.389 -65.829,-38.3 0,0 -5.046,-4.01 -1.523,-7.534"
             style="fill:#efe8d3;fill-opacity:1;fill-rule:nonzero;stroke:none"
             id="path70"
             inkscape:connector-curvature="0" /></g><g
           id="g72"
           transform="translate(351.0918,380.583)"><path
             d="m 0,0 c 0,17.563 9.879,32.813 24.381,40.512 7.494,2.857 11.291,3.099 11.291,3.099 7.873,1.512 14.984,1.665 21.391,0.849 19.898,-5.004 34.63,-23.009 34.63,-44.46 0,-22.029 -15.539,-40.423 -36.252,-44.835 -11.888,-0.654 -23.498,1.933 -34.228,6.176 C 8.463,-30.517 0,-16.252 0,0"
             style="fill:#070409;fill-opacity:1;fill-rule:nonzero;stroke:none"
             id="path74"
             inkscape:connector-curvature="0" /></g><g
           id="g76"
           transform="translate(491.0244,265.1543)"><path
             d="m 0,0 c -12.875,0 -22.617,9.211 -22.763,9.352 -0.507,0.49 -0.717,1.211 -0.555,1.898 4.408,18.613 7.42,69.148 7.45,69.656 2.885,99.094 -23.683,106.867 -23.951,106.934 -1.058,0.264 -1.728,1.33 -1.484,2.392 0.243,1.064 1.274,1.743 2.343,1.514 1.231,-0.259 30.101,-7.534 27.087,-111.016 -0.123,-2.105 -2.948,-49.511 -7.287,-69.238 3.821,-3.25 20.007,-15.174 36.576,-0.038 -4.41,18.73 -5.307,25.709 -7.286,69.244 -3.015,103.514 25.855,110.789 27.086,111.048 1.076,0.227 2.141,-0.464 2.369,-1.545 0.228,-1.081 -0.464,-2.141 -1.545,-2.369 C 37.807,187.773 11.239,180 14.127,80.848 16.129,36.832 17.008,30.529 21.574,11.25 21.736,10.563 21.525,9.842 21.019,9.352 13.769,2.338 6.487,0 0,0"
             style="fill:#361100;fill-opacity:1;fill-rule:nonzero;stroke:none"
             id="path78"
             inkscape:connector-curvature="0" /></g><g
           id="g80"
           transform="translate(507.6289,186.7334)"><path
             d="m 0,0 c -0.13,0.519 -0.453,0.955 -0.912,1.229 -5.765,3.46 -12.067,5.214 -18.732,5.214 -11.185,0 -19.638,-5.001 -19.992,-5.214 -0.459,-0.274 -0.783,-0.71 -0.912,-1.23 -0.13,-0.518 -0.05,-1.055 0.226,-1.512 0.358,-0.599 1.015,-0.972 1.716,-0.972 0.361,0 0.717,0.098 1.024,0.283 0.317,0.187 7.905,4.583 18.011,4.583 5.95,0 11.536,-1.541 16.601,-4.581 0.91,-0.545 2.199,-0.223 2.744,0.685 C 0.05,-1.056 0.13,-0.519 0,0"
             style="fill:#330400;fill-opacity:1;fill-rule:nonzero;stroke:none"
             id="path82"
             inkscape:connector-curvature="0" /></g><g
           id="g84"
           transform="translate(516.667,368.1367)"><path
             d="m 0,14.062408 c 0,0 59,-80.665 139.333,7.001 0,0 -66.333,-58.667 -139.333,-7.001"
             style="fill:#0a0205;fill-opacity:1;fill-rule:nonzero;stroke:none"
             id="path86"
             inkscape:connector-curvature="0" /></g></g></g><g
       id="g88"><g
         id="g90"
         clip-path="url(#clipPath92)"><g
           id="g96"><g
             id="g98"><path
               d="m 522.274,284.695 c -1.029,-5.434 -0.099,-10.633 1.697,-15.72 l 0,0 c 3.96,-11.229 11.272,-20.489 17.807,-30.282 l 0,0 c 9.546,3.519 19.133,6.66 27.931,11.688 l 0,0 c 3.795,2.17 7.282,4.751 10.251,7.981 l 0,0 c 3.416,3.717 5.796,7.95 5.967,13.118 l 0,0 c 0.38,11.533 -11.271,20.145 -22.442,16.639 l 0,0 c -2.792,-0.877 -5.199,-2.404 -7.34,-4.56 l 0,0 c -0.121,0.459 -0.213,0.771 -0.284,1.088 l 0,0 c -1.75,7.751 -8.009,13.15 -15.886,13.7 l 0,0 c -0.421,0.03 -0.838,0.044 -1.252,0.044 l 0,0 c -8.146,-0.001 -14.911,-5.596 -16.449,-13.696"
               style="fill:url(#radialGradient100);stroke:none"
               id="path106"
               inkscape:connector-curvature="0" /></g></g></g></g><g
       id="g108"><g
         id="g110"
         clip-path="url(#clipPath112)"><g
           id="g116"
           transform="translate(551.2861,286.5771)"><path
             d="m 0,0 c 0,0 -18.316,5.689 -24.405,-9.666 0,0 1.949,29.499 24.405,9.666"
             style="fill:#fe4a49;fill-opacity:1;fill-rule:evenodd;stroke:none"
             id="path118"
             inkscape:connector-curvature="0" /></g><g
           id="g120"
           transform="translate(472.5088,222.293)"><path
             d="m 0,0 c 0,0 -15.053,15.055 0.654,18.98 15.709,3.927 26.18,11.781 32.071,4.582 5.89,-7.2 11.127,-10.472 11.127,-13.744 0,-3.273 3.271,-0.655 -7.2,-6.547 C 26.18,-2.618 13.089,-16.362 0,0"
             style="fill:#330400;fill-opacity:1;fill-rule:nonzero;stroke:none"
             id="path122"
             inkscape:connector-curvature="0" /></g><g
           id="g124"
           transform="translate(505.8437,228.1328)"><path
             d="m 0,0 c -3.37,-1.611 -6.819,-3.107 -9.979,-5.118 -1.576,-1.005 -3.103,-2.672 -5.09,-2.759 -2.029,-0.089 -3.446,1.593 -4.841,2.804 -3.556,3.084 -7.993,5.308 -12.638,6.135 -0.649,0.116 -2.478,0.141 -2.835,0.856 -0.415,0.83 1.468,0.919 2.008,1.132 3.705,1.381 7.443,2.692 11.028,4.366 2.269,1.059 4.594,2.043 7.148,1.857 2.627,-0.192 5.06,-1.353 7.516,-2.208 C -4.977,6.125 -2.26,5.215 0.44,4.255 1.479,3.885 2.559,3.535 3.553,3.05 3.981,2.844 5.525,2.855 5.651,2.276 5.826,1.466 0.703,0.336 0,0 m 25.911,14.067 c 0,0 -13.418,23.726 -24.707,23.562 -1.569,-0.023 -4.242,-0.19 -5.776,-0.661 -4.13,-1.268 -7.43,-3.911 -12.032,-3.15 -4.502,0.746 -8.37,3.727 -12.915,4.369 -0.346,0.049 -0.674,0.091 -1.021,0.096 -11.289,0.164 -26.016,-24.216 -26.016,-24.216 -3.272,-7.199 -10.962,-9.49 -10.962,-9.49 0,0 7.69,-1.963 16.035,-18.325 1.392,-2.729 3.395,-5.208 5.504,-7.402 3.146,-3.272 6.833,-6.381 10.862,-8.495 5.617,-2.947 12.195,-3.925 18.65,-4.043 2.427,-0.042 4.835,0.036 7.17,0.176 2.645,0.16 5.317,0.562 7.87,1.283 1.723,0.487 3.402,1.122 4.997,1.933 3.484,1.775 6.536,4.269 9.348,6.959 2.044,1.957 4.025,4.018 5.809,6.217 0.783,0.965 1.539,1.962 2.011,3.118 0.033,0.082 0.06,0.174 0.101,0.254 8.344,16.362 16.034,18.325 16.034,18.325 0,0 -7.69,2.291 -10.962,9.49"
             style="fill:#82301d;fill-opacity:1;fill-rule:nonzero;stroke:none"
             id="path126"
             inkscape:connector-curvature="0" /></g><g
           id="g128"><g
             id="g130" /><g
             id="g136"><g
               clip-path="url(#clipPath132)"
               id="g138"
               style="opacity:0.10000598"><g
                 transform="translate(501.3066,208.2217)"
                 id="g140"><path
                   d="m 0,0 c 0,-3.072 -3.443,-5.563 -7.69,-5.563 -4.247,0 -7.69,2.491 -7.69,5.563 0,3.072 3.443,5.562 7.69,5.562 C -3.443,5.562 0,3.072 0,0"
                   style="fill:#ffffff;fill-opacity:1;fill-rule:nonzero;stroke:none"
                   id="path142"
                   inkscape:connector-curvature="0" /></g></g></g></g></g></g><g
       id="g4270"
       transform="matrix(0.66339803,0,0,0.61855949,240.37272,117.41388)"><g
         clip-path="url(#clipPath92)"
         id="g4272"><g
           id="g4274"><g
             id="g4276"><path
               inkscape:connector-curvature="0"
               id="path4278"
               style="fill:url(#radialGradient4280);stroke:none"
               d="m 522.274,284.695 c -1.029,-5.434 -0.099,-10.633 1.697,-15.72 l 0,0 c 3.96,-11.229 11.272,-20.489 17.807,-30.282 l 0,0 c 9.546,3.519 19.133,6.66 27.931,11.688 l 0,0 c 3.795,2.17 7.282,4.751 10.251,7.981 l 0,0 c 3.416,3.717 5.796,7.95 5.967,13.118 l 0,0 c 0.38,11.533 -11.271,20.145 -22.442,16.639 l 0,0 c -2.792,-0.877 -5.199,-2.404 -7.34,-4.56 l 0,0 c -0.121,0.459 -0.213,0.771 -0.284,1.088 l 0,0 c -1.75,7.751 -8.009,13.15 -15.886,13.7 l 0,0 c -0.421,0.03 -0.838,0.044 -1.252,0.044 l 0,0 c -8.146,-0.001 -14.911,-5.596 -16.449,-13.696" /></g></g></g></g></g></svg>