<?xml version="1.0" encoding="UTF-8" standalone="no"?>
<!-- Created with Inkscape (http://www.inkscape.org/) -->

<svg
   xmlns:dc="http://purl.org/dc/elements/1.1/"
   xmlns:cc="http://creativecommons.org/ns#"
   xmlns:rdf="http://www.w3.org/1999/02/22-rdf-syntax-ns#"
   xmlns:svg="http://www.w3.org/2000/svg"
   xmlns="http://www.w3.org/2000/svg"
   xmlns:sodipodi="http://sodipodi.sourceforge.net/DTD/sodipodi-0.dtd"
   xmlns:inkscape="http://www.inkscape.org/namespaces/inkscape"
   id="svg2"
   version="1.1"
   inkscape:version="0.91 r13725"
   xml:space="preserve"
   width="1250"
   height="1000"
   viewBox="0 0 1250 1000"
   sodipodi:docname="laughwithtears.ai.svg"
   inkscape:export-filename="/Users/antenehs/Pictures/Emojis/Final V1/laugh-n-cry.png"
   inkscape:export-xdpi="90"
   inkscape:export-ydpi="90"><metadata
     id="metadata8"><rdf:RDF><cc:Work
         rdf:about=""><dc:format>image/svg+xml</dc:format><dc:type
           rdf:resource="http://purl.org/dc/dcmitype/StillImage" /><dc:title></dc:title></cc:Work></rdf:RDF></metadata><defs
     id="defs6"><clipPath
       clipPathUnits="userSpaceOnUse"
       id="clipPath16"><path
         d="M 0,800 1000,800 1000,0 0,0 0,800 Z"
         id="path18"
         inkscape:connector-curvature="0" /></clipPath><clipPath
       clipPathUnits="userSpaceOnUse"
       id="clipPath28"><path
         d="m 487.732,583.608 c -152.334,0 -187,-105.001 -186,-216 l 0,0 c 1.075,-119.29 66.705,-216 186,-216 l 0,0 2.798,0 c 119.292,0 184.924,96.71 185.998,216 l 0,0 c 1,110.999 -33.664,216 -185.998,216 l 0,0 -2.798,0 z"
         id="path30"
         inkscape:connector-curvature="0" /></clipPath><radialGradient
       fx="0"
       fy="0"
       cx="0"
       cy="0"
       r="1"
       gradientUnits="userSpaceOnUse"
       gradientTransform="matrix(213.45012,0,0,-237.47604,489.12988,367.60742)"
       spreadMethod="pad"
       id="radialGradient36"><stop
         style="stop-opacity:1;stop-color:#f77b28"
         offset="0"
         id="stop38" /><stop
         style="stop-opacity:1;stop-color:#f77b28"
         offset="0.422276"
         id="stop40" /><stop
         style="stop-opacity:1;stop-color:#f77b28"
         offset="0.72507138"
         id="stop42" /><stop
         style="stop-opacity:1;stop-color:#630c05"
         offset="1"
         id="stop44" /></radialGradient><clipPath
       clipPathUnits="userSpaceOnUse"
       id="clipPath52"><path
         d="M 0,800 1000,800 1000,0 0,0 0,800 Z"
         id="path54"
         inkscape:connector-curvature="0" /></clipPath><clipPath
       clipPathUnits="userSpaceOnUse"
       id="clipPath96"><path
         d="m 308.195,338.644 c -5.229,-7.228 -3.61,-17.328 3.619,-22.557 l 0,0 c 7.228,-5.231 17.327,-3.61 22.557,3.618 l 0,0 c 9.018,12.465 5.904,37.032 5.904,37.032 l 0,0 c 0,0 -24.752,-7.966 -32.08,-18.093"
         id="path98"
         inkscape:connector-curvature="0" /></clipPath><linearGradient
       x1="0"
       y1="0"
       x2="1"
       y2="0"
       gradientUnits="userSpaceOnUse"
       gradientTransform="matrix(-17.833887,-24.648605,-24.648605,17.833887,333.57031,346.15723)"
       spreadMethod="pad"
       id="linearGradient104"><stop
         style="stop-opacity:1;stop-color:#2c96d2"
         offset="0"
         id="stop106" /><stop
         style="stop-opacity:1;stop-color:#3a74b3"
         offset="1"
         id="stop108" /></linearGradient><clipPath
       clipPathUnits="userSpaceOnUse"
       id="clipPath116"><path
         d="m 308.195,338.644 c -5.229,-7.228 -3.61,-17.328 3.619,-22.557 l 0,0 c 7.228,-5.231 17.327,-3.61 22.557,3.618 l 0,0 c 9.018,12.465 5.904,37.032 5.904,37.032 l 0,0 c 0,0 -24.752,-7.966 -32.08,-18.093"
         id="path118"
         inkscape:connector-curvature="0" /></clipPath><linearGradient
       x1="0"
       y1="0"
       x2="1"
       y2="0"
       gradientUnits="userSpaceOnUse"
       gradientTransform="matrix(-17.833887,-24.648605,-24.648605,17.833887,333.57031,346.15723)"
       spreadMethod="pad"
       id="linearGradient124"><stop
         style="stop-opacity:1;stop-color:#2c96d2"
         offset="0"
         id="stop126" /><stop
         style="stop-opacity:1;stop-color:#3a74b3"
         offset="1"
         id="stop128" /></linearGradient><clipPath
       clipPathUnits="userSpaceOnUse"
       id="clipPath136"><path
         d="M 0,800 1000,800 1000,0 0,0 0,800 Z"
         id="path138"
         inkscape:connector-curvature="0" /></clipPath><clipPath
       clipPathUnits="userSpaceOnUse"
       id="clipPath144"><path
         d="m 313.72,348.418 21.231,0 0,-26.022 -21.231,0 0,26.022 z"
         id="path146"
         inkscape:connector-curvature="0" /></clipPath><clipPath
       clipPathUnits="userSpaceOnUse"
       id="clipPath148"><path
         d="m 331.126,326.375 c -3.112,-4.302 -9.124,-5.267 -13.426,-2.153 -4.303,3.113 -5.266,9.124 -2.154,13.426 4.362,6.029 19.095,10.77 19.095,10.77 0,0 1.854,-14.623 -3.515,-22.043"
         id="path150"
         inkscape:connector-curvature="0" /></clipPath><linearGradient
       x1="0"
       y1="0"
       x2="1"
       y2="0"
       gradientUnits="userSpaceOnUse"
       gradientTransform="matrix(14.941867,20.651487,20.651487,-14.941867,318.35156,325.12207)"
       spreadMethod="pad"
       id="linearGradient152"><stop
         style="stop-opacity:1;stop-color:#9ce7fe"
         offset="0"
         id="stop154" /><stop
         style="stop-opacity:1;stop-color:#c9f1fd"
         offset="1"
         id="stop156" /></linearGradient><clipPath
       clipPathUnits="userSpaceOnUse"
       id="clipPath176"><path
         d="m 309.529,335.246 18.463,0 0,-18.463 -18.463,0 0,18.463 z"
         id="path178"
         inkscape:connector-curvature="0" /></clipPath><clipPath
       clipPathUnits="userSpaceOnUse"
       id="clipPath192"><path
         d="m 650.424,322.512 c 5.229,-7.227 15.329,-8.848 22.555,-3.618 l 0,0 c 7.229,5.23 8.849,15.33 3.62,22.557 l 0,0 c -7.328,10.127 -32.079,18.093 -32.079,18.093 l 0,0 c 0,0 -3.114,-24.567 5.904,-37.032"
         id="path194"
         inkscape:connector-curvature="0" /></clipPath><linearGradient
       x1="0"
       y1="0"
       x2="1"
       y2="0"
       gradientUnits="userSpaceOnUse"
       gradientTransform="matrix(17.834238,-24.649092,24.649092,17.834238,651.22363,348.96582)"
       spreadMethod="pad"
       id="linearGradient200"><stop
         style="stop-opacity:1;stop-color:#2c96d2"
         offset="0"
         id="stop202" /><stop
         style="stop-opacity:1;stop-color:#3a74b3"
         offset="1"
         id="stop204" /></linearGradient><clipPath
       clipPathUnits="userSpaceOnUse"
       id="clipPath212"><path
         d="m 650.424,322.512 c 5.229,-7.227 15.329,-8.848 22.555,-3.618 l 0,0 c 7.229,5.23 8.849,15.33 3.62,22.557 l 0,0 c -7.328,10.127 -32.079,18.093 -32.079,18.093 l 0,0 c 0,0 -3.114,-24.567 5.904,-37.032"
         id="path214"
         inkscape:connector-curvature="0" /></clipPath><linearGradient
       x1="0"
       y1="0"
       x2="1"
       y2="0"
       gradientUnits="userSpaceOnUse"
       gradientTransform="matrix(17.834238,-24.649092,24.649092,17.834238,651.22363,348.96582)"
       spreadMethod="pad"
       id="linearGradient220"><stop
         style="stop-opacity:1;stop-color:#2c96d2"
         offset="0"
         id="stop222" /><stop
         style="stop-opacity:1;stop-color:#3a74b3"
         offset="1"
         id="stop224" /></linearGradient><clipPath
       clipPathUnits="userSpaceOnUse"
       id="clipPath232"><path
         d="M 0,800 1000,800 1000,0 0,0 0,800 Z"
         id="path234"
         inkscape:connector-curvature="0" /></clipPath><clipPath
       clipPathUnits="userSpaceOnUse"
       id="clipPath240"><path
         d="m 649.845,351.226 21.229,0 0,-26.023 -21.229,0 0,26.023 z"
         id="path242"
         inkscape:connector-curvature="0" /></clipPath><clipPath
       clipPathUnits="userSpaceOnUse"
       id="clipPath244"><path
         d="m 653.668,329.183 c 3.112,-4.302 9.125,-5.267 13.427,-2.154 4.301,3.114 5.266,9.124 2.153,13.427 -4.36,6.028 -19.094,10.77 -19.094,10.77 0,0 -1.855,-14.623 3.514,-22.043"
         id="path246"
         inkscape:connector-curvature="0" /></clipPath><linearGradient
       x1="0"
       y1="0"
       x2="1"
       y2="0"
       gradientUnits="userSpaceOnUse"
       gradientTransform="matrix(-14.941867,20.651487,-20.651487,-14.941867,666.44336,327.92969)"
       spreadMethod="pad"
       id="linearGradient248"><stop
         style="stop-opacity:1;stop-color:#9ce7fe"
         offset="0"
         id="stop250" /><stop
         style="stop-opacity:1;stop-color:#c9f1fd"
         offset="1"
         id="stop252" /></linearGradient><clipPath
       clipPathUnits="userSpaceOnUse"
       id="clipPath272"><path
         d="m 656.803,338.054 18.463,0 0,-18.463 -18.463,0 0,18.463 z"
         id="path274"
         inkscape:connector-curvature="0" /></clipPath><clipPath
       clipPathUnits="userSpaceOnUse"
       id="clipPath288"><path
         d="m 386.763,424.194 c 0,0 -22.32,-1.388 -65.828,-38.299 l 0,0 c 0,0 -5.047,-4.011 -1.523,-7.535 l 0,0 c 4.238,-4.238 12.319,-11.912 22.929,-19.599 l 0,0 107.927,-3.097 c 0.491,0.463 0.982,0.915 1.47,1.397 l 0,0 c 0,0 9.193,8.542 9.434,13.026 l 0,0 c 0.24,4.484 -3.887,16.144 -3.887,16.144 l 0,0 c 0,0 -15.725,39.302 -56.938,39.305 l 0,0 c -4.254,0 -8.775,-0.418 -13.584,-1.342"
         id="path290"
         inkscape:connector-curvature="0" /></clipPath><radialGradient
       fx="0"
       fy="0"
       cx="0"
       cy="0"
       r="1"
       gradientUnits="userSpaceOnUse"
       gradientTransform="matrix(80.042946,0,0,-84.9888,389.67236,390.59961)"
       spreadMethod="pad"
       id="radialGradient296"><stop
         style="stop-opacity:1;stop-color:#f77b28"
         offset="0"
         id="stop298" /><stop
         style="stop-opacity:1;stop-color:#f77b28"
         offset="0.422276"
         id="stop300" /><stop
         style="stop-opacity:1;stop-color:#f77b28"
         offset="0.72507138"
         id="stop302" /><stop
         style="stop-opacity:1;stop-color:#630c05"
         offset="1"
         id="stop304" /></radialGradient><clipPath
       clipPathUnits="userSpaceOnUse"
       id="clipPath312"><path
         d="m 522.059,386.231 c 0,0 -4.126,-11.66 -3.886,-16.144 l 0,0 c 0.24,-4.484 9.433,-13.026 9.433,-13.026 l 0,0 c 0.489,-0.482 0.98,-0.934 1.47,-1.397 l 0,0 107.928,3.097 c 10.609,7.687 18.691,15.361 22.928,19.599 l 0,0 c 3.524,3.524 -1.523,7.535 -1.523,7.535 l 0,0 c -43.507,36.911 -65.828,38.299 -65.828,38.299 l 0,0 c -4.809,0.924 -9.329,1.342 -13.584,1.342 l 0,0 c -41.213,-0.003 -56.938,-39.305 -56.938,-39.305"
         id="path314"
         inkscape:connector-curvature="0" /></clipPath><radialGradient
       fx="0"
       fy="0"
       cx="0"
       cy="0"
       r="1"
       gradientUnits="userSpaceOnUse"
       gradientTransform="matrix(-80.042946,0,0,-84.9888,589.67188,390.59961)"
       spreadMethod="pad"
       id="radialGradient320"><stop
         style="stop-opacity:1;stop-color:#f77b28"
         offset="0"
         id="stop322" /><stop
         style="stop-opacity:1;stop-color:#f77b28"
         offset="0.422276"
         id="stop324" /><stop
         style="stop-opacity:1;stop-color:#f77b28"
         offset="0.72507138"
         id="stop326" /><stop
         style="stop-opacity:1;stop-color:#630c05"
         offset="1"
         id="stop328" /></radialGradient><clipPath
       clipPathUnits="userSpaceOnUse"
       id="clipPath336"><path
         d="M 0,800 1000,800 1000,0 0,0 0,800 Z"
         id="path338"
         inkscape:connector-curvature="0" /></clipPath><clipPath
       clipPathUnits="userSpaceOnUse"
       id="clipPath352"><path
         d="m 486.756,208.645 c 63.628,-1.214 69.214,59.986 69.214,59.986 l 0,0 c -78.2,-35.943 -133.816,2.671 -133.816,2.671 l 0,0 c 6.8,-61.687 64.602,-62.657 64.602,-62.657"
         id="path354"
         inkscape:connector-curvature="0" /></clipPath><linearGradient
       x1="0"
       y1="0"
       x2="1"
       y2="0"
       gradientUnits="userSpaceOnUse"
       gradientTransform="matrix(-2.4e-6,55.543606,55.543606,2.4e-6,489.06201,191.15039)"
       spreadMethod="pad"
       id="linearGradient360"><stop
         style="stop-opacity:1;stop-color:#82301d"
         offset="0"
         id="stop362" /><stop
         style="stop-opacity:1;stop-color:#330400"
         offset="1"
         id="stop364" /></linearGradient><clipPath
       clipPathUnits="userSpaceOnUse"
       id="clipPath372"><path
         d="m 425.798,263.775 c 3.156,-12.873 6.8,-19.672 6.8,-19.672 l 0,0 c 54.4,-21.857 110.987,-1.944 110.987,-1.944 l 0,0 c 3.4,2.187 8.986,21.616 8.986,21.616 l 0,0 c -71.643,-29.387 -126.773,0 -126.773,0"
         id="path374"
         inkscape:connector-curvature="0" /></clipPath><radialGradient
       fx="0"
       fy="0"
       cx="0"
       cy="0"
       r="1"
       gradientUnits="userSpaceOnUse"
       gradientTransform="matrix(81.454125,0,0,-49.334686,489.18457,248.81641)"
       spreadMethod="pad"
       id="radialGradient380"><stop
         style="stop-opacity:1;stop-color:#ffffff"
         offset="0"
         id="stop382" /><stop
         style="stop-opacity:1;stop-color:#ffffff"
         offset="0.27841598"
         id="stop384" /><stop
         style="stop-opacity:1;stop-color:#d3d3d3"
         offset="1"
         id="stop386" /></radialGradient><clipPath
       clipPathUnits="userSpaceOnUse"
       id="clipPath394"><path
         d="M 0,800 1000,800 1000,0 0,0 0,800 Z"
         id="path396"
         inkscape:connector-curvature="0" /></clipPath></defs><sodipodi:namedview
     pagecolor="#ffffff"
     bordercolor="#666666"
     borderopacity="1"
     objecttolerance="10"
     gridtolerance="10"
     guidetolerance="10"
     inkscape:pageopacity="0"
     inkscape:pageshadow="2"
     inkscape:window-width="1280"
     inkscape:window-height="752"
     id="namedview4"
     showgrid="false"
     inkscape:zoom="0.55"
     inkscape:cx="625"
     inkscape:cy="500"
     inkscape:window-x="0"
     inkscape:window-y="0"
     inkscape:window-maximized="1"
     inkscape:current-layer="g10" /><g
     id="g10"
     inkscape:groupmode="layer"
     inkscape:label="Order__FO18D48823B8laughwithtears"
     transform="matrix(1.25,0,0,-1.25,0,1000)"><g
       id="g12"><g
         id="g14"
         clip-path="url(#clipPath16)"><g
           id="g20"
           transform="translate(490.1309,692.6074)"><path
             d="m 0,0 0.398,0 c 179.494,0 294.999,-138 284.999,-325 0,0 -12,-156.333 -151.999,-157.667 0,0 -52.666,-57.334 -132,-55 l -4.796,0 c -79.334,-2.334 -132,55 -132,55 -140,1.334 -152,157.667 -152,157.667 -10,187 105.505,325 285,325 L -2,0 0,0 Z"
             style="fill:#0a0205;fill-opacity:1;fill-rule:nonzero;stroke:none"
             id="path22"
             inkscape:connector-curvature="0" /></g></g></g><g
       id="g24"><g
         id="g26"
         clip-path="url(#clipPath28)"><g
           id="g32"><g
             id="g34"><path
               d="m 487.732,583.608 c -152.334,0 -187,-105.001 -186,-216 l 0,0 c 1.075,-119.29 66.705,-216 186,-216 l 0,0 2.798,0 c 119.292,0 184.924,96.71 185.998,216 l 0,0 c 1,110.999 -33.664,216 -185.998,216 l 0,0 -2.798,0 z"
               style="fill:url(#radialGradient36);stroke:none"
               id="path46"
               inkscape:connector-curvature="0" /></g></g></g></g><g
       id="g48"><g
         id="g50"
         clip-path="url(#clipPath52)"><g
           id="g56"
           transform="translate(520.8633,450.6074)"><path
             d="M 0,0 C 0,0 40.666,47.333 94.666,26.667 94.666,26.667 126,13.334 142,-16 157.999,-45.334 94,44.667 0,0"
             style="fill:#330400;fill-opacity:1;fill-rule:nonzero;stroke:none"
             id="path58"
             inkscape:connector-curvature="0" /></g><g
           id="g60"
           transform="translate(669.1807,377.6162)"><path
             d="m 0,0 c -17.874,-17.868 -89.804,-82.937 -149.88,-23.752 0,0 -10.443,9.704 -10.717,14.798 -0.271,5.093 4.416,18.338 4.416,18.338 0,0 21.735,54.337 80.11,43.125 0,0 25.625,-1.595 75.565,-44.18 0,0 4.965,-3.87 0.506,-8.329"
             style="fill:#0a0205;fill-opacity:1;fill-rule:nonzero;stroke:none"
             id="path62"
             inkscape:connector-curvature="0" /></g><g
           id="g64"
           transform="translate(660.1992,378.3604)"><path
             d="m 0,0 c -15.1,-15.104 -78.996,-73.838 -132.324,-21.3 0,0 -9.194,8.543 -9.436,13.027 -0.238,4.484 3.887,16.144 3.887,16.144 0,0 19.133,47.834 70.521,37.963 0,0 22.323,-1.389 65.829,-38.3 0,0 5.046,-4.01 1.523,-7.534"
             style="fill:#efe8d3;fill-opacity:1;fill-rule:nonzero;stroke:none"
             id="path66"
             inkscape:connector-curvature="0" /></g><g
           id="g68"
           transform="translate(628.5215,380.583)"><path
             d="m 0,0 c 0,17.563 -9.881,32.813 -24.381,40.512 -7.494,2.857 -11.293,3.099 -11.293,3.099 -7.871,1.512 -14.982,1.665 -21.389,0.849 C -76.961,39.456 -91.695,21.451 -91.695,0 c 0,-22.029 15.539,-40.423 36.254,-44.835 11.886,-0.654 23.498,1.933 34.228,6.176 C -8.463,-30.517 0,-16.252 0,0"
             style="fill:#070409;fill-opacity:1;fill-rule:nonzero;stroke:none"
             id="path70"
             inkscape:connector-curvature="0" /></g><g
           id="g72"
           transform="translate(458.75,450.6074)"><path
             d="M 0,0 C 0,0 -40.666,47.333 -94.666,26.667 -94.666,26.667 -126,13.334 -142,-16 -158,-45.334 -94,44.667 0,0"
             style="fill:#330400;fill-opacity:1;fill-rule:nonzero;stroke:none"
             id="path74"
             inkscape:connector-curvature="0" /></g><g
           id="g76"
           transform="translate(310.4316,377.6162)"><path
             d="m 0,0 c 17.873,-17.868 89.805,-82.937 149.881,-23.752 0,0 10.443,9.704 10.715,14.798 0.273,5.093 -4.414,18.338 -4.414,18.338 0,0 -21.735,54.337 -80.11,43.125 0,0 -25.627,-1.595 -75.566,-44.18 0,0 -4.965,-3.87 -0.506,-8.329"
             style="fill:#0a0205;fill-opacity:1;fill-rule:nonzero;stroke:none"
             id="path78"
             inkscape:connector-curvature="0" /></g><g
           id="g80"
           transform="translate(319.4121,378.3604)"><path
             d="m 0,0 c 15.102,-15.104 78.996,-73.838 132.326,-21.3 0,0 9.194,8.543 9.434,13.027 0.24,4.484 -3.887,16.144 -3.887,16.144 0,0 -19.133,47.834 -70.521,37.963 0,0 -22.321,-1.389 -65.829,-38.3 0,0 -5.046,-4.01 -1.523,-7.534"
             style="fill:#efe8d3;fill-opacity:1;fill-rule:nonzero;stroke:none"
             id="path82"
             inkscape:connector-curvature="0" /></g><g
           id="g84"
           transform="translate(351.0918,380.583)"><path
             d="m 0,0 c 0,17.563 9.879,32.813 24.381,40.512 7.494,2.857 11.291,3.099 11.291,3.099 7.873,1.512 14.984,1.665 21.391,0.849 19.898,-5.004 34.63,-23.009 34.63,-44.46 0,-22.029 -15.539,-40.423 -36.252,-44.835 -11.888,-0.654 -23.498,1.933 -34.228,6.176 C 8.463,-30.517 0,-16.252 0,0"
             style="fill:#070409;fill-opacity:1;fill-rule:nonzero;stroke:none"
             id="path86"
             inkscape:connector-curvature="0" /></g><g
           id="g88"
           transform="translate(491.0244,265.1543)"><path
             d="m 0,0 c -12.875,0 -22.617,9.211 -22.763,9.352 -0.507,0.49 -0.717,1.211 -0.555,1.898 4.408,18.613 7.42,69.148 7.45,69.656 2.885,99.094 -23.683,106.867 -23.951,106.934 -1.058,0.264 -1.728,1.33 -1.484,2.392 0.243,1.064 1.274,1.743 2.343,1.514 1.231,-0.259 30.101,-7.534 27.087,-111.016 -0.123,-2.105 -2.948,-49.511 -7.287,-69.238 3.821,-3.25 20.007,-15.174 36.576,-0.038 -4.41,18.73 -5.307,25.709 -7.286,69.244 -3.015,103.514 25.855,110.789 27.086,111.048 1.076,0.227 2.141,-0.464 2.369,-1.545 0.228,-1.081 -0.464,-2.141 -1.545,-2.369 C 37.807,187.773 11.239,180 14.127,80.848 16.129,36.832 17.008,30.529 21.574,11.25 21.736,10.563 21.525,9.842 21.019,9.352 13.769,2.338 6.487,0 0,0"
             style="fill:#361100;fill-opacity:1;fill-rule:nonzero;stroke:none"
             id="path90"
             inkscape:connector-curvature="0" /></g></g></g><g
       id="g92"><g
         id="g94"
         clip-path="url(#clipPath96)"><g
           id="g100"><g
             id="g102"><path
               d="m 308.195,338.644 c -5.229,-7.228 -3.61,-17.328 3.619,-22.557 l 0,0 c 7.228,-5.231 17.327,-3.61 22.557,3.618 l 0,0 c 9.018,12.465 5.904,37.032 5.904,37.032 l 0,0 c 0,0 -24.752,-7.966 -32.08,-18.093"
               style="fill:url(#linearGradient104);stroke:none"
               id="path110"
               inkscape:connector-curvature="0" /></g></g></g></g><g
       id="g112"><g
         id="g114"
         clip-path="url(#clipPath116)"><g
           id="g120"><g
             id="g122"><path
               d="m 308.195,338.644 c -5.229,-7.228 -3.61,-17.328 3.619,-22.557 l 0,0 c 7.228,-5.231 17.327,-3.61 22.557,3.618 l 0,0 c 9.018,12.465 5.904,37.032 5.904,37.032 l 0,0 c 0,0 -24.752,-7.966 -32.08,-18.093"
               style="fill:url(#linearGradient124);stroke:none"
               id="path130"
               inkscape:connector-curvature="0" /></g></g></g></g><g
       id="g132"><g
         id="g134"
         clip-path="url(#clipPath136)"><g
           id="g140"><g
             id="g142" /><g
             id="g158"><g
               clip-path="url(#clipPath144)"
               id="g160"
               style="opacity:0.19999701"><g
                 id="g162"><g
                   clip-path="url(#clipPath148)"
                   id="g164"><g
                     id="g166"><g
                       id="g168"><path
                         d="m 331.126,326.375 c -3.112,-4.302 -9.124,-5.267 -13.426,-2.153 -4.303,3.113 -5.266,9.124 -2.154,13.426 4.362,6.029 19.095,10.77 19.095,10.77 0,0 1.854,-14.623 -3.515,-22.043"
                         style="fill:url(#linearGradient152);stroke:none"
                         id="path170"
                         inkscape:connector-curvature="0" /></g></g></g></g></g></g></g><g
           id="g172"><g
             id="g174" /><g
             id="g180"><g
               clip-path="url(#clipPath176)"
               id="g182"
               style="opacity:0.10000598"><g
                 transform="translate(326.2393,320.6045)"
                 id="g184"><path
                   d="m 0,0 c -2.989,-4.132 -8.76,-5.056 -12.89,-2.069 -4.131,2.989 -5.056,8.759 -2.068,12.89 2.988,4.13 8.76,5.057 12.89,2.068 C 2.062,9.901 2.988,4.131 0,0"
                   style="fill:#6fd1ff;fill-opacity:1;fill-rule:nonzero;stroke:none"
                   id="path186"
                   inkscape:connector-curvature="0" /></g></g></g></g></g></g><g
       id="g188"><g
         id="g190"
         clip-path="url(#clipPath192)"><g
           id="g196"><g
             id="g198"><path
               d="m 650.424,322.512 c 5.229,-7.227 15.329,-8.848 22.555,-3.618 l 0,0 c 7.229,5.23 8.849,15.33 3.62,22.557 l 0,0 c -7.328,10.127 -32.079,18.093 -32.079,18.093 l 0,0 c 0,0 -3.114,-24.567 5.904,-37.032"
               style="fill:url(#linearGradient200);stroke:none"
               id="path206"
               inkscape:connector-curvature="0" /></g></g></g></g><g
       id="g208"><g
         id="g210"
         clip-path="url(#clipPath212)"><g
           id="g216"><g
             id="g218"><path
               d="m 650.424,322.512 c 5.229,-7.227 15.329,-8.848 22.555,-3.618 l 0,0 c 7.229,5.23 8.849,15.33 3.62,22.557 l 0,0 c -7.328,10.127 -32.079,18.093 -32.079,18.093 l 0,0 c 0,0 -3.114,-24.567 5.904,-37.032"
               style="fill:url(#linearGradient220);stroke:none"
               id="path226"
               inkscape:connector-curvature="0" /></g></g></g></g><g
       id="g228"><g
         id="g230"
         clip-path="url(#clipPath232)"><g
           id="g236"><g
             id="g238" /><g
             id="g254"><g
               clip-path="url(#clipPath240)"
               id="g256"
               style="opacity:0.19999701"><g
                 id="g258"><g
                   clip-path="url(#clipPath244)"
                   id="g260"><g
                     id="g262"><g
                       id="g264"><path
                         d="m 653.668,329.183 c 3.112,-4.302 9.125,-5.267 13.427,-2.154 4.301,3.114 5.266,9.124 2.153,13.427 -4.36,6.028 -19.094,10.77 -19.094,10.77 0,0 -1.855,-14.623 3.514,-22.043"
                         style="fill:url(#linearGradient248);stroke:none"
                         id="path266"
                         inkscape:connector-curvature="0" /></g></g></g></g></g></g></g><g
           id="g268"><g
             id="g270" /><g
             id="g276"><g
               clip-path="url(#clipPath272)"
               id="g278"
               style="opacity:0.10000598"><g
                 transform="translate(658.5557,323.4121)"
                 id="g280"><path
                   d="m 0,0 c 2.988,-4.132 8.76,-5.056 12.89,-2.069 4.131,2.989 5.055,8.759 2.068,12.89 -2.989,4.13 -8.76,5.057 -12.89,2.068 C -2.063,9.901 -2.988,4.131 0,0"
                   style="fill:#6fd1ff;fill-opacity:1;fill-rule:nonzero;stroke:none"
                   id="path282"
                   inkscape:connector-curvature="0" /></g></g></g></g></g></g><g
       id="g284"><g
         id="g286"
         clip-path="url(#clipPath288)"><g
           id="g292"><g
             id="g294"><path
               d="m 386.763,424.194 c 0,0 -22.32,-1.388 -65.828,-38.299 l 0,0 c 0,0 -5.047,-4.011 -1.523,-7.535 l 0,0 c 4.238,-4.238 12.319,-11.912 22.929,-19.599 l 0,0 107.927,-3.097 c 0.491,0.463 0.982,0.915 1.47,1.397 l 0,0 c 0,0 9.193,8.542 9.434,13.026 l 0,0 c 0.24,4.484 -3.887,16.144 -3.887,16.144 l 0,0 c 0,0 -15.725,39.302 -56.938,39.305 l 0,0 c -4.254,0 -8.775,-0.418 -13.584,-1.342"
               style="fill:url(#radialGradient296);stroke:none"
               id="path306"
               inkscape:connector-curvature="0" /></g></g></g></g><g
       id="g308"><g
         id="g310"
         clip-path="url(#clipPath312)"><g
           id="g316"><g
             id="g318"><path
               d="m 522.059,386.231 c 0,0 -4.126,-11.66 -3.886,-16.144 l 0,0 c 0.24,-4.484 9.433,-13.026 9.433,-13.026 l 0,0 c 0.489,-0.482 0.98,-0.934 1.47,-1.397 l 0,0 107.928,3.097 c 10.609,7.687 18.691,15.361 22.928,19.599 l 0,0 c 3.524,3.524 -1.523,7.535 -1.523,7.535 l 0,0 c -43.507,36.911 -65.828,38.299 -65.828,38.299 l 0,0 c -4.809,0.924 -9.329,1.342 -13.584,1.342 l 0,0 c -41.213,-0.003 -56.938,-39.305 -56.938,-39.305"
               style="fill:url(#radialGradient320);stroke:none"
               id="path330"
               inkscape:connector-curvature="0" /></g></g></g></g><g
       id="g332"><g
         id="g334"
         clip-path="url(#clipPath336)"><g
           id="g340"
           transform="translate(509.2812,197.4502)"><path
             d="m 0,0 c -0.142,0.563 -0.493,1.039 -0.992,1.337 -6.268,3.762 -13.121,5.669 -20.366,5.669 -12.163,0 -21.353,-5.438 -21.738,-5.669 -0.499,-0.298 -0.852,-0.774 -0.992,-1.338 -0.141,-0.562 -0.054,-1.146 0.246,-1.644 0.389,-0.652 1.104,-1.057 1.865,-1.057 0.393,0 0.781,0.107 1.114,0.307 0.345,0.205 8.595,4.984 19.583,4.984 6.469,0 12.543,-1.676 18.051,-4.981 0.99,-0.592 2.39,-0.242 2.984,0.746 C 0.054,-1.147 0.141,-0.563 0,0"
             style="fill:#330400;fill-opacity:1;fill-rule:nonzero;stroke:none"
             id="path342"
             inkscape:connector-curvature="0" /></g><g
           id="g344"
           transform="translate(565.9502,246.6611)"><path
             d="m 0,0 c 0.345,0.468 0.486,1.042 0.397,1.616 -1.095,7.228 -3.993,13.724 -8.611,19.308 -7.751,9.372 -17.799,12.988 -18.223,13.137 -0.547,0.194 -1.137,0.164 -1.662,-0.088 -0.523,-0.249 -0.919,-0.69 -1.111,-1.238 -0.254,-0.715 -0.111,-1.524 0.374,-2.11 0.251,-0.303 0.581,-0.533 0.947,-0.663 0.377,-0.136 9.319,-3.447 16.322,-11.914 4.123,-4.985 6.703,-10.734 7.666,-17.084 0.173,-1.141 1.337,-1.996 2.476,-1.824 C -0.85,-0.773 -0.345,-0.468 0,0"
             style="fill:#330400;fill-opacity:1;fill-rule:nonzero;stroke:none"
             id="path346"
             inkscape:connector-curvature="0" /></g></g></g><g
       id="g348"><g
         id="g350"
         clip-path="url(#clipPath352)"><g
           id="g356"><g
             id="g358"><path
               d="m 486.756,208.645 c 63.628,-1.214 69.214,59.986 69.214,59.986 l 0,0 c -78.2,-35.943 -133.816,2.671 -133.816,2.671 l 0,0 c 6.8,-61.687 64.602,-62.657 64.602,-62.657"
               style="fill:url(#linearGradient360);stroke:none"
               id="path366"
               inkscape:connector-curvature="0" /></g></g></g></g><g
       id="g368"><g
         id="g370"
         clip-path="url(#clipPath372)"><g
           id="g376"><g
             id="g378"><path
               d="m 425.798,263.775 c 3.156,-12.873 6.8,-19.672 6.8,-19.672 l 0,0 c 54.4,-21.857 110.987,-1.944 110.987,-1.944 l 0,0 c 3.4,2.187 8.986,21.616 8.986,21.616 l 0,0 c -71.643,-29.387 -126.773,0 -126.773,0"
               style="fill:url(#radialGradient380);stroke:none"
               id="path388"
               inkscape:connector-curvature="0" /></g></g></g></g><g
       id="g390"><g
         id="g392"
         clip-path="url(#clipPath394)"><g
           id="g398"
           transform="translate(411.4561,247.748)"><path
             d="m 0,0 c -0.345,0.469 -0.486,1.042 -0.398,1.616 1.096,7.228 3.994,13.724 8.611,19.309 7.751,9.371 17.8,12.987 18.223,13.137 0.548,0.194 1.138,0.163 1.663,-0.089 0.524,-0.249 0.919,-0.689 1.11,-1.237 0.254,-0.715 0.112,-1.525 -0.373,-2.111 C 28.585,30.322 28.255,30.092 27.889,29.963 27.512,29.826 18.57,26.515 11.567,18.048 7.444,13.063 4.864,7.315 3.901,0.965 3.727,-0.176 2.564,-1.031 1.425,-0.859 0.85,-0.772 0.344,-0.468 0,0"
             style="fill:#330400;fill-opacity:1;fill-rule:nonzero;stroke:none"
             id="path400"
             inkscape:connector-curvature="0" /></g></g></g></g></svg>