<?xml version="1.0" encoding="UTF-8" standalone="no"?>
<!-- Created with Inkscape (http://www.inkscape.org/) -->

<svg
   xmlns:dc="http://purl.org/dc/elements/1.1/"
   xmlns:cc="http://creativecommons.org/ns#"
   xmlns:rdf="http://www.w3.org/1999/02/22-rdf-syntax-ns#"
   xmlns:svg="http://www.w3.org/2000/svg"
   xmlns="http://www.w3.org/2000/svg"
   xmlns:sodipodi="http://sodipodi.sourceforge.net/DTD/sodipodi-0.dtd"
   xmlns:inkscape="http://www.inkscape.org/namespaces/inkscape"
   id="svg2"
   version="1.1"
   inkscape:version="0.91 r13725"
   xml:space="preserve"
   width="1250"
   height="1000"
   viewBox="0 0 1250 1000"
   sodipodi:docname="Laugh.ai.svg"
   inkscape:export-filename="/Users/antenehs/Pictures/Emojis/Final V1/Laugh.png"
   inkscape:export-xdpi="90"
   inkscape:export-ydpi="90"><metadata
     id="metadata8"><rdf:RDF><cc:Work
         rdf:about=""><dc:format>image/svg+xml</dc:format><dc:type
           rdf:resource="http://purl.org/dc/dcmitype/StillImage" /><dc:title></dc:title></cc:Work></rdf:RDF></metadata><defs
     id="defs6"><clipPath
       clipPathUnits="userSpaceOnUse"
       id="clipPath16"><path
         d="M 0,800 1000,800 1000,0 0,0 0,800 Z"
         id="path18"
         inkscape:connector-curvature="0" /></clipPath><clipPath
       clipPathUnits="userSpaceOnUse"
       id="clipPath28"><path
         d="m 487.732,583.608 c -152.334,0 -187,-105.001 -186,-216 l 0,0 c 1.075,-119.29 66.705,-216 186,-216 l 0,0 2.798,0 c 119.292,0 184.924,96.71 185.998,216 l 0,0 c 1,110.999 -33.664,216 -185.998,216 l 0,0 -2.798,0 z"
         id="path30"
         inkscape:connector-curvature="0" /></clipPath><radialGradient
       fx="0"
       fy="0"
       cx="0"
       cy="0"
       r="1"
       gradientUnits="userSpaceOnUse"
       gradientTransform="matrix(213.45012,0,0,-237.47604,489.12988,367.60742)"
       spreadMethod="pad"
       id="radialGradient36"><stop
         style="stop-opacity:1;stop-color:#f77b28"
         offset="0"
         id="stop38" /><stop
         style="stop-opacity:1;stop-color:#f77b28"
         offset="0.422276"
         id="stop40" /><stop
         style="stop-opacity:1;stop-color:#f77b28"
         offset="0.72507138"
         id="stop42" /><stop
         style="stop-opacity:1;stop-color:#630c05"
         offset="1"
         id="stop44" /></radialGradient><clipPath
       clipPathUnits="userSpaceOnUse"
       id="clipPath52"><path
         d="M 0,800 1000,800 1000,0 0,0 0,800 Z"
         id="path54"
         inkscape:connector-curvature="0" /></clipPath></defs><sodipodi:namedview
     pagecolor="#ffffff"
     bordercolor="#666666"
     borderopacity="1"
     objecttolerance="10"
     gridtolerance="10"
     guidetolerance="10"
     inkscape:pageopacity="0"
     inkscape:pageshadow="2"
     inkscape:window-width="1280"
     inkscape:window-height="752"
     id="namedview4"
     showgrid="false"
     inkscape:zoom="0.38890873"
     inkscape:cx="1087.3893"
     inkscape:cy="614.41221"
     inkscape:window-x="0"
     inkscape:window-y="0"
     inkscape:window-maximized="1"
     inkscape:current-layer="g10" /><g
     id="g10"
     inkscape:groupmode="layer"
     inkscape:label="Order__FO18D48823B8Laugh"
     transform="matrix(1.25,0,0,-1.25,0,1000)"><g
       id="g12"><g
         id="g14"
         clip-path="url(#clipPath16)"><g
           id="g20"
           transform="translate(490.1309,692.6074)"><path
             d="m 0,0 0.398,0 c 179.494,0 294.999,-138 284.999,-325 0,0 -12,-156.333 -151.999,-157.667 0,0 -52.666,-57.334 -132,-55 l -4.796,0 c -79.334,-2.334 -132,55 -132,55 -140,1.334 -152,157.667 -152,157.667 -10,187 105.505,325 285,325 L -2,0 0,0 Z"
             style="fill:#0a0205;fill-opacity:1;fill-rule:nonzero;stroke:none"
             id="path22"
             inkscape:connector-curvature="0" /></g></g></g><g
       id="g24"><g
         id="g26"
         clip-path="url(#clipPath28)"><g
           id="g32"><g
             id="g34"><path
               d="m 487.732,583.608 c -152.334,0 -187,-105.001 -186,-216 l 0,0 c 1.075,-119.29 66.705,-216 186,-216 l 0,0 2.798,0 c 119.292,0 184.924,96.71 185.998,216 l 0,0 c 1,110.999 -33.664,216 -185.998,216 l 0,0 -2.798,0 z"
               style="fill:url(#radialGradient36);stroke:none"
               id="path46"
               inkscape:connector-curvature="0" /></g></g></g></g><g
       id="g48"><g
         id="g50"
         clip-path="url(#clipPath52)"><g
           id="g56"
           transform="translate(520.8633,450.6074)"><path
             d="M 0,0 C 0,0 40.666,47.333 94.666,26.667 94.666,26.667 126,13.334 142,-16 157.999,-45.334 94,44.667 0,0"
             style="fill:#330400;fill-opacity:1;fill-rule:nonzero;stroke:none"
             id="path58"
             inkscape:connector-curvature="0" /></g><g
           id="g60"
           transform="translate(669.1807,377.6162)"><path
             d="m 0,0 c -17.874,-17.868 -89.804,-82.937 -149.88,-23.752 0,0 -10.443,9.704 -10.717,14.798 -0.271,5.093 4.416,18.338 4.416,18.338 0,0 21.735,54.337 80.11,43.125 0,0 25.625,-1.595 75.565,-44.18 0,0 4.965,-3.87 0.506,-8.329"
             style="fill:#0a0205;fill-opacity:1;fill-rule:nonzero;stroke:none"
             id="path62"
             inkscape:connector-curvature="0" /></g><g
           id="g64"
           transform="translate(660.1992,378.3604)"><path
             d="m 0,0 c -15.1,-15.104 -78.996,-73.838 -132.324,-21.3 0,0 -9.194,8.543 -9.436,13.027 -0.238,4.484 3.887,16.144 3.887,16.144 0,0 19.133,47.834 70.521,37.963 0,0 22.323,-1.389 65.829,-38.3 0,0 5.046,-4.01 1.523,-7.534"
             style="fill:#efe8d3;fill-opacity:1;fill-rule:nonzero;stroke:none"
             id="path66"
             inkscape:connector-curvature="0" /></g><g
           id="g68"
           transform="translate(628.5215,380.583)"><path
             d="m 0,0 c 0,17.563 -9.881,32.813 -24.381,40.512 -7.494,2.857 -11.293,3.099 -11.293,3.099 -7.871,1.512 -14.982,1.665 -21.389,0.849 C -76.961,39.456 -91.695,21.451 -91.695,0 c 0,-22.029 15.539,-40.423 36.254,-44.835 11.886,-0.654 23.498,1.933 34.228,6.176 C -8.463,-30.517 0,-16.252 0,0"
             style="fill:#070409;fill-opacity:1;fill-rule:nonzero;stroke:none"
             id="path70"
             inkscape:connector-curvature="0" /></g><g
           id="g72"
           transform="translate(458.75,450.6074)"><path
             d="M 0,0 C 0,0 -40.666,47.333 -94.666,26.667 -94.666,26.667 -126,13.334 -142,-16 -158,-45.334 -94,44.667 0,0"
             style="fill:#330400;fill-opacity:1;fill-rule:nonzero;stroke:none"
             id="path74"
             inkscape:connector-curvature="0" /></g><g
           id="g76"
           transform="translate(310.4316,377.6162)"><path
             d="m 0,0 c 17.873,-17.868 89.805,-82.937 149.881,-23.752 0,0 10.443,9.704 10.715,14.798 0.273,5.093 -4.414,18.338 -4.414,18.338 0,0 -21.735,54.337 -80.11,43.125 0,0 -25.627,-1.595 -75.566,-44.18 0,0 -4.965,-3.87 -0.506,-8.329"
             style="fill:#0a0205;fill-opacity:1;fill-rule:nonzero;stroke:none"
             id="path78"
             inkscape:connector-curvature="0" /></g><g
           id="g80"
           transform="translate(319.4121,378.3604)"><path
             d="m 0,0 c 15.102,-15.104 78.996,-73.838 132.326,-21.3 0,0 9.194,8.543 9.434,13.027 0.24,4.484 -3.887,16.144 -3.887,16.144 0,0 -19.133,47.834 -70.521,37.963 0,0 -22.321,-1.389 -65.829,-38.3 0,0 -5.046,-4.01 -1.523,-7.534"
             style="fill:#efe8d3;fill-opacity:1;fill-rule:nonzero;stroke:none"
             id="path82"
             inkscape:connector-curvature="0" /></g><g
           id="g84"
           transform="translate(351.0918,380.583)"><path
             d="m 0,0 c 0,17.563 9.879,32.813 24.381,40.512 7.494,2.857 11.291,3.099 11.291,3.099 7.873,1.512 14.984,1.665 21.391,0.849 19.898,-5.004 34.63,-23.009 34.63,-44.46 0,-22.029 -15.539,-40.423 -36.252,-44.835 -11.888,-0.654 -23.498,1.933 -34.228,6.176 C 8.463,-30.517 0,-16.252 0,0"
             style="fill:#070409;fill-opacity:1;fill-rule:nonzero;stroke:none"
             id="path86"
             inkscape:connector-curvature="0" /></g><g
           id="g88"
           transform="translate(491.0244,265.1543)"><path
             d="m 0,0 c -12.875,0 -22.617,9.211 -22.763,9.352 -0.507,0.49 -0.717,1.211 -0.555,1.898 4.408,18.613 7.42,69.148 7.45,69.656 2.885,99.094 -23.683,106.867 -23.951,106.934 -1.058,0.264 -1.728,1.33 -1.484,2.392 0.243,1.064 1.274,1.743 2.343,1.514 1.231,-0.259 30.101,-7.534 27.087,-111.016 -0.123,-2.105 -2.948,-49.511 -7.287,-69.238 3.821,-3.25 20.007,-15.174 36.576,-0.038 -4.41,18.73 -5.307,25.709 -7.286,69.244 -3.015,103.514 25.855,110.789 27.086,111.048 1.076,0.227 2.141,-0.464 2.369,-1.545 0.228,-1.081 -0.464,-2.141 -1.545,-2.369 C 37.807,187.773 11.239,180 14.127,80.848 16.129,36.832 17.008,30.529 21.574,11.25 21.736,10.563 21.525,9.842 21.019,9.352 13.769,2.338 6.487,0 0,0"
             style="fill:#361100;fill-opacity:1;fill-rule:nonzero;stroke:none"
             id="path90"
             inkscape:connector-curvature="0" /></g><g
           id="g92"
           transform="translate(507.6289,200.7334)" /><g
           id="g96"
           transform="translate(595.248,245.4932)" /><g
           id="g100"
           transform="translate(388.6582,245.4932)" /><g
           id="g104"
           transform="translate(428.1309,254.1543)" /><g
           id="g108"
           transform="translate(438.8154,236.0508)" /><g
           id="g112"
           transform="translate(456.3296,250.9004)" /><g
           id="g116"
           transform="translate(491.416,258.3672)" /></g></g><g
       id="g4302"
       transform="matrix(0.93330659,0.03014698,-0.02993481,0.93992171,40.030095,-1.8391493)"><path
         inkscape:connector-curvature="0"
         id="path4265"
         d="m 413.25927,245.81761 c 4.35834,-36.4081 37.29349,-63.95494 76.51875,-64 39.24675,0.0183 72.21425,27.57198 76.575,64 -39.9592,-8.30404 -89.87295,-9.14216 -153.09375,0 z"
         style="fill:#1a1a1a;fill-opacity:1;stroke:#000000;stroke-width:2.11999989;stroke-miterlimit:4;stroke-dasharray:none;stroke-opacity:1"
         sodipodi:nodetypes="cccc" /><path
         sodipodi:nodetypes="cccccsssc"
         inkscape:connector-curvature="0"
         id="path4285"
         d="m 416.82387,244.27346 0.11009,-3.27691 c 0.0607,-1.80278 1.23789,-6.55541 2.61473,-10.56157 l 1.61931,-4.71037 c 46.20138,-7.37038 92.40277,-7.73601 138.60415,0 0.70567,1.8962 1.46782,4.13652 2.24929,6.68371 1.56224,5.09212 2.84105,9.84474 2.84105,10.56157 0,0.74989 -46.21116,-4.84725 -87.83826,-2.33279 z"
         style="fill:#ffffff;fill-opacity:1;stroke:#1a1a1a;stroke-width:3.6575017;stroke-miterlimit:4;stroke-dasharray:none;stroke-opacity:1" /></g></g><g
     inkscape:groupmode="layer"
     id="layer1"
     inkscape:label="mouth"
     style="display:none"><path
       transform="matrix(1.25,0,0,-1.25,634.53612,749.08325)"
       d="m 0,0 c -0.13,0.519 -0.453,0.955 -0.912,1.229 -5.765,3.46 -12.067,5.214 -18.732,5.214 -11.185,0 -19.638,-5.001 -19.992,-5.214 -0.459,-0.274 -0.783,-0.71 -0.912,-1.23 -0.13,-0.518 -0.05,-1.055 0.226,-1.512 0.358,-0.599 1.015,-0.972 1.716,-0.972 0.361,0 0.717,0.098 1.024,0.283 0.317,0.187 7.905,4.583 18.011,4.583 5.95,0 11.536,-1.541 16.601,-4.581 0.91,-0.545 2.199,-0.223 2.744,0.685 C 0.05,-1.056 0.13,-0.519 0,0"
       style="fill:#330400;fill-opacity:1;fill-rule:nonzero;stroke:none"
       id="path94"
       inkscape:connector-curvature="0" /><path
       transform="matrix(1.25,0,0,-1.25,744.06,693.1335)"
       d="m 0,0 c 0.317,0.431 0.447,0.958 0.366,1.486 -1.008,6.648 -3.673,12.622 -7.92,17.758 -7.129,8.619 -16.37,11.945 -16.759,12.082 -0.504,0.179 -1.047,0.151 -1.53,-0.081 -0.481,-0.229 -0.844,-0.634 -1.021,-1.138 -0.234,-0.658 -0.103,-1.402 0.343,-1.941 0.231,-0.278 0.535,-0.49 0.872,-0.609 0.346,-0.125 8.57,-3.171 15.01,-10.958 3.792,-4.585 6.165,-9.871 7.051,-15.712 0.16,-1.049 1.23,-1.836 2.277,-1.678 0.53,0.08 0.995,0.36 1.311,0.791"
       style="fill:#330400;fill-opacity:1;fill-rule:nonzero;stroke:none"
       id="path98"
       inkscape:connector-curvature="0" /><path
       transform="matrix(1.25,0,0,-1.25,485.82275,693.1335)"
       d="m 0,0 c -0.317,0.431 -0.447,0.958 -0.366,1.486 1.008,6.648 3.673,12.622 7.92,17.758 7.129,8.619 16.37,11.945 16.759,12.082 0.504,0.179 1.047,0.151 1.53,-0.081 0.481,-0.229 0.844,-0.634 1.021,-1.138 0.234,-0.658 0.103,-1.402 -0.343,-1.941 C 26.29,27.888 25.986,27.676 25.649,27.557 25.303,27.432 17.079,24.386 10.639,16.599 6.847,12.014 4.474,6.728 3.588,0.887 3.428,-0.162 2.358,-0.949 1.311,-0.791 0.781,-0.711 0.316,-0.431 0,0"
       style="fill:#330400;fill-opacity:1;fill-rule:nonzero;stroke:none"
       id="path102"
       inkscape:connector-curvature="0" /><path
       transform="matrix(1.25,0,0,-1.25,570.412,686.3745)"
       d="m 0,0 c -5.202,0.792 -10.602,1.194 -16.052,1.194 -4.251,0 -7.96,-0.244 -10.905,-0.54 3.078,-3.286 6.803,-7.87 9.443,-13.092 3.825,-7.566 12.003,-15.298 43.624,-15.298 0.599,0 1.211,0.002 1.828,0.006 l 12.277,0 c 0.66,-0.004 1.269,-0.006 1.871,-0.006 31.621,0.001 39.796,7.732 43.624,15.298 2.681,5.303 6.48,9.948 9.581,13.242 -4.312,0.621 -9.938,1.241 -15.158,1.241 -1.864,0 -3.572,-0.079 -5.079,-0.237 -5.035,-0.53 -12.777,-2.322 -20.268,-4.053 -9.074,-2.1 -17.642,-4.08 -22.401,-4.08 m 9.701,-28.863 c -0.632,0 -1.265,0.002 -1.914,0.008 l -12.191,0 c -0.603,-0.006 -1.242,-0.008 -1.871,-0.008 -28.927,0 -44.246,5.886 -51.228,19.685 -4.468,8.841 -12.928,15.903 -13.013,15.975 l -5.667,4.69 7.497,1.66 c 0.336,0.074 8.382,1.822 20.249,1.822 5.985,0 11.924,-0.449 17.649,-1.33 L 1.956,7.244 C 8.439,5.709 26.458,1.629 31.888,1.143 c 0.149,-0.014 0.315,-0.02 0.497,-0.02 3.697,0 12.142,1.955 20.31,3.843 7.759,1.796 15.787,3.652 21.385,4.239 1.83,0.192 3.866,0.29 6.053,0.29 11.321,0 25.742,-2.552 26.27,-2.659 l 7.679,-1.589 -5.791,-4.778 C 108.208,0.4 99.744,-6.662 95.277,-15.501 88.298,-29.301 71.012,-35.188 42.086,-35.188"
       style="fill:#82301d;fill-opacity:1;fill-rule:nonzero;stroke:none"
       id="path114"
       inkscape:connector-curvature="0" /><path
       transform="matrix(1.25,0,0,-1.25,614.27,677.041)"
       d="m 0,0 c 5.593,0.141 5.973,0.656 9.592,1.437 3.977,0.855 8.671,1.198 13.136,1.242 16.855,0.158 33.567,-3.516 50.908,-2.56 0,0 2.097,0.281 5.125,1.126 3.032,0.847 8.16,-1.69 2.797,-3.474 -5.357,-1.787 -18.511,-1.67 -29.464,-1.67 -10.955,0 -27.038,-0.565 -34.264,-2.35 C 10.606,-8.033 0.817,-8.033 0.817,-8.033 l -3.608,0 c 0,0 -9.788,0 -17.014,1.784 -7.224,1.785 -23.31,2.35 -34.262,2.35 -10.956,0 -22.143,-0.117 -27.505,1.67 -5.357,1.784 -0.231,4.321 2.796,3.474 3.033,-0.845 5.132,-1.126 5.132,-1.126 17.336,-0.956 32.088,2.718 48.944,2.56 4.464,-0.044 9.156,-0.387 13.134,-1.242 C -7.947,0.656 -7.567,0.141 -1.974,0 L 0,0 Z"
       style="fill:#82301d;fill-opacity:1;fill-rule:nonzero;stroke:none"
       id="path118"
       inkscape:connector-curvature="0" /><path
       transform="matrix(1.25,0,0,-1.25,535.16363,682.30713)"
       d="m 0,0 c 0,0 5.895,-29.134 18.994,-32.048 13.099,-2.913 77.94,-0.728 77.94,-0.728 12.444,0 20.959,15.296 20.959,15.296 L 127.419,1.163 0,0 Z"
       style="fill:#efe8d3;fill-opacity:1;fill-rule:nonzero;stroke:none"
       id="path106"
       inkscape:connector-curvature="0" /><path
       transform="matrix(1.25,0,0,-1.25,548.51925,704.9365)"
       d="m 0,0 c 0,0 39.42,-19.172 104.016,-1.488 0,0 -1.72,-5.65 -9.088,-8.597 -7.368,-2.947 -47.157,-5.894 -47.157,-5.894 l -4.175,0 C 43.596,-15.979 4.543,-17.915 0,0"
       style="fill:#330400;fill-opacity:1;fill-rule:nonzero;stroke:none"
       id="path110"
       inkscape:connector-curvature="0" /></g></svg>