<?xml version="1.0" encoding="UTF-8" standalone="no"?>
<!-- Created with Inkscape (http://www.inkscape.org/) -->

<svg
   xmlns:dc="http://purl.org/dc/elements/1.1/"
   xmlns:cc="http://creativecommons.org/ns#"
   xmlns:rdf="http://www.w3.org/1999/02/22-rdf-syntax-ns#"
   xmlns:svg="http://www.w3.org/2000/svg"
   xmlns="http://www.w3.org/2000/svg"
   xmlns:sodipodi="http://sodipodi.sourceforge.net/DTD/sodipodi-0.dtd"
   xmlns:inkscape="http://www.inkscape.org/namespaces/inkscape"
   id="svg2"
   version="1.1"
   inkscape:version="0.91 r13725"
   xml:space="preserve"
   width="1250"
   height="1000"
   viewBox="0 0 1250 1000"
   sodipodi:docname="Order__FO18D48823B8wink.ai.svg"
   inkscape:export-filename="/Users/antenehs/Pictures/Emojis/Final V1/wink.png"
   inkscape:export-xdpi="90"
   inkscape:export-ydpi="90"><metadata
     id="metadata8"><rdf:RDF><cc:Work
         rdf:about=""><dc:format>image/svg+xml</dc:format><dc:type
           rdf:resource="http://purl.org/dc/dcmitype/StillImage" /><dc:title></dc:title></cc:Work></rdf:RDF></metadata><defs
     id="defs6"><clipPath
       clipPathUnits="userSpaceOnUse"
       id="clipPath16"><path
         d="M 0,800 1000,800 1000,0 0,0 0,800 Z"
         id="path18"
         inkscape:connector-curvature="0" /></clipPath><clipPath
       clipPathUnits="userSpaceOnUse"
       id="clipPath28"><path
         d="m 487.732,583.608 c -152.334,0 -187,-105.001 -186,-216 l 0,0 c 1.075,-119.29 66.705,-216 186,-216 l 0,0 2.798,0 c 119.292,0 184.924,96.71 185.998,216 l 0,0 c 1,110.999 -33.664,216 -185.998,216 l 0,0 -2.798,0 z"
         id="path30"
         inkscape:connector-curvature="0" /></clipPath><radialGradient
       fx="0"
       fy="0"
       cx="0"
       cy="0"
       r="1"
       gradientUnits="userSpaceOnUse"
       gradientTransform="matrix(213.45012,0,0,-237.47604,489.12988,367.60742)"
       spreadMethod="pad"
       id="radialGradient36"><stop
         style="stop-opacity:1;stop-color:#f77b28"
         offset="0"
         id="stop38" /><stop
         style="stop-opacity:1;stop-color:#f77b28"
         offset="0.422276"
         id="stop40" /><stop
         style="stop-opacity:1;stop-color:#f77b28"
         offset="0.72507138"
         id="stop42" /><stop
         style="stop-opacity:1;stop-color:#630c05"
         offset="1"
         id="stop44" /></radialGradient><clipPath
       clipPathUnits="userSpaceOnUse"
       id="clipPath52"><path
         d="M 0,800 1000,800 1000,0 0,0 0,800 Z"
         id="path54"
         inkscape:connector-curvature="0" /></clipPath></defs><sodipodi:namedview
     pagecolor="#ffffff"
     bordercolor="#666666"
     borderopacity="1"
     objecttolerance="10"
     gridtolerance="10"
     guidetolerance="10"
     inkscape:pageopacity="0"
     inkscape:pageshadow="2"
     inkscape:window-width="1280"
     inkscape:window-height="752"
     id="namedview4"
     showgrid="false"
     inkscape:zoom="0.55"
     inkscape:cx="763.40996"
     inkscape:cy="453.68272"
     inkscape:window-x="0"
     inkscape:window-y="0"
     inkscape:window-maximized="1"
     inkscape:current-layer="g10" /><g
     id="g10"
     inkscape:groupmode="layer"
     inkscape:label="Order__FO18D48823B8wink"
     transform="matrix(1.25,0,0,-1.25,0,1000)"><g
       id="g12"><g
         id="g14"
         clip-path="url(#clipPath16)"><g
           id="g20"
           transform="translate(490.1309,692.6074)"><path
             d="m 0,0 0.398,0 c 179.494,0 294.999,-138 284.999,-325 0,0 -12,-156.333 -151.999,-157.667 0,0 -52.666,-57.334 -132,-55 l -4.796,0 c -79.334,-2.334 -132,55 -132,55 -140,1.334 -152,157.667 -152,157.667 -10,187 105.505,325 285,325 L -2,0 0,0 Z"
             style="fill:#0a0205;fill-opacity:1;fill-rule:nonzero;stroke:none"
             id="path22"
             inkscape:connector-curvature="0" /></g></g></g><g
       id="g24"><g
         id="g26"
         clip-path="url(#clipPath28)"><g
           id="g32"><g
             id="g34"><path
               d="m 487.732,583.608 c -152.334,0 -187,-105.001 -186,-216 l 0,0 c 1.075,-119.29 66.705,-216 186,-216 l 0,0 2.798,0 c 119.292,0 184.924,96.71 185.998,216 l 0,0 c 1,110.999 -33.664,216 -185.998,216 l 0,0 -2.798,0 z"
               style="fill:url(#radialGradient36);stroke:none"
               id="path46"
               inkscape:connector-curvature="0" /></g></g></g></g><g
       id="g48"><g
         id="g50"
         clip-path="url(#clipPath52)"><g
           id="g56"
           transform="translate(520.8633,450.6074)"><path
             d="M 0,0 C 0,0 40.666,47.333 94.666,26.667 94.666,26.667 126,13.334 142,-16 157.999,-45.334 94,44.667 0,0"
             style="fill:#330400;fill-opacity:1;fill-rule:nonzero;stroke:none"
             id="path58"
             inkscape:connector-curvature="0" /></g><g
           id="g60"
           transform="translate(458.75,450.6074)"><path
             d="M 0,0 C 0,0 -40.666,47.333 -94.666,26.667 -94.666,26.667 -126,13.334 -142,-16 -158,-45.334 -94,44.667 0,0"
             style="fill:#330400;fill-opacity:1;fill-rule:nonzero;stroke:none"
             id="path62"
             inkscape:connector-curvature="0" /></g><g
           id="g64"
           transform="translate(310.4316,377.6162)"><path
             d="m 0,0 c 17.873,-17.868 89.805,-82.937 149.881,-23.752 0,0 10.443,9.704 10.715,14.798 0.273,5.093 -4.414,18.338 -4.414,18.338 0,0 -21.735,54.337 -80.11,43.125 0,0 -25.627,-1.595 -75.566,-44.18 0,0 -4.965,-3.87 -0.506,-8.329"
             style="fill:#0a0205;fill-opacity:1;fill-rule:nonzero;stroke:none"
             id="path66"
             inkscape:connector-curvature="0" /></g><g
           id="g68"
           transform="translate(319.4121,378.3604)"><path
             d="m 0,0 c 15.102,-15.104 78.996,-73.838 132.326,-21.3 0,0 9.194,8.543 9.434,13.027 0.24,4.484 -3.887,16.144 -3.887,16.144 0,0 -19.133,47.834 -70.521,37.963 0,0 -22.321,-1.389 -65.829,-38.3 0,0 -5.046,-4.01 -1.523,-7.534"
             style="fill:#efe8d3;fill-opacity:1;fill-rule:nonzero;stroke:none"
             id="path70"
             inkscape:connector-curvature="0" /></g><g
           id="g72"
           transform="translate(351.0918,380.583)"><path
             d="m 0,0 c 0,17.563 9.879,32.813 24.381,40.512 7.494,2.857 11.291,3.099 11.291,3.099 7.873,1.512 14.984,1.665 21.391,0.849 19.898,-5.004 34.63,-23.009 34.63,-44.46 0,-22.029 -15.539,-40.423 -36.252,-44.835 -11.888,-0.654 -23.498,1.933 -34.228,6.176 C 8.463,-30.517 0,-16.252 0,0"
             style="fill:#070409;fill-opacity:1;fill-rule:nonzero;stroke:none"
             id="path74"
             inkscape:connector-curvature="0" /></g><g
           id="g76"
           transform="translate(496.6367,221.4043)" /><g
           id="g80"
           transform="translate(561.0488,246.668)" /><g
           id="g84"
           transform="translate(572.5439,252.6191)" /><g
           id="g88"
           transform="translate(491.416,253.5518)" /><g
           id="g92"
           transform="translate(491.0244,265.1543)"><path
             d="m 0,0 c -12.875,0 -22.617,9.211 -22.763,9.352 -0.507,0.49 -0.717,1.211 -0.555,1.898 4.408,18.613 7.42,69.148 7.45,69.656 2.885,99.094 -23.683,106.867 -23.951,106.934 -1.058,0.264 -1.728,1.33 -1.484,2.392 0.243,1.064 1.274,1.743 2.343,1.514 1.231,-0.259 30.101,-7.534 27.087,-111.016 -0.123,-2.105 -2.948,-49.511 -7.287,-69.238 3.821,-3.25 20.007,-15.174 36.576,-0.038 -4.41,18.73 -5.307,25.709 -7.286,69.244 -3.015,103.514 25.855,110.789 27.086,111.048 1.076,0.227 2.141,-0.464 2.369,-1.545 0.228,-1.081 -0.464,-2.141 -1.545,-2.369 C 37.807,187.773 11.239,180 14.127,80.848 16.129,36.832 17.008,30.529 21.574,11.25 21.736,10.563 21.525,9.842 21.019,9.352 13.769,2.338 6.487,0 0,0"
             style="fill:#361100;fill-opacity:1;fill-rule:nonzero;stroke:none"
             id="path94"
             inkscape:connector-curvature="0" /></g><g
           id="g96"
           transform="translate(507.6289,200.7334)" /><g
           id="g100"
           transform="translate(595.248,245.4932)" /><g
           id="g104"
           transform="translate(388.6582,245.4932)" /><g
           id="g108"
           transform="translate(516.667,369)"><path
             d="M 0,0 C 0,0 59,-80.665 139.333,7.001 139.333,7.001 73,-51.666 0,0"
             style="fill:#0a0205;fill-opacity:1;fill-rule:nonzero;stroke:none"
             id="path110"
             inkscape:connector-curvature="0" /></g></g></g></g><g
     inkscape:groupmode="layer"
     id="layer1"
     inkscape:label="lips"
     style="display:none"><path
       transform="matrix(1.25,0,0,-1.25,620.79588,723.24463)"
       d="m 0,0 c 0.672,-0.005 1.291,-0.007 1.904,-0.007 32.186,0.001 40.508,6.317 44.405,12.496 2.728,4.329 6.595,8.123 9.751,10.813 -4.389,0.507 -10.116,1.014 -15.428,1.014 -1.898,0 -3.637,-0.065 -5.17,-0.195 C 30.337,23.689 22.456,22.226 14.831,20.812 5.596,19.098 -3.126,17.479 -7.971,17.479 c -0.488,0 -0.942,0.016 -1.351,0.046 -7.073,0.506 -29.185,4.662 -31.612,5.121 -5.295,0.646 -10.792,0.974 -16.339,0.974 -4.328,0 -8.103,-0.198 -11.1,-0.44 3.133,-2.684 6.924,-6.428 9.611,-10.692 3.894,-6.178 12.218,-12.495 44.405,-12.495 0.61,0 1.232,0.002 1.86,0.007 L 0,0 Z m 1.904,-6.091 c -0.643,0 -1.288,0.002 -1.948,0.006 l -12.409,0 c -0.614,-0.004 -1.264,-0.006 -1.904,-0.006 -29.445,0 -45.038,4.807 -52.144,16.075 -4.549,7.22 -13.16,12.989 -13.246,13.047 l -5.768,3.83 7.631,1.355 c 0.342,0.061 8.531,1.488 20.611,1.488 6.092,0 12.136,-0.366 17.964,-1.086 l 0.366,-0.056 c 6.599,-1.253 24.94,-4.587 30.466,-4.984 0.153,-0.011 0.322,-0.015 0.506,-0.015 3.764,0 12.36,1.595 20.673,3.138 7.899,1.466 16.069,2.983 21.768,3.462 1.862,0.156 3.935,0.236 6.162,0.236 11.522,0 26.202,-2.084 26.739,-2.171 L 75.187,26.93 69.292,23.028 C 69.209,22.973 60.593,17.204 56.046,9.986 48.942,-1.283 31.348,-6.091 1.904,-6.091"
       style="fill:#421404;fill-opacity:1;fill-rule:nonzero;stroke:none"
       id="path78"
       inkscape:connector-curvature="0" /><path
       transform="matrix(1.25,0,0,-1.25,701.311,691.665)"
       d="m 0,0 c 0,0 -9.254,-6.12 -14.233,-14.026 -4.984,-7.904 -15.661,-14.535 -50.179,-14.281 l -12.453,0 c -34.519,-0.254 -45.196,6.377 -50.179,14.281 C -132.026,-6.12 -141.276,0 -141.276,0 c 0,0 16.317,2.893 36.835,0.357 0,0 24.055,-4.562 31.129,-5.07 7.077,-0.507 31.839,5.577 43.866,6.591 C -17.419,2.893 0,0 0,0"
       style="fill:#82301d;fill-opacity:1;fill-rule:nonzero;stroke:none"
       id="path82"
       inkscape:connector-curvature="0" /><path
       transform="matrix(1.25,0,0,-1.25,715.67988,684.22613)"
       d="m 0,0 c -2.412,-1.078 -4.171,-1.568 -4.694,-1.703 1.79,0.155 3.07,0.469 3.877,0.946 C -0.538,-0.592 -0.104,-0.296 0,0 m -162.268,0 c 0.105,-0.296 0.539,-0.592 0.815,-0.756 0.807,-0.478 2.09,-0.792 3.886,-0.947 -0.525,0.135 -2.283,0.625 -4.701,1.703 m 26.106,-3.079 c 4.409,0 26.908,-0.227 37.092,-4.699 6.163,-2.706 15.012,-2.781 15.101,-2.781 l 3.665,0 c 0.088,0 8.899,0.055 15.107,2.781 10.187,4.472 32.687,4.699 37.094,4.699 1.376,0 2.742,-0.031 4.09,-0.082 -4.267,0.694 -8.393,1.674 -12.442,2.635 -7.333,1.742 -14.219,3.388 -21.441,3.263 -4.476,-0.076 -8.443,-0.73 -11.466,-1.888 -0.808,-0.309 -1.435,-0.594 -1.999,-0.848 -2.573,-1.16 -4.496,-1.88 -9.501,-2.105 l -0.266,-0.005 -2.275,0.005 c -5.005,0.225 -6.928,0.945 -9.501,2.105 -0.567,0.254 -1.194,0.539 -1.998,0.848 -3.027,1.158 -6.993,1.812 -11.47,1.888 -7.119,0.122 -14.106,-1.52 -21.438,-3.263 -4.051,-0.961 -8.175,-1.941 -12.444,-2.635 1.35,0.051 2.716,0.082 4.092,0.082 m 55.866,-13.564 -3.673,0 c -0.457,0 -11.257,0.041 -19.537,3.677 -5.983,2.627 -20.71,3.803 -32.656,3.803 -3.186,0 -6.461,-0.195 -9.631,-0.384 -3.077,-0.182 -5.981,1.646 -8.745,1.646 -3.805,0 -8.648,0.279 -12.323,2.456 -3.469,2.053 -4.76,5.049 -3.369,7.817 1.23,2.451 4.344,4.162 7.569,4.162 1.352,0 2.654,-0.292 3.767,-0.845 1.838,-0.911 3.253,-1.387 3.859,-1.572 1.21,-0.103 2.451,-1.156 3.701,-1.156 7.008,0 13.732,0.598 20.854,2.287 7.686,1.828 15.67,3.714 24.31,3.572 5.884,-0.101 11.022,-0.978 15.27,-2.606 1.042,-0.4 1.857,-0.767 2.515,-1.064 1.653,-0.745 2.288,-1.03 5.384,-1.175 l 1.737,0 c 3.096,0.145 3.729,0.43 5.384,1.175 0.655,0.297 1.474,0.664 2.515,1.064 4.249,1.628 9.383,2.505 15.267,2.606 8.723,0.156 16.626,-1.746 24.313,-3.572 7.12,-1.689 13.844,-2.287 20.855,-2.287 1.25,0 4.492,1.053 5.703,1.156 0.583,0.179 2.004,0.655 3.852,1.572 1.115,0.553 2.416,0.845 3.766,0.845 3.229,0 6.344,-1.712 7.572,-4.162 1.39,-2.768 0.1,-5.765 -3.371,-7.817 -3.671,-2.177 -8.513,-2.456 -12.321,-2.456 -2.764,0 -7.668,-1.828 -10.745,-1.646 -3.171,0.189 -6.445,0.384 -9.629,0.384 -11.945,0 -26.675,-1.176 -32.66,-3.803 -8.279,-3.636 -19.077,-3.677 -19.533,-3.677"
       style="fill:#421404;fill-opacity:1;fill-rule:nonzero;stroke:none"
       id="path86"
       inkscape:connector-curvature="0" /><path
       transform="matrix(1.25,0,0,-1.25,614.27,683.06025)"
       d="m 0,0 c 5.693,0.255 6.08,1.187 9.764,2.599 4.049,1.55 8.825,2.17 13.37,2.248 17.157,0.288 34.168,-6.36 51.818,-4.631 0,0 2.136,0.511 5.217,2.039 3.086,1.53 8.306,-3.059 2.847,-6.288 -5.453,-3.233 -18.842,-3.022 -29.991,-3.022 -11.151,0 -27.521,-1.021 -34.876,-4.25 -7.353,-3.229 -17.317,-3.229 -17.317,-3.229 l -3.673,0 c 0,0 -9.963,0 -17.318,3.229 -7.354,3.229 -23.727,4.25 -34.875,4.25 -11.152,0 -22.538,-0.211 -27.997,3.022 -5.452,3.229 -0.234,7.818 2.847,6.288 3.087,-1.528 5.224,-2.039 5.224,-2.039 17.646,-1.729 32.661,4.919 49.818,4.631 4.544,-0.078 9.32,-0.698 13.369,-2.248 C -8.089,1.187 -7.703,0.255 -2.009,0 L 0,0 Z"
       style="fill:#82301d;fill-opacity:1;fill-rule:nonzero;stroke:none"
       id="path90"
       inkscape:connector-curvature="0" /><path
       transform="matrix(1.25,0,0,-1.25,634.53612,749.08325)"
       d="m 0,0 c -0.13,0.519 -0.453,0.955 -0.912,1.229 -5.765,3.46 -12.067,5.214 -18.732,5.214 -11.185,0 -19.638,-5.001 -19.992,-5.214 -0.459,-0.274 -0.783,-0.71 -0.912,-1.23 -0.13,-0.518 -0.05,-1.055 0.226,-1.512 0.358,-0.599 1.015,-0.972 1.716,-0.972 0.361,0 0.717,0.098 1.024,0.283 0.317,0.187 7.905,4.583 18.011,4.583 5.95,0 11.536,-1.541 16.601,-4.581 0.91,-0.545 2.199,-0.223 2.744,0.685 C 0.05,-1.056 0.13,-0.519 0,0"
       style="fill:#330400;fill-opacity:1;fill-rule:nonzero;stroke:none"
       id="path98"
       inkscape:connector-curvature="0" /><path
       transform="matrix(1.25,0,0,-1.25,744.06,693.1335)"
       d="m 0,0 c 0.317,0.431 0.447,0.958 0.366,1.486 -1.008,6.648 -3.673,12.622 -7.92,17.758 -7.129,8.619 -16.37,11.945 -16.759,12.082 -0.504,0.179 -1.047,0.151 -1.53,-0.081 -0.481,-0.229 -0.844,-0.634 -1.021,-1.138 -0.234,-0.658 -0.103,-1.402 0.343,-1.941 0.231,-0.278 0.535,-0.49 0.872,-0.609 0.346,-0.125 8.57,-3.171 15.01,-10.958 3.792,-4.585 6.165,-9.871 7.051,-15.712 0.16,-1.049 1.23,-1.836 2.277,-1.678 0.53,0.08 0.995,0.36 1.311,0.791"
       style="fill:#330400;fill-opacity:1;fill-rule:nonzero;stroke:none"
       id="path102"
       inkscape:connector-curvature="0" /><path
       transform="matrix(1.25,0,0,-1.25,485.82275,693.1335)"
       d="m 0,0 c -0.317,0.431 -0.447,0.958 -0.366,1.486 1.008,6.648 3.673,12.622 7.92,17.758 7.129,8.619 16.37,11.945 16.759,12.082 0.504,0.179 1.047,0.151 1.53,-0.081 0.481,-0.229 0.844,-0.634 1.021,-1.138 0.234,-0.658 0.103,-1.402 -0.343,-1.941 C 26.29,27.888 25.986,27.676 25.649,27.557 25.303,27.432 17.079,24.386 10.639,16.599 6.847,12.014 4.474,6.728 3.588,0.887 3.428,-0.162 2.358,-0.949 1.311,-0.791 0.781,-0.711 0.316,-0.431 0,0"
       style="fill:#330400;fill-opacity:1;fill-rule:nonzero;stroke:none"
       id="path106"
       inkscape:connector-curvature="0" /></g><g
     inkscape:groupmode="layer"
     id="layer2"
     inkscape:label="lips simple"><path
       inkscape:connector-curvature="0"
       id="path4267"
       style="fill:#0a0205;fill-opacity:1;fill-rule:nonzero;stroke:none"
       d="m 525.67404,703.21912 c 0,0 68.30001,104.59977 174.38526,0.49566 0,0 -86.6879,68.83423 -174.38526,-0.49566" /></g></svg>