<?xml version="1.0" encoding="UTF-8" standalone="no"?>
<!-- Created with Inkscape (http://www.inkscape.org/) -->

<svg
   xmlns:dc="http://purl.org/dc/elements/1.1/"
   xmlns:cc="http://creativecommons.org/ns#"
   xmlns:rdf="http://www.w3.org/1999/02/22-rdf-syntax-ns#"
   xmlns:svg="http://www.w3.org/2000/svg"
   xmlns="http://www.w3.org/2000/svg"
   xmlns:sodipodi="http://sodipodi.sourceforge.net/DTD/sodipodi-0.dtd"
   xmlns:inkscape="http://www.inkscape.org/namespaces/inkscape"
   id="svg2"
   version="1.1"
   inkscape:version="0.91 r13725"
   xml:space="preserve"
   width="1250"
   height="1250"
   viewBox="0 0 1250 1250"
   sodipodi:docname="sad.ai.svg"
   inkscape:export-filename="/Users/antenehs/Pictures/Emojis/Final V1/sad 3.png"
   inkscape:export-xdpi="90"
   inkscape:export-ydpi="90"><metadata
     id="metadata8"><rdf:RDF><cc:Work
         rdf:about=""><dc:format>image/svg+xml</dc:format><dc:type
           rdf:resource="http://purl.org/dc/dcmitype/StillImage" /><dc:title></dc:title></cc:Work></rdf:RDF></metadata><defs
     id="defs6"><clipPath
       clipPathUnits="userSpaceOnUse"
       id="clipPath16"><path
         d="m 0,1000 1000,0 L 1000,0 0,0 0,1000 Z"
         id="path18"
         inkscape:connector-curvature="0" /></clipPath><clipPath
       clipPathUnits="userSpaceOnUse"
       id="clipPath28"><path
         d="m 513.639,662.962 c -152.334,0 -187,-104.999 -186,-216 l 0,0 c 1.074,-119.288 66.705,-216 186,-216 l 0,0 2.796,0 c 119.293,0 184.925,96.712 186,216 l 0,0 c 1,111.001 -33.666,216 -186,216 l 0,0 -2.796,0 z"
         id="path30"
         inkscape:connector-curvature="0" /></clipPath><radialGradient
       fx="0"
       fy="0"
       cx="0"
       cy="0"
       r="1"
       gradientUnits="userSpaceOnUse"
       gradientTransform="matrix(213.45012,0,0,-237.47604,515.03613,446.96289)"
       spreadMethod="pad"
       id="radialGradient36"><stop
         style="stop-opacity:1;stop-color:#f77b28"
         offset="0"
         id="stop38" /><stop
         style="stop-opacity:1;stop-color:#f77b28"
         offset="0.422272"
         id="stop40" /><stop
         style="stop-opacity:1;stop-color:#f77b28"
         offset="0.72506948"
         id="stop42" /><stop
         style="stop-opacity:1;stop-color:#630c05"
         offset="1"
         id="stop44" /></radialGradient><clipPath
       clipPathUnits="userSpaceOnUse"
       id="clipPath52"><path
         d="m 0,1000 1000,0 L 1000,0 0,0 0,1000 Z"
         id="path54"
         inkscape:connector-curvature="0" /></clipPath><clipPath
       clipPathUnits="userSpaceOnUse"
       id="clipPath124"><path
         d="m 480.44,312.018 22.12,0 0,-13.036 -22.12,0 0,13.036 z"
         id="path126"
         inkscape:connector-curvature="0" /></clipPath></defs><sodipodi:namedview
     pagecolor="#ffffff"
     bordercolor="#666666"
     borderopacity="1"
     objecttolerance="10"
     gridtolerance="10"
     guidetolerance="10"
     inkscape:pageopacity="0"
     inkscape:pageshadow="2"
     inkscape:window-width="1280"
     inkscape:window-height="752"
     id="namedview4"
     showgrid="false"
     inkscape:zoom="0.88"
     inkscape:cx="650.08592"
     inkscape:cy="619.41083"
     inkscape:window-x="0"
     inkscape:window-y="0"
     inkscape:window-maximized="1"
     inkscape:current-layer="g10" /><g
     id="g10"
     inkscape:groupmode="layer"
     inkscape:label="Order__FO18D48823B8__sad"
     transform="matrix(1.25,0,0,-1.25,0,1250)"
     style="display:inline"><g
       id="g12"><g
         id="g14"
         clip-path="url(#clipPath16)"><g
           id="g20"
           transform="translate(516.0371,771.9629)"><path
             d="m 0,0 0.398,0 c 179.494,0 294.999,-138 284.999,-325 0,0 -12,-156.333 -151.999,-157.667 0,0 -52.666,-57.334 -132,-55 l -4.796,0 c -79.334,-2.334 -132,55 -132,55 -140,1.334 -152,157.667 -152,157.667 -10,187 105.505,325 285,325 L -2,0 0,0 Z"
             style="fill:#0a0205;fill-opacity:1;fill-rule:nonzero;stroke:none"
             id="path22"
             inkscape:connector-curvature="0" /></g></g></g><g
       id="g24"><g
         id="g26"
         clip-path="url(#clipPath28)"><g
           id="g32"><g
             id="g34"><path
               d="m 513.639,662.962 c -152.334,0 -187,-104.999 -186,-216 l 0,0 c 1.074,-119.288 66.705,-216 186,-216 l 0,0 2.796,0 c 119.293,0 184.925,96.712 186,216 l 0,0 c 1,111.001 -33.666,216 -186,216 l 0,0 -2.796,0 z"
               style="fill:url(#radialGradient36);stroke:none"
               id="path46"
               inkscape:connector-curvature="0" /></g></g></g></g><g
       id="g48"><g
         id="g50"
         clip-path="url(#clipPath52)"><g
           id="g56"
           transform="translate(513,315)" /><g
           id="g60"
           transform="translate(519.7168,293.6699)" /><g
           id="g64"
           transform="translate(565.2363,318.5859)" /><g
           id="g68"
           transform="translate(516.9307,344.5098)"><path
             d="m 0,0 c -12.875,0 -22.617,9.211 -22.763,9.352 -0.507,0.49 -0.717,1.211 -0.555,1.898 4.408,18.613 7.42,69.148 7.45,69.656 2.885,99.094 -23.683,106.867 -23.951,106.934 -1.058,0.264 -1.728,1.33 -1.484,2.392 0.243,1.064 1.274,1.743 2.343,1.514 1.231,-0.259 30.101,-7.534 27.087,-111.016 -0.123,-2.105 -2.948,-49.511 -7.287,-69.238 3.821,-3.25 20.007,-15.174 36.576,-0.038 -4.41,18.73 -5.307,25.709 -7.286,69.244 -3.015,103.514 25.855,110.789 27.086,111.048 1.076,0.227 2.141,-0.464 2.369,-1.545 0.228,-1.081 -0.464,-2.141 -1.545,-2.369 C 37.807,187.773 11.239,180 14.127,80.848 16.129,36.832 17.008,30.529 21.574,11.25 21.736,10.563 21.525,9.842 21.019,9.352 13.769,2.338 6.487,0 0,0"
             style="fill:#361100;fill-opacity:1;fill-rule:nonzero;stroke:none"
             id="path70"
             inkscape:connector-curvature="0" /></g><g
           id="g72"
           transform="translate(533.5352,279.0889)" /><g
           id="g76"
           transform="translate(491.0313,521.7817)"><path
             d="m 0,0 c 0,0 -34.656,51.895 -90.755,37.897 0,0 -32.715,-9.454 -52.138,-36.642 C -162.316,-25.934 -87.922,55.685 0,0"
             style="fill:#330400;fill-opacity:1;fill-rule:nonzero;stroke:none"
             id="path78"
             inkscape:connector-curvature="0" /></g><g
           id="g80"
           transform="translate(482.9834,493.7129)"><path
             d="m 0,0 c 0,0 -58.971,-28.483 -133.122,5.75 0,0 20.282,-39.447 65.413,-42.886 C -30.949,-39.935 -6.983,-18.725 0,0"
             style="fill:#070409;fill-opacity:1;fill-rule:nonzero;stroke:none"
             id="path82"
             inkscape:connector-curvature="0" /></g><g
           id="g84"
           transform="translate(418.5039,477.9688)"><path
             d="m 0,0 c -18.67,0.658 -37.205,4.306 -55.289,10.873 9.577,-11.067 26.823,-25.587 52.419,-27.537 1.118,-0.086 2.245,-0.149 3.351,-0.188 C 25.732,-17.743 44.434,-6.465 54.266,6.891 42.772,3.339 23.831,-0.841 0,0 m -3.59,-26.116 c -47.232,3.596 -68.39,43.736 -69.267,45.443 l -6.293,12.239 12.494,-5.77 C -44.93,15.766 -22.39,10.274 0.334,9.474 37.261,8.171 62.177,19.897 62.419,20.013 L 73.045,25.146 68.921,14.088 C 61.325,-6.275 36.563,-27.61 0.147,-26.326 c -1.234,0.044 -2.492,0.115 -3.737,0.21"
             style="fill:#070409;fill-opacity:1;fill-rule:nonzero;stroke:none"
             id="path86"
             inkscape:connector-curvature="0" /></g><g
           id="g88"
           transform="translate(482.9834,493.7129)"><path
             d="m 0,0 c 0,0 -58.971,-28.483 -133.122,5.75 0,0 20.282,-39.447 65.413,-42.886 C -30.949,-39.935 -6.983,-18.725 0,0"
             style="fill:#efe8d3;fill-opacity:1;fill-rule:nonzero;stroke:none"
             id="path90"
             inkscape:connector-curvature="0" /></g><g
           id="g92"
           transform="translate(467.7275,488.3408)"><path
             d="m 0,0 c -3.338,-11.864 -11.177,-21.776 -21.5,-27.867 -2.033,-0.721 -4.097,-1.387 -6.183,-1.985 -7.44,-1.828 -15.714,-2.6 -24.77,-1.912 -5.055,0.385 -9.795,1.226 -14.233,2.407 C -78.77,-23.264 -87.82,-12.15 -91.208,1.15 -51.362,-10.362 -18.242,-5.078 0,0"
             style="fill:#070409;fill-opacity:1;fill-rule:nonzero;stroke:none"
             id="path94"
             inkscape:connector-curvature="0" /></g><g
           id="g96"
           transform="translate(539.8711,521.7817)"><path
             d="m 0,0 c 0,0 34.656,51.895 90.756,37.897 0,0 32.714,-9.454 52.137,-36.642 C 162.315,-25.934 87.922,55.685 0,0"
             style="fill:#330400;fill-opacity:1;fill-rule:nonzero;stroke:none"
             id="path98"
             inkscape:connector-curvature="0" /><path
             inkscape:connector-curvature="0"
             id="path4269"
             style="fill:#330400;fill-opacity:1;fill-rule:nonzero;stroke:none"
             d="m -94.419688,-233.67842 c 0,0 36.458011,50.64527 92.0315303,34.68476 0,0 32.3616187,-10.59762 50.8173337,-38.45129 18.45468,-27.85463 -53.0245754,56.32788 -142.848864,3.76653" /></g><g
           id="g100"
           transform="translate(547.9189,493.7129)"><path
             d="m 0,0 c 0,0 58.971,-28.483 133.122,5.75 0,0 -20.281,-39.447 -65.413,-42.886 C 30.949,-39.935 6.983,-18.725 0,0"
             style="fill:#070409;fill-opacity:1;fill-rule:nonzero;stroke:none"
             id="path102"
             inkscape:connector-curvature="0" /></g><g
           id="g104"
           transform="translate(558.1328,484.8594)"><path
             d="m 0,0 c 9.832,-13.355 28.533,-24.634 53.784,-23.742 1.107,0.038 2.234,0.101 3.351,0.187 25.596,1.951 42.843,16.47 52.42,27.537 C 91.471,-2.585 72.936,-6.232 54.266,-6.891 30.435,-7.731 11.493,-3.552 0,0 M 54.118,-33.217 C 17.702,-34.501 -7.059,-13.166 -14.656,7.197 l -4.123,11.058 10.626,-5.133 C -7.911,13.007 17.005,1.28 53.932,2.583 c 22.724,0.801 45.263,6.292 66.99,16.322 l 12.494,5.771 -6.293,-12.239 c -0.877,-1.708 -22.035,-41.847 -69.268,-45.444 -1.245,-0.095 -2.502,-0.166 -3.737,-0.21"
             style="fill:#070409;fill-opacity:1;fill-rule:nonzero;stroke:none"
             id="path106"
             inkscape:connector-curvature="0" /></g><g
           id="g108"
           transform="translate(547.9189,493.7129)"><path
             d="m 0,0 c 0,0 58.971,-28.483 133.122,5.75 0,0 -20.281,-39.447 -65.413,-42.886 C 30.949,-39.935 6.983,-18.725 0,0"
             style="fill:#efe8d3;fill-opacity:1;fill-rule:nonzero;stroke:none"
             id="path110"
             inkscape:connector-curvature="0" /></g><g
           id="g112"
           transform="translate(563.1748,488.3408)"><path
             d="m 0,0 c 3.339,-11.864 11.177,-21.776 21.5,-27.867 2.033,-0.721 4.097,-1.387 6.183,-1.985 7.439,-1.828 15.714,-2.6 24.77,-1.912 5.055,0.385 9.794,1.226 14.233,2.407 C 78.771,-23.264 87.82,-12.15 91.208,1.15 51.362,-10.362 18.242,-5.078 0,0"
             style="fill:#070409;fill-opacity:1;fill-rule:nonzero;stroke:none"
             id="path114"
             inkscape:connector-curvature="0" /></g><g
           id="g116"
           transform="translate(517.1055,319.25)" /><g
           id="g120"><g
             id="g122" /><g
             id="g128"><g
               clip-path="url(#clipPath124)"
               id="g130"
               style="opacity:0.10000598"><g
                 transform="translate(502.4375,302.3945)"
                 id="g132"><path
                   d="m 0,0 c -0.897,-3.164 -6.523,-4.339 -12.564,-2.624 -6.04,1.715 -10.209,5.671 -9.311,8.835 0.898,3.164 6.523,4.339 12.564,2.624 C -3.271,7.12 0.898,3.164 0,0"
                   style="fill:#f2e7e7;fill-opacity:1;fill-rule:nonzero;stroke:none"
                   id="path134"
                   inkscape:connector-curvature="0" /></g></g></g></g></g></g></g><g
     inkscape:groupmode="layer"
     id="layer1"
     inkscape:label="lip"
     style="display:none"><path
       transform="matrix(1.25,0,0,-1.25,649.646,882.91263)"
       d="m 0,0 c 0.475,-0.005 0.912,-0.007 1.346,-0.007 22.746,0.001 28.627,6.231 31.381,12.325 1.927,4.269 4.66,8.01 6.89,10.663 -3.101,0.499 -7.148,1 -10.902,1 -1.342,0 -2.57,-0.064 -3.654,-0.192 C 21.439,23.363 15.869,21.92 10.48,20.525 3.955,18.835 -2.209,17.239 -5.633,17.239 c -0.346,0 -0.666,0.016 -0.955,0.044 -4.998,0.5 -20.625,4.599 -22.34,5.051 -3.742,0.638 -7.627,0.961 -11.547,0.961 -3.058,0 -5.726,-0.195 -7.843,-0.435 2.213,-2.646 4.892,-6.339 6.791,-10.543 2.752,-6.093 8.634,-12.324 31.381,-12.324 0.431,0 0.871,0.002 1.314,0.007 L 0,0 Z m 1.346,-6.007 c -0.455,0 -0.91,0.002 -1.377,0.007 l -8.77,0 c -0.433,-0.005 -0.892,-0.007 -1.345,-0.007 -20.809,0 -31.829,4.741 -36.85,15.855 -3.215,7.12 -9.301,12.809 -9.361,12.866 l -4.077,3.778 5.393,1.336 c 0.242,0.06 6.029,1.467 14.566,1.467 4.305,0 8.577,-0.36 12.696,-1.07 l 0.258,-0.056 c 4.664,-1.235 17.625,-4.524 21.531,-4.915 0.107,-0.011 0.226,-0.015 0.357,-0.015 2.66,0 8.735,1.574 14.61,3.095 5.582,1.445 11.355,2.94 15.382,3.414 1.317,0.154 2.782,0.233 4.356,0.233 8.142,0 17.103,-2.055 17.482,-2.142 l 5.524,-1.28 -4.166,-3.847 C 47.496,22.657 41.408,16.968 38.195,9.849 33.174,-1.265 22.154,-6.007 1.346,-6.007"
       style="fill:#2e0e0d;fill-opacity:1;fill-rule:nonzero;stroke:none"
       id="path62"
       inkscape:connector-curvature="0" /><path
       transform="matrix(1.25,0,0,-1.25,641.25,856.25)"
       d="m 0,0 c -7.5,0 -21.572,3.938 -32.5,3.5 -10.928,-0.438 -25,1 -32,-2 -6.998,-2.999 -8.5,-0.054 -8.5,2.501 0,4.249 7.947,4.07 9.893,4.415 5.17,0.916 10.153,4.227 14.966,6.272 10.646,4.523 21.647,10.261 33.529,9.964 4.554,-0.108 8.561,-1.072 11.912,-2.865 0.809,-0.432 1.452,-0.836 1.921,-1.13 L -0.5,20.438 c 1.375,-0.438 2.207,0.219 2.207,0.219 0.469,0.294 1.111,0.698 1.921,1.13 3.351,1.793 7.357,2.757 11.912,2.865 11.882,0.297 22.882,-5.441 33.528,-9.964 C 53.881,12.643 58.864,9.332 64.035,8.416 65.98,8.071 73.5,8 73.928,4.001 c 0.271,-2.54 -1.503,-5.5 -8.5,-2.501 -7,3 -21.073,1.562 -32,2 C 22.5,3.938 8.428,0 0.928,0 L 0,0 Z"
       style="fill:#2e0e0d;fill-opacity:1;fill-rule:nonzero;stroke:none"
       id="path58"
       inkscape:connector-curvature="0" /><path
       transform="matrix(1.25,0,0,-1.25,706.54538,851.76762)"
       d="m 0,0 c 0,0 -6.539,-6.036 -10.059,-13.833 -3.521,-7.795 -11.066,-14.334 -35.461,-14.083 l -8.8,0 c -24.395,-0.251 -31.94,6.288 -35.461,14.083 C -93.303,-6.036 -99.84,0 -99.84,0 c 0,0 11.531,2.853 26.031,0.353 0,0 17,-4.5 22,-5 5,-0.5 22.5,5.5 31,6.5 C -12.309,2.853 0,0 0,0"
       style="fill:#81301c;fill-opacity:1;fill-rule:nonzero;stroke:none"
       id="path66"
       inkscape:connector-curvature="0" /><path
       transform="matrix(1.25,0,0,-1.25,666.919,901.13887)"
       d="m 0,0 c -0.13,0.519 -0.453,0.955 -0.912,1.229 -5.765,3.46 -12.067,5.214 -18.732,5.214 -11.185,0 -19.638,-5.001 -19.992,-5.214 -0.459,-0.274 -0.783,-0.71 -0.912,-1.23 -0.13,-0.518 -0.05,-1.055 0.226,-1.512 0.358,-0.599 1.015,-0.972 1.716,-0.972 0.361,0 0.717,0.098 1.024,0.283 0.317,0.187 7.905,4.583 18.011,4.583 5.95,0 11.536,-1.541 16.601,-4.581 0.91,-0.545 2.199,-0.223 2.744,0.685 C 0.05,-1.056 0.13,-0.519 0,0"
       style="fill:#330400;fill-opacity:1;fill-rule:nonzero;stroke:none"
       id="path74"
       inkscape:connector-curvature="0" /><path
       transform="matrix(1.25,0,0,-1.25,646.38188,850.9375)"
       d="M 0,0 C 0,0 11.242,2.785 21.25,3.25 31.258,3.715 50.5,2 56.5,0.5 c 0,0 6,-2 7.75,-2.25 C 66,-2 67,-0.375 65.625,0.625 c -1.375,1 -8.25,2.125 -10.5,3 -2.25,0.875 -16.25,7.5 -21.75,9.625 -5.5,2.125 -21.625,6.125 -35.25,0 0,0 -1.23,-0.687 -2.543,-0.125 L -4.73,13.25 c -13.625,6.125 -29.75,2.125 -35.25,0 -5.5,-2.125 -19.5,-8.75 -21.75,-9.625 -2.25,-0.875 -9.125,-2 -10.5,-3 -1.375,-1 -0.375,-2.625 1.375,-2.375 1.75,0.25 7.75,2.25 7.75,2.25 6,1.5 25.242,3.215 35.25,2.75 C -17.848,2.785 -6.605,0 -6.605,0 c 0,0 2.21,-1.5 6.605,0"
       style="fill:#81301c;fill-opacity:1;fill-rule:nonzero;stroke:none"
       id="path118"
       inkscape:connector-curvature="0" /></g><g
     inkscape:groupmode="layer"
     id="layer2"
     inkscape:label="lip simple" /></svg>