<?xml version="1.0" encoding="UTF-8" standalone="no"?>
<!-- Created with Inkscape (http://www.inkscape.org/) -->

<svg
   xmlns:dc="http://purl.org/dc/elements/1.1/"
   xmlns:cc="http://creativecommons.org/ns#"
   xmlns:rdf="http://www.w3.org/1999/02/22-rdf-syntax-ns#"
   xmlns:svg="http://www.w3.org/2000/svg"
   xmlns="http://www.w3.org/2000/svg"
   xmlns:sodipodi="http://sodipodi.sourceforge.net/DTD/sodipodi-0.dtd"
   xmlns:inkscape="http://www.inkscape.org/namespaces/inkscape"
   id="svg2"
   version="1.1"
   inkscape:version="0.91 r13725"
   xml:space="preserve"
   width="1250"
   height="1250"
   viewBox="0 0 1250 1250"
   sodipodi:docname="shocked.ai.svg"
   inkscape:export-filename="/Users/antenehs/Pictures/Emojis/Final V1/shoked.png"
   inkscape:export-xdpi="90"
   inkscape:export-ydpi="90"><metadata
     id="metadata8"><rdf:RDF><cc:Work
         rdf:about=""><dc:format>image/svg+xml</dc:format><dc:type
           rdf:resource="http://purl.org/dc/dcmitype/StillImage" /><dc:title></dc:title></cc:Work></rdf:RDF></metadata><defs
     id="defs6"><clipPath
       clipPathUnits="userSpaceOnUse"
       id="clipPath16"><path
         d="m 0,1000 1000,0 L 1000,0 0,0 0,1000 Z"
         id="path18"
         inkscape:connector-curvature="0" /></clipPath><clipPath
       clipPathUnits="userSpaceOnUse"
       id="clipPath28"><path
         d="m 531.004,689.182 c -152.333,0 -186.999,-104.999 -185.999,-216 l 0,0 c 1.074,-119.289 66.705,-216 185.999,-216 l 0,0 2.798,0 c 119.293,0 184.925,96.711 185.999,216 l 0,0 c 1,111.001 -33.665,216 -185.999,216 l 0,0 -2.798,0 z"
         id="path30"
         inkscape:connector-curvature="0" /></clipPath><radialGradient
       fx="0"
       fy="0"
       cx="0"
       cy="0"
       r="1"
       gradientUnits="userSpaceOnUse"
       gradientTransform="matrix(213.45012,0,0,-237.47604,532.40234,473.18262)"
       spreadMethod="pad"
       id="radialGradient36"><stop
         style="stop-opacity:1;stop-color:#f77b28"
         offset="0"
         id="stop38" /><stop
         style="stop-opacity:1;stop-color:#f77b28"
         offset="0.422272"
         id="stop40" /><stop
         style="stop-opacity:1;stop-color:#f77b28"
         offset="0.72506948"
         id="stop42" /><stop
         style="stop-opacity:1;stop-color:#630c05"
         offset="1"
         id="stop44" /></radialGradient><clipPath
       clipPathUnits="userSpaceOnUse"
       id="clipPath52"><path
         d="m 0,1000 1000,0 L 1000,0 0,0 0,1000 Z"
         id="path54"
         inkscape:connector-curvature="0" /></clipPath><clipPath
       clipPathUnits="userSpaceOnUse"
       id="clipPath120"><path
         d="m 670.482,444.543 c -32,-1 -38.499,-35.167 -38.499,-35.167 l 0,0 c -14.468,-2.27 -21.319,-17.058 -25.668,-29.829 l 0,0 c -6.134,-18.008 -8.776,-38.695 -12.999,-57.17 l 0,0 c -2.667,-11.668 -28.334,-48.334 -28.334,-48.334 l 0,0 c -13.999,-27 -3,-61 -3,-61 l 0,0 5.335,-15.333 c 8.665,-20.666 38,-14 38,-14 l 0,0 c 20.665,2.666 37.165,44.833 37.165,44.833 l 0,0 c 12.5,28 38.5,119 40.001,125.5 l 0,0 c 1.499,6.5 19.999,50 20.999,62 l 0,0 c 1,12 -4.999,15.5 -4.999,15.5 l 0,0 c 0,6.5 -4.001,15.5 -4.001,15.5 l 0,0 c -3.205,2.369 -6.487,3.223 -9.556,3.223 l 0,0 c -7.94,-0.001 -14.444,-5.723 -14.444,-5.723"
         id="path122"
         inkscape:connector-curvature="0" /></clipPath><radialGradient
       fx="0"
       fy="0"
       cx="0"
       cy="0"
       r="1"
       gradientUnits="userSpaceOnUse"
       gradientTransform="matrix(52.954758,130.41254,91.912811,-37.321716,630.73438,310.47656)"
       spreadMethod="pad"
       id="radialGradient128"><stop
         style="stop-opacity:1;stop-color:#f77b28"
         offset="0"
         id="stop130" /><stop
         style="stop-opacity:1;stop-color:#f77b28"
         offset="0.422272"
         id="stop132" /><stop
         style="stop-opacity:1;stop-color:#f77b28"
         offset="0.72506948"
         id="stop134" /><stop
         style="stop-opacity:1;stop-color:#630c05"
         offset="1"
         id="stop136" /></radialGradient><clipPath
       clipPathUnits="userSpaceOnUse"
       id="clipPath144"><path
         d="m 0,1000 1000,0 L 1000,0 0,0 0,1000 Z"
         id="path146"
         inkscape:connector-curvature="0" /></clipPath><clipPath
       clipPathUnits="userSpaceOnUse"
       id="clipPath160"><path
         d="m 357.955,447.043 c 0,0 -4,-9 -4,-15.5 l 0,0 c 0,0 -6,-3.5 -5,-15.5 l 0,0 c 1,-12 19.501,-55.5 21,-62 l 0,0 c 1.5,-6.5 27.5,-97.5 40,-125.5 l 0,0 c 0,0 16.5,-42.167 37.166,-44.833 l 0,0 c 0,0 29.335,-6.666 38,14 l 0,0 5.334,15.333 c 0,0 11,34 -3,61 l 0,0 c 0,0 -25.667,36.666 -28.334,48.334 l 0,0 c -4.222,18.475 -6.866,39.162 -12.998,57.17 l 0,0 c -4.35,12.771 -11.201,27.559 -25.668,29.829 l 0,0 c 0,0 -6.5,34.167 -38.499,35.167 l 0,0 c 0,0 -6.505,5.722 -14.445,5.723 l 0,0 c -3.068,0 -6.35,-0.854 -9.556,-3.223"
         id="path162"
         inkscape:connector-curvature="0" /></clipPath><radialGradient
       fx="0"
       fy="0"
       cx="0"
       cy="0"
       r="1"
       gradientUnits="userSpaceOnUse"
       gradientTransform="matrix(-52.954758,130.41254,-91.912796,-37.321716,421.70312,310.47656)"
       spreadMethod="pad"
       id="radialGradient168"><stop
         style="stop-opacity:1;stop-color:#f77b28"
         offset="0"
         id="stop170" /><stop
         style="stop-opacity:1;stop-color:#f77b28"
         offset="0.422272"
         id="stop172" /><stop
         style="stop-opacity:1;stop-color:#f77b28"
         offset="0.72506948"
         id="stop174" /><stop
         style="stop-opacity:1;stop-color:#630c05"
         offset="1"
         id="stop176" /></radialGradient><clipPath
       clipPathUnits="userSpaceOnUse"
       id="clipPath184"><path
         d="m 0,1000 1000,0 L 1000,0 0,0 0,1000 Z"
         id="path186"
         inkscape:connector-curvature="0" /></clipPath><clipPath
       clipPathUnits="userSpaceOnUse"
       id="clipPath200"><path
         d="m 490.628,342.534 23.41,0 0,-13.735 -23.41,0 0,13.735 z"
         id="path202"
         inkscape:connector-curvature="0" /></clipPath></defs><sodipodi:namedview
     pagecolor="#ffffff"
     bordercolor="#666666"
     borderopacity="1"
     objecttolerance="10"
     gridtolerance="10"
     guidetolerance="10"
     inkscape:pageopacity="0"
     inkscape:pageshadow="2"
     inkscape:window-width="1280"
     inkscape:window-height="752"
     id="namedview4"
     showgrid="false"
     inkscape:zoom="0.88"
     inkscape:cx="727.65496"
     inkscape:cy="621.74808"
     inkscape:window-x="0"
     inkscape:window-y="0"
     inkscape:window-maximized="1"
     inkscape:current-layer="g10" /><g
     id="g10"
     inkscape:groupmode="layer"
     inkscape:label="Order__FO18D48823B8_shocked"
     transform="matrix(1.25,0,0,-1.25,0,1250)"><g
       id="g12"><g
         id="g14"
         clip-path="url(#clipPath16)"><g
           id="g20"
           transform="translate(533.4033,798.1826)"><path
             d="m 0,0 0.398,0 c 179.494,0 294.999,-138 284.999,-325 0,0 -12,-156.333 -151.999,-157.667 0,0 -52.666,-57.334 -132,-55 l -4.796,0 c -79.334,-2.334 -132,55 -132,55 -140,1.334 -152,157.667 -152,157.667 -10,187 105.505,325 285,325 L -2,0 0,0 Z"
             style="fill:#0a0205;fill-opacity:1;fill-rule:nonzero;stroke:none"
             id="path22"
             inkscape:connector-curvature="0" /></g></g></g><g
       id="g24"><g
         id="g26"
         clip-path="url(#clipPath28)"><g
           id="g32"><g
             id="g34"><path
               d="m 531.004,689.182 c -152.333,0 -186.999,-104.999 -185.999,-216 l 0,0 c 1.074,-119.289 66.705,-216 185.999,-216 l 0,0 2.798,0 c 119.293,0 184.925,96.711 185.999,216 l 0,0 c 1,111.001 -33.665,216 -185.999,216 l 0,0 -2.798,0 z"
               style="fill:url(#radialGradient36);stroke:none"
               id="path46"
               inkscape:connector-curvature="0" /></g></g></g></g><g
       id="g48"><g
         id="g50"
         clip-path="url(#clipPath52)"><g
           id="g56"
           transform="translate(550.9014,306.3086)"><path
             d="m 0,0 c -0.13,0.519 -0.453,0.955 -0.912,1.229 -5.765,3.46 -12.067,5.214 -18.732,5.214 -11.185,0 -19.638,-5.001 -19.992,-5.214 -0.459,-0.274 -0.783,-0.71 -0.912,-1.23 -0.13,-0.518 -0.05,-1.055 0.226,-1.512 0.358,-0.599 1.015,-0.972 1.716,-0.972 0.361,0 0.717,0.098 1.024,0.283 0.317,0.187 7.905,4.583 18.011,4.583 5.95,0 11.536,-1.541 16.601,-4.581 0.91,-0.545 2.199,-0.223 2.744,0.685 C 0.05,-1.056 0.13,-0.519 0,0"
             style="fill:#330400;fill-opacity:1;fill-rule:nonzero;stroke:none"
             id="path58"
             inkscape:connector-curvature="0" /></g><g
           id="g60"
           transform="translate(502.1406,583.4253)"><path
             d="m 0,0 c 0,0 -42.114,49.049 -95.447,26.718 0,0 -30.906,-17.299 -45.988,-47.115 C -156.518,-50.213 -94.141,54.575 0,0"
             style="fill:#330400;fill-opacity:1;fill-rule:nonzero;stroke:none"
             id="path62"
             inkscape:connector-curvature="0" /></g><g
           id="g64"
           transform="translate(353.7041,508.1914)"><path
             d="M 6.2908371,0 C 23.463769,-17.868 91.448326,-87.191 150.30115,-23.752 c 0,0 10.03395,9.704 10.2953,14.798 0.26231,5.093 -4.24111,18.338 -4.24111,18.338 0,0 -20.88366,61.337 -76.972168,50.125 0,0 -24.446423,-5.367 -72.6061544,-51.18 0,0 -4.7705259,-3.87 -0.4861805,-8.329"
             style="fill:#0a0205;fill-opacity:1;fill-rule:nonzero;stroke:none"
             id="path66"
             inkscape:connector-curvature="0" /></g><g
           id="g68"
           transform="translate(362.6846,508.9355)"><path
             d="M 8.8091968,0 C 23.14324,-15.104 81.243478,-77.936 134.40624,-21.3 c 0,0 8.72648,8.543 8.95427,13.027 0.2278,4.481 -3.68269,16.126 -3.68934,16.144 C 132.80883,28.303 113.42911,51.128 92.565873,54.94 60.200852,60.85 33.02198,26.719 10.25475,7.534 10.252852,7.532 5.4662951,3.523 8.8091968,0"
             style="fill:#efe8d3;fill-opacity:1;fill-rule:nonzero;stroke:none"
             id="path70"
             inkscape:connector-curvature="0" /></g><g
           id="g72"
           transform="translate(486.001,514)"><path
             d="m 4.8,0 c 0,-25.405 -20.595,-46.001 -46.001,-46.001 -25.406,0 -46.001,20.596 -46.001,46.001 0,25.406 20.595,46.001 46.001,46.001 C -15.795,46.001 4.8,25.406 4.8,0"
             style="fill:#070409;fill-opacity:1;fill-rule:nonzero;stroke:none"
             id="path74"
             inkscape:connector-curvature="0" /></g><g
           id="g76"
           transform="translate(564.0166,583.4253)"><path
             d="m 0,0 c 0,0 42.114,49.049 95.447,26.718 0,0 30.906,-17.299 45.988,-47.115 C 156.518,-50.213 94.141,54.575 0,0"
             style="fill:#330400;fill-opacity:1;fill-rule:nonzero;stroke:none"
             id="path78"
             inkscape:connector-curvature="0" /></g><g
           id="g80"
           transform="translate(712.4531,508.1914)"><path
             d="M -6.2908371,0 C -23.463769,-17.868 -91.448326,-87.191 -150.30115,-23.752 c 0,0 -10.03395,9.704 -10.2953,14.798 -0.26231,5.093 4.24111,18.338 4.24111,18.338 0,0 20.88366,61.337 76.972168,50.125 0,0 24.446423,-5.367 72.6061544,-51.18 0,0 4.7705259,-3.87 0.4861805,-8.329"
             style="fill:#0a0205;fill-opacity:1;fill-rule:nonzero;stroke:none"
             id="path82"
             inkscape:connector-curvature="0" /></g><g
           id="g84"
           transform="translate(703.4727,508.9355)"><path
             d="M -7.9080472,0 C -22.338085,-15.104 -80.827418,-77.936 -134.34621,-21.3 c 0,0 -8.78492,8.543 -9.01424,13.027 -0.22932,4.481 3.70736,16.126 3.71405,16.144 6.9083,20.432 26.4178,43.257 47.420761,47.069 C -59.64387,60.85 -32.282982,26.719 -9.3632814,7.534 -9.3613704,7.532 -4.5427582,3.523 -7.9080472,0"
             style="fill:#efe8d3;fill-opacity:1;fill-rule:nonzero;stroke:none"
             id="path86"
             inkscape:connector-curvature="0" /></g><g
           id="g88"
           transform="translate(580.1563,514)"><path
             d="m -4.8,0 c 0,-25.405 20.596,-46.001 46.001,-46.001 25.405,0 46.001,20.596 46.001,46.001 0,25.406 -20.596,46.001 -46.001,46.001 C 15.796,46.001 -4.8,25.406 -4.8,0"
             style="fill:#070409;fill-opacity:1;fill-rule:nonzero;stroke:none"
             id="path90"
             inkscape:connector-curvature="0" /></g><g
           id="g92"
           transform="translate(533.8721,398.21)"><path
             d="m 0,0 c -12.875,0 -22.617,9.212 -22.763,9.353 -0.507,0.49 -0.717,1.211 -0.555,1.898 4.408,18.613 7.42,69.148 7.45,69.656 2.885,99.093 -23.682,106.867 -23.951,106.934 -1.058,0.263 -1.728,1.33 -1.484,2.392 0.244,1.063 1.275,1.742 2.343,1.514 1.231,-0.259 30.101,-7.534 27.087,-111.016 -0.123,-2.105 -2.948,-49.511 -7.287,-69.238 3.821,-3.251 20.007,-15.172 36.576,-0.038 -4.41,18.73 -5.307,25.709 -7.286,69.244 -3.015,103.514 25.855,110.789 27.086,111.048 1.077,0.228 2.141,-0.464 2.369,-1.545 0.228,-1.081 -0.464,-2.141 -1.545,-2.369 C 37.807,187.774 11.239,180 14.127,80.849 16.129,36.833 17.008,30.53 21.574,11.251 21.736,10.564 21.525,9.843 21.019,9.353 13.769,2.339 6.487,0 0,0"
             style="fill:#361100;fill-opacity:1;fill-rule:nonzero;stroke:none"
             id="path94"
             inkscape:connector-curvature="0" /></g><g
           id="g96"
           transform="translate(469.3335,364.999)"><path
             d="M 0,0 C 0,0 1,6 7.333,5.667 13.667,5.334 31,6.334 39,5.334 c 8,-1 14,-2.333 24.667,-1 l 10.666,1.333 c 0,0 15,2.333 24,1 9,-1.333 23,1.334 19.667,-10.333 -3.333,-11.667 -17.334,-23 -23,-25.667 -5.667,-2.667 -28.333,-6 -45.667,-5 C 32,-33.333 17,-27 10,-19.333 10,-19.333 1,-5.667 0,0"
             style="fill:#040204;fill-opacity:1;fill-rule:nonzero;stroke:none"
             id="path98"
             inkscape:connector-curvature="0" /></g><g
           id="g100"
           transform="translate(471.5,361.5)"><path
             d="m 0,0.67272728 c 0,0 31.439,-6.69727278 55,-5.22727278 25.683,1.603 58.167,3.84781823 58.167,3.84781823 l 3,5.60572727 c 0,0 -20.079,9.416 -50.078,3.417 0,0 -36.589,8.584 -69.256,-2.75 z"
             style="fill:#efe8d3;fill-opacity:1;fill-rule:nonzero;stroke:none"
             id="path102"
             inkscape:connector-curvature="0"
             sodipodi:nodetypes="ccccccc" /></g><g
           id="g104"
           transform="translate(579.9609,351.1865)"><path
             d="m 0,0 c -0.82,-0.787 -1.846,-1.288 -2.965,-1.496 -3.838,-0.714 -8.442,-0.673 -12.354,-0.506 -4.305,0 -8.577,-0.36 -12.696,-1.07 l -0.257,-0.056 c -4.665,-1.235 -17.625,-5.524 -21.532,-5.915 -0.107,-0.011 -0.226,-0.015 -0.357,-0.015 l -2.35,0 c -0.131,0 -0.25,0.004 -0.357,0.015 -3.906,0.391 -16.867,4.68 -21.531,5.915 l -0.258,0.056 c -4.119,0.71 -8.391,1.07 -12.696,1.07 -3.912,-0.167 -8.517,-0.208 -12.354,0.506 -1.119,0.208 -2.145,0.709 -2.965,1.496 -2.558,2.45 -7.076,10.882 -2.885,13.228 0.935,0.522 1.923,1.036 2.958,1.323 3.501,0.971 7.106,1.559 10.736,1.661 3.636,0.101 7.255,-0.125 10.868,-0.532 4.097,-0.462 8.897,-0.973 12.493,-3.176 5.852,-3.586 13.484,-3.627 13.807,-3.627 l 6.718,0 c 0.323,0 7.956,0.041 13.807,3.627 3.596,2.203 8.397,2.714 12.493,3.176 3.613,0.407 7.232,0.633 10.867,0.532 3.631,-0.102 7.236,-0.69 10.737,-1.661 C 0.962,14.264 1.95,13.75 2.885,13.228 7.076,10.882 2.559,2.45 0,0 M 13.023,21.599 C 12.159,24.018 9.961,25.709 7.682,25.713 6.727,25.715 5.807,25.429 5.018,24.885 3.718,23.988 2.717,23.521 2.289,23.34 1.433,23.239 0.556,23.188 -0.327,23.19 c -4.953,0.009 -9.702,1.593 -14.733,3.269 -5.427,1.812 -11.067,3.683 -17.172,3.553 -4.159,-0.092 -7.791,-0.951 -10.796,-2.551 -0.738,-0.393 -1.314,-0.754 -1.78,-1.045 -1.169,-0.733 -1.619,-1.014 -3.806,-1.153 l -1.229,0.002 -2.94,-0.054 -1.229,0 c -2.187,0.143 -2.636,0.425 -3.804,1.16 -0.465,0.292 -1.041,0.654 -1.778,1.048 -3.002,1.605 -6.633,2.471 -10.791,2.57 -6.105,0.141 -11.748,-1.719 -17.179,-3.521 -5.034,-1.667 -9.786,-3.242 -14.739,-3.242 -0.883,0 -1.76,0.051 -2.615,0.154 -0.428,0.182 -1.428,0.65 -2.727,1.55 -0.787,0.545 -1.707,0.833 -2.662,0.833 -2.279,0 -4.48,-1.688 -5.349,-4.105 -0.983,-2.73 -1.071,-5.684 1.381,-7.71 0,0 1.148,-1.135 2.648,-5.135 0,0 5.666,-10.334 9,-17.334 8.85,-18.584 22.634,-21.6 41.541,-21.97 l 7.986,0.031 c 23.834,-0.21 42.737,0.366 53.04,21.903 3.347,6.994 9.032,17.321 9.032,17.321 1.507,3.997 2.657,5.13 2.657,5.13 2.455,2.02 2.372,4.973 1.394,7.705"
             style="fill:#2e0e0d;fill-opacity:1;fill-rule:nonzero;stroke:none"
             id="path106"
             inkscape:connector-curvature="0" /></g><g
           id="g108"
           transform="translate(579.1953,348.8223)"><path
             d="m 0,0 c -0.815,-0.688 -1.834,-1.126 -2.945,-1.307 -3.812,-0.624 -8.385,-0.588 -12.271,-0.441 -4.275,0 -8.517,-0.315 -12.608,-0.937 l -0.256,-0.047 c -4.633,-1.079 -17.505,-4.825 -21.385,-5.165 -0.106,-0.009 -0.225,-0.013 -0.355,-0.013 l -2.333,0 c -0.13,0 -0.249,0.004 -0.356,0.013 -3.88,0.34 -16.752,4.086 -21.385,5.165 l -0.255,0.047 c -4.091,0.622 -8.334,0.937 -12.609,0.937 -3.886,-0.147 -8.459,-0.183 -12.271,0.441 -1.111,0.181 -2.203,0.54 -2.945,1.307 -0.372,0.385 -3.388,4.678 -3.388,4.678 -1.583,1.083 2.433,-6.119 2.433,-6.119 9.067,-20.049 24.937,-23.89 42.258,-24.187 l 7.933,0.027 c 23.672,-0.182 41.445,0.32 51.678,19.127 0,0 7.115,12.964 7.552,14.777 C 6.648,8.948 6.651,9.675 5.972,8.992 5.227,8.243 4.918,7.216 4.481,6.282 4.007,5.266 2.939,3.72 2.305,2.803 1.61,1.8 1.301,1.406 0.492,0.49 L 0,0 Z"
             style="fill:#81301c;fill-opacity:1;fill-rule:nonzero;stroke:none"
             id="path110"
             inkscape:connector-curvature="0" /></g><g
           id="g112"
           transform="translate(594.7988,179.1846)"><path
             d="m 0,0 c -15.16,0 -26.066,6.099 -30.71,17.172 l -0.078,0.203 -5.334,15.333 c -0.492,1.519 -11.308,35.785 3.198,63.762 l 0.24,0.395 c 7.031,10.044 25.728,38.085 27.789,47.108 1.396,6.104 2.594,12.334 3.863,18.928 2.492,12.959 5.069,26.36 9.234,38.589 4.415,12.964 11.355,28.051 26.125,31.694 2.249,8.029 11.703,34.04 40.066,35.622 2.346,1.772 8.453,5.776 15.735,5.776 4.212,0 8.127,-1.315 11.636,-3.909 l 0.743,-0.549 0.375,-0.844 c 0.162,-0.364 3.679,-8.346 4.229,-15.2 2.284,-2.184 5.91,-7.325 5.061,-17.513 -0.698,-8.369 -8.654,-29.191 -15.047,-45.921 -2.864,-7.496 -5.57,-14.577 -6.031,-16.575 C 89.783,168.391 63.78,76.887 50.912,48.005 49.853,45.317 33.248,4.113 11.121,1.075 10.194,0.878 5.738,0 0,0"
             style="fill:#421404;fill-opacity:1;fill-rule:nonzero;stroke:none"
             id="path114"
             inkscape:connector-curvature="0" /></g></g></g><g
       id="g116"><g
         id="g118"
         clip-path="url(#clipPath120)"><g
           id="g124"><g
             id="g126"><path
               d="m 670.482,444.543 c -32,-1 -38.499,-35.167 -38.499,-35.167 l 0,0 c -14.468,-2.27 -21.319,-17.058 -25.668,-29.829 l 0,0 c -6.134,-18.008 -8.776,-38.695 -12.999,-57.17 l 0,0 c -2.667,-11.668 -28.334,-48.334 -28.334,-48.334 l 0,0 c -13.999,-27 -3,-61 -3,-61 l 0,0 5.335,-15.333 c 8.665,-20.666 38,-14 38,-14 l 0,0 c 20.665,2.666 37.165,44.833 37.165,44.833 l 0,0 c 12.5,28 38.5,119 40.001,125.5 l 0,0 c 1.499,6.5 19.999,50 20.999,62 l 0,0 c 1,12 -4.999,15.5 -4.999,15.5 l 0,0 c 0,6.5 -4.001,15.5 -4.001,15.5 l 0,0 c -3.205,2.369 -6.487,3.223 -9.556,3.223 l 0,0 c -7.94,-0.001 -14.444,-5.723 -14.444,-5.723"
               style="fill:url(#radialGradient128);stroke:none"
               id="path138"
               inkscape:connector-curvature="0" /></g></g></g></g><g
       id="g140"><g
         id="g142"
         clip-path="url(#clipPath144)"><g
           id="g148"
           transform="translate(697.4277,438.502)"><path
             d="m 0,0 c -2.479,-6.733 -6.605,-18.104 -8.945,-25.459 -3.5,-11 -14.5,-71.5 -14.5,-71.5 l 15.5,65.5 c 0,0 6.168,14.65 8.923,26.076 C 0.828,-3.627 0.459,-1.771 0,0 m -64.713,-26.238 c -0.519,-1.789 -0.732,-2.888 -0.732,-2.888 -0.312,-0.049 -0.618,-0.112 -0.925,-0.173 2.698,-2.118 7.591,-7.346 7.591,-17.494 0,-14 -11.332,-60.666 -11.332,-70.666 0,0 12.666,54 14.666,62 1.816,7.267 0.537,23.813 -9.268,29.221 m 39.815,33.806 c -1.296,-0.869 -2.047,-1.527 -2.047,-1.527 -1.607,-0.05 -3.131,-0.205 -4.612,-0.414 3.456,-0.733 7.249,-2.383 7.779,-6.086 1,-7 -6.667,-37.334 -10,-51.334 -3.333,-14 -9.667,-59.334 -7.667,-65 0,0 11.667,83.667 16.667,95 0,0 7.777,22.718 -0.12,29.361"
             style="fill:#421404;fill-opacity:1;fill-rule:nonzero;stroke:none"
             id="path150"
             inkscape:connector-curvature="0" /></g><g
           id="g152"
           transform="translate(446.5176,180.2598)"><path
             d="m 0,0 c -22.127,3.038 -38.731,44.242 -39.791,46.93 -12.868,28.882 -38.871,120.385 -40.182,126.066 -0.461,1.998 -3.167,9.079 -6.031,16.575 -6.392,16.73 -14.349,37.552 -15.047,45.921 -0.848,10.188 2.778,15.328 5.061,17.513 0.551,6.853 4.067,14.836 4.229,15.2 l 0.375,0.844 0.743,0.549 c 3.509,2.593 7.424,3.909 11.636,3.909 7.282,0 13.389,-4.004 15.736,-5.777 28.362,-1.582 37.816,-27.592 40.065,-35.622 14.77,-3.642 21.71,-18.729 26.125,-31.693 4.165,-12.229 6.742,-25.63 9.234,-38.589 1.269,-6.595 2.467,-12.824 3.863,-18.929 2.061,-9.022 20.758,-37.063 27.789,-47.107 l 0.24,-0.395 C 58.551,67.418 47.735,33.151 47.243,31.633 L 41.909,16.3 41.831,16.097 C 37.188,5.023 26.281,-1.075 11.121,-1.075 5.383,-1.075 0.927,-0.197 0,0"
             style="fill:#421404;fill-opacity:1;fill-rule:nonzero;stroke:none"
             id="path154"
             inkscape:connector-curvature="0" /></g></g></g><g
       id="g156"><g
         id="g158"
         clip-path="url(#clipPath160)"><g
           id="g164"><g
             id="g166"><path
               d="m 357.955,447.043 c 0,0 -4,-9 -4,-15.5 l 0,0 c 0,0 -6,-3.5 -5,-15.5 l 0,0 c 1,-12 19.501,-55.5 21,-62 l 0,0 c 1.5,-6.5 27.5,-97.5 40,-125.5 l 0,0 c 0,0 16.5,-42.167 37.166,-44.833 l 0,0 c 0,0 29.335,-6.666 38,14 l 0,0 5.334,15.333 c 0,0 11,34 -3,61 l 0,0 c 0,0 -25.667,36.666 -28.334,48.334 l 0,0 c -4.222,18.475 -6.866,39.162 -12.998,57.17 l 0,0 c -4.35,12.771 -11.201,27.559 -25.668,29.829 l 0,0 c 0,0 -6.5,34.167 -38.499,35.167 l 0,0 c 0,0 -6.505,5.722 -14.445,5.723 l 0,0 c -3.068,0 -6.35,-0.854 -9.556,-3.223"
               style="fill:url(#radialGradient168);stroke:none"
               id="path178"
               inkscape:connector-curvature="0" /></g></g></g></g><g
       id="g180"><g
         id="g182"
         clip-path="url(#clipPath184)"><g
           id="g188"
           transform="translate(354.0322,433.1191)"><path
             d="m 0,0 c 2.755,-11.426 8.923,-26.076 8.923,-26.076 l 15.5,-65.5 c 0,0 -11,60.5 -14.5,71.5 C 7.583,-12.722 3.457,-1.351 0.978,5.383 0.519,3.611 0.149,1.756 0,0 m 56.423,-50.076 c 2,-8 14.666,-62 14.666,-62 0,10 -11.332,56.666 -11.332,70.666 0,10.148 4.892,15.376 7.591,17.494 -0.308,0.061 -0.614,0.124 -0.925,0.173 0,0 -0.213,1.098 -0.733,2.888 -9.804,-5.409 -11.084,-21.955 -9.267,-29.221 M 25.756,-16.41 c 5,-11.333 16.667,-95 16.667,-95 2,5.666 -4.334,51 -7.667,65 -3.333,14 -11,44.334 -10,51.334 0.529,3.703 4.322,5.352 7.778,6.086 -1.48,0.209 -3.005,0.364 -4.611,0.414 0,0 -0.751,0.658 -2.047,1.527 -7.897,-6.643 -0.12,-29.361 -0.12,-29.361"
             style="fill:#421404;fill-opacity:1;fill-rule:nonzero;stroke:none"
             id="path190"
             inkscape:connector-curvature="0" /></g><g
           id="g192"
           transform="translate(528.5,362.834)"><path
             d="m 0,0 c -10.834,0.167 -16.5,3.333 -16.5,3.333 -4.135,1.893 -9.205,3.013 -13.681,3.74 -5.414,0.88 -11.34,0.945 -16.653,-0.395 -4.27,-1.076 -10.148,-1.309 -10.666,-7.013 0,0 -0.333,-1.665 -1.167,0.001 -1.557,3.114 -5.742,6.613 -2.364,10.206 1.947,2.07 4.841,0.937 7.198,0.294 3.666,-1 7.333,10e-4 11.5,1.167 4.166,1.166 18.5,8.5 31,2.5 0,0 4.834,-2.833 11.5,-2.5 l 1.958,-0.167 c 6.559,-0.328 11.148,4.025 17.442,4.839 8.493,1.099 15.728,-2.464 23.62,-4.672 4.167,-1.166 7.833,-2.167 11.5,-1.167 2.356,0.643 5.251,1.776 7.197,-0.294 C 65.263,6.279 61.077,2.78 59.52,-0.334 58.687,-2 58.354,-0.335 58.354,-0.335 57.835,5.369 51.957,5.602 47.688,6.678 42.374,8.018 36.448,7.953 31.034,7.073 26.559,6.346 21.488,5.226 17.354,3.333 c 0,0 -4.77,-3.25 -15.604,-3.417 L 0,0 Z"
             style="fill:#81301c;fill-opacity:1;fill-rule:nonzero;stroke:none"
             id="path194"
             inkscape:connector-curvature="0" /></g><g
           id="g196"><g
             id="g198" /><g
             id="g204"><g
               clip-path="url(#clipPath200)"
               id="g206"
               style="opacity:0.10000598"><g
                 transform="translate(513.9199,332.5439)"
                 id="g208"><path
                   d="m 0,0 c -0.91,-3.376 -6.836,-4.717 -13.234,-2.993 -6.4,1.724 -10.849,5.86 -9.94,9.237 0.91,3.377 6.835,4.718 13.235,2.994 C -3.541,7.514 0.91,3.378 0,0"
                   style="fill:#fffdfd;fill-opacity:1;fill-rule:nonzero;stroke:none"
                   id="path210"
                   inkscape:connector-curvature="0" /></g></g></g></g></g></g></g></svg>