<?xml version="1.0" encoding="UTF-8" standalone="no"?>
<!-- Created with Inkscape (http://www.inkscape.org/) -->

<svg
   xmlns:dc="http://purl.org/dc/elements/1.1/"
   xmlns:cc="http://creativecommons.org/ns#"
   xmlns:rdf="http://www.w3.org/1999/02/22-rdf-syntax-ns#"
   xmlns:svg="http://www.w3.org/2000/svg"
   xmlns="http://www.w3.org/2000/svg"
   xmlns:xlink="http://www.w3.org/1999/xlink"
   xmlns:sodipodi="http://sodipodi.sourceforge.net/DTD/sodipodi-0.dtd"
   xmlns:inkscape="http://www.inkscape.org/namespaces/inkscape"
   id="svg2"
   version="1.1"
   inkscape:version="0.91 r13725"
   xml:space="preserve"
   width="1250"
   height="1250"
   viewBox="0 0 1250 1250"
   sodipodi:docname="surprised.ai.svg"
   inkscape:export-filename="/Users/antenehs/Pictures/Emojis/Final V1/Surprised 1.png"
   inkscape:export-xdpi="90"
   inkscape:export-ydpi="90"><metadata
     id="metadata8"><rdf:RDF><cc:Work
         rdf:about=""><dc:format>image/svg+xml</dc:format><dc:type
           rdf:resource="http://purl.org/dc/dcmitype/StillImage" /><dc:title /></cc:Work></rdf:RDF></metadata><defs
     id="defs6"><linearGradient
       inkscape:collect="always"
       id="linearGradient4395"><stop
         style="stop-color:#333333;stop-opacity:1"
         offset="0"
         id="stop4397" /><stop
         style="stop-color:#000000;stop-opacity:1"
         offset="1"
         id="stop4399" /></linearGradient><clipPath
       clipPathUnits="userSpaceOnUse"
       id="clipPath16"><path
         d="m 0,1000 1000,0 L 1000,0 0,0 0,1000 Z"
         id="path18"
         inkscape:connector-curvature="0" /></clipPath><clipPath
       clipPathUnits="userSpaceOnUse"
       id="clipPath28"><path
         d="m 504.654,739.302 c -229.938,0 -282.265,-158.492 -280.756,-326.04 l 0,0 C 225.519,233.201 324.587,87.221 504.654,87.221 l 0,0 4.223,0 c 180.067,0 279.133,145.98 280.755,326.041 l 0,0 c 1.51,167.548 -50.815,326.04 -280.755,326.04 l 0,0 -4.223,0 z"
         id="path30"
         inkscape:connector-curvature="0" /></clipPath><radialGradient
       fx="0"
       fy="0"
       cx="0"
       cy="0"
       r="1"
       gradientUnits="userSpaceOnUse"
       gradientTransform="matrix(322.19119,0,0,-358.457,506.76562,413.26172)"
       spreadMethod="pad"
       id="radialGradient36"><stop
         style="stop-opacity:1;stop-color:#f77b28"
         offset="0"
         id="stop38" /><stop
         style="stop-opacity:1;stop-color:#f77b28"
         offset="0.422272"
         id="stop40" /><stop
         style="stop-opacity:1;stop-color:#f77b28"
         offset="0.72506948"
         id="stop42" /><stop
         style="stop-opacity:1;stop-color:#630c05"
         offset="1"
         id="stop44" /></radialGradient><clipPath
       clipPathUnits="userSpaceOnUse"
       id="clipPath52"><path
         d="m 0,1000 1000,0 L 1000,0 0,0 0,1000 Z"
         id="path54"
         inkscape:connector-curvature="0" /></clipPath><clipPath
       clipPathUnits="userSpaceOnUse"
       id="clipPath124"><path
         d="m 295.249,328.026 95.102,0 0,-117.738 -95.102,0 0,117.738 z"
         id="path126"
         inkscape:connector-curvature="0" /></clipPath><clipPath
       clipPathUnits="userSpaceOnUse"
       id="clipPath128"><path
         d="m 380.049,289.029 c 16.323,-30.594 12.877,-64.293 -7.696,-75.268 -20.572,-10.975 -50.48,4.928 -66.803,35.523 -16.321,30.596 -12.876,64.295 7.697,75.271 20.572,10.973 50.481,-4.932 66.802,-35.526"
         id="path130"
         inkscape:connector-curvature="0" /></clipPath><clipPath
       clipPathUnits="userSpaceOnUse"
       id="clipPath132"><path
         d="m -32767,32767 65534,0 0,-65534 -65534,0 0,65534 z"
         id="path134"
         inkscape:connector-curvature="0" /></clipPath><radialGradient
       fx="0"
       fy="0"
       cx="0"
       cy="0"
       r="1"
       gradientUnits="userSpaceOnUse"
       gradientTransform="matrix(33.425736,18.521164,28.911728,-52.177887,342.7998,269.15723)"
       spreadMethod="pad"
       id="radialGradient136"><stop
         style="stop-opacity:1;stop-color:#ffffff"
         offset="0"
         id="stop138" /><stop
         style="stop-opacity:1;stop-color:#ffffff"
         offset="0.121216"
         id="stop140" /><stop
         style="stop-opacity:0;stop-color:#ffffff"
         offset="1"
         id="stop142" /></radialGradient><mask
       maskUnits="userSpaceOnUse"
       x="0"
       y="0"
       width="1"
       height="1"
       id="mask144"><g
         id="g146"><g
           clip-path="url(#clipPath132)"
           id="g148"><g
             id="g150"><g
               id="g152"><path
                 d="m -32767,32767 65534,0 0,-65534 -65534,0 0,65534 z"
                 style="fill:url(#radialGradient136);stroke:none"
                 id="path154"
                 inkscape:connector-curvature="0" /></g></g></g></g></mask><radialGradient
       fx="0"
       fy="0"
       cx="0"
       cy="0"
       r="1"
       gradientUnits="userSpaceOnUse"
       gradientTransform="matrix(33.425736,18.521164,28.911728,-52.177887,342.7998,269.15723)"
       spreadMethod="pad"
       id="radialGradient156"><stop
         style="stop-opacity:1;stop-color:#f20000"
         offset="0"
         id="stop158" /><stop
         style="stop-opacity:1;stop-color:#f20000"
         offset="0.121216"
         id="stop160" /><stop
         style="stop-opacity:1;stop-color:#f20000"
         offset="1"
         id="stop162" /></radialGradient><clipPath
       clipPathUnits="userSpaceOnUse"
       id="clipPath186"><path
         d="m 627.49,332.489 92.621,0 0,-114.664 -92.621,0 0,114.664 z"
         id="path188"
         inkscape:connector-curvature="0" /></clipPath><clipPath
       clipPathUnits="userSpaceOnUse"
       id="clipPath190"><path
         d="m 637.523,294.512 c -15.895,-29.797 -12.541,-62.616 7.496,-73.305 20.035,-10.688 49.164,4.8 65.059,34.596 15.896,29.797 12.541,62.617 -7.495,73.305 -20.035,10.688 -49.164,-4.802 -65.06,-34.596"
         id="path192"
         inkscape:connector-curvature="0" /></clipPath><clipPath
       clipPathUnits="userSpaceOnUse"
       id="clipPath194"><path
         d="m -32767,32767 65534,0 0,-65534 -65534,0 0,65534 z"
         id="path196"
         inkscape:connector-curvature="0" /></clipPath><radialGradient
       fx="0"
       fy="0"
       cx="0"
       cy="0"
       r="1"
       gradientUnits="userSpaceOnUse"
       gradientTransform="matrix(37.277924,-18.702805,-25.046982,-49.922958,673.80078,275.15723)"
       spreadMethod="pad"
       id="radialGradient198"><stop
         style="stop-opacity:1;stop-color:#ffffff"
         offset="0"
         id="stop200" /><stop
         style="stop-opacity:1;stop-color:#ffffff"
         offset="0.121216"
         id="stop202" /><stop
         style="stop-opacity:1;stop-color:#ffffff"
         offset="0.2373057"
         id="stop204" /><stop
         style="stop-opacity:0;stop-color:#ffffff"
         offset="1"
         id="stop206" /></radialGradient><mask
       maskUnits="userSpaceOnUse"
       x="0"
       y="0"
       width="1"
       height="1"
       id="mask208"><g
         id="g210"><g
           clip-path="url(#clipPath194)"
           id="g212"><g
             id="g214"><g
               id="g216"><path
                 d="m -32767,32767 65534,0 0,-65534 -65534,0 0,65534 z"
                 style="fill:url(#radialGradient198);stroke:none"
                 id="path218"
                 inkscape:connector-curvature="0" /></g></g></g></g></mask><radialGradient
       fx="0"
       fy="0"
       cx="0"
       cy="0"
       r="1"
       gradientUnits="userSpaceOnUse"
       gradientTransform="matrix(37.277924,-18.702805,-25.046982,-49.922958,673.80078,275.15723)"
       spreadMethod="pad"
       id="radialGradient220"><stop
         style="stop-opacity:1;stop-color:#f20000"
         offset="0"
         id="stop222" /><stop
         style="stop-opacity:1;stop-color:#f20000"
         offset="0.121216"
         id="stop224" /><stop
         style="stop-opacity:1;stop-color:#f20000"
         offset="0.2373057"
         id="stop226" /><stop
         style="stop-opacity:1;stop-color:#f20000"
         offset="1"
         id="stop228" /></radialGradient><radialGradient
       inkscape:collect="always"
       xlink:href="#linearGradient4395"
       id="radialGradient4401"
       cx="634.09088"
       cy="1027.7236"
       fx="634.09088"
       fy="1027.7236"
       r="77.272728"
       gradientTransform="matrix(0.02941215,-0.71895401,0.92588031,0.02886854,-336.10817,1443.6736)"
       gradientUnits="userSpaceOnUse" /></defs><sodipodi:namedview
     pagecolor="#ffffff"
     bordercolor="#666666"
     borderopacity="1"
     objecttolerance="10"
     gridtolerance="10"
     guidetolerance="10"
     inkscape:pageopacity="0"
     inkscape:pageshadow="2"
     inkscape:window-width="1280"
     inkscape:window-height="752"
     id="namedview4"
     showgrid="false"
     inkscape:zoom="0.15556349"
     inkscape:cx="-33.284755"
     inkscape:cy="766.19837"
     inkscape:window-x="0"
     inkscape:window-y="0"
     inkscape:window-maximized="1"
     inkscape:current-layer="g10" /><g
     id="g10"
     inkscape:groupmode="layer"
     inkscape:label="surprised"
     transform="matrix(1.25,0,0,-1.25,0,1250)"><g
       id="g12"><g
         id="g14"
         clip-path="url(#clipPath16)"><g
           id="g20"
           transform="translate(508.2754,903.8315)"><path
             d="m 0,0 0.602,0 c 270.935,0 445.285,-208.303 430.19,-490.57 0,0 -18.113,-235.976 -229.434,-237.99 0,0 -79.497,-86.542 -199.248,-83.02 l -7.24,0 c -119.75,-3.522 -199.246,83.02 -199.246,83.02 -211.323,2.014 -229.437,237.99 -229.437,237.99 C -448.907,-208.303 -274.557,0 -3.621,0 L -3.019,0 0,0 Z"
             style="fill:#0a0205;fill-opacity:1;fill-rule:nonzero;stroke:none"
             id="path22"
             inkscape:connector-curvature="0" /></g></g></g><g
       id="g24"><g
         id="g26"
         clip-path="url(#clipPath28)"><g
           id="g32"><g
             id="g34"><path
               d="m 504.654,739.302 c -229.938,0 -282.265,-158.492 -280.756,-326.04 l 0,0 C 225.519,233.201 324.587,87.221 504.654,87.221 l 0,0 4.223,0 c 180.067,0 279.133,145.98 280.755,326.041 l 0,0 c 1.51,167.548 -50.815,326.04 -280.755,326.04 l 0,0 -4.223,0 z"
               style="fill:url(#radialGradient36);stroke:none"
               id="path46"
               inkscape:connector-curvature="0" /></g></g></g></g><g
       id="g48"><g
         id="g50"
         clip-path="url(#clipPath52)"><g
           id="g56"
           transform="translate(554.6641,568.5459)"><path
             d="m -3.8569461,-2.5712974 c 0,0 61.3840001,71.4460004 142.8939961,40.2520004 0,0 47.296,-20.126 71.448,-64.404 24.149,-44.278 -72.453,91.574 -214.3419961,24.1519996"
             style="fill:#330400;fill-opacity:1;fill-rule:nonzero;stroke:none"
             id="path58"
             inkscape:connector-curvature="0" /></g><g
           id="g60"
           transform="translate(460.9082,568.5459)"><path
             d="m 0,0 c 0,0 -61.383,71.446 -142.894,40.252 0,0 -47.296,-20.126 -71.448,-64.404 C -238.493,-68.43 -141.888,67.422 0,0"
             style="fill:#330400;fill-opacity:1;fill-rule:nonzero;stroke:none"
             id="path62"
             inkscape:connector-curvature="0" /></g><g
           id="g64"
           transform="translate(509.624,258.6133)"><path
             d="m 0,0 c -19.434,0 -34.139,15.345 -34.358,15.579 -0.766,0.817 -1.084,2.019 -0.84,3.163 6.655,31.006 11.201,115.192 11.247,116.037 4.353,165.077 -35.748,178.027 -36.154,178.138 -1.596,0.438 -2.607,2.216 -2.238,3.985 0.366,1.772 1.921,2.902 3.536,2.522 1.857,-0.43 45.435,-12.551 40.886,-184.938 -0.186,-3.507 -4.451,-82.48 -10.999,-115.341 5.768,-5.414 30.198,-25.277 55.209,-0.064 -6.657,31.201 -8.01,42.827 -10.998,115.353 -4.551,172.439 39.027,184.56 40.884,184.99 1.625,0.377 3.232,-0.773 3.576,-2.573 0.344,-1.801 -0.7,-3.568 -2.331,-3.947 C 57.067,312.806 16.965,299.856 21.324,134.681 24.346,61.357 25.672,50.858 32.565,18.742 32.811,17.598 32.491,16.396 31.727,15.579 20.783,3.895 9.792,0 0,0"
             style="fill:#361100;fill-opacity:1;fill-rule:nonzero;stroke:none"
             id="path66"
             inkscape:connector-curvature="0" /></g><g
           id="g68"
           transform="translate(536.1973,161.374)" /><g
           id="g72"
           transform="translate(514.2871,187.6475)" /><g
           id="g76"
           transform="translate(587.7188,224.1611)" /><g
           id="g80"
           transform="translate(598.5449,229.8721)" /><g
           id="g84"
           transform="translate(508.335,234.1113)" /><g
           id="g88"
           transform="translate(785.4824,444.7656)"><path
             d="m -19.112091,0 c -23.067868,-34.321 -117.042489,-160.414 -214.460389,-66.025 0,0 -16.83653,15.379 -18.08501,24.296 -1.24572,8.916 3.37858,32.97 3.37858,32.97 0,0 22.6132,99.096 109.55158,88.817 0,0 37.61073,1.339 117.489764,-65.49 0,0 7.879042,-6.005 2.125475,-14.568"
             style="fill:#070409;fill-opacity:1;fill-rule:nonzero;stroke:none"
             id="path90"
             inkscape:connector-curvature="0" /></g><g
           id="g92"
           transform="translate(771.1836,444.6221)"><path
             d="m -19.154596,0 c -19.267869,-29.012 -101.662344,-142.66 -187.173844,-58.872 0,0 -17.22896,13.539 -18.31731,21.386 -1.08288,7.851 5.51105,29.028 5.51105,29.028 0,0 19.68457,87.236 95.36704,78.184 0,0 32.395793,1.169 101.176192,-56.72 0,0 7.933775,-6.237 3.436872,-13.006"
             style="fill:#efe8d3;fill-opacity:1;fill-rule:nonzero;stroke:none"
             id="path94"
             inkscape:connector-curvature="0"
             sodipodi:nodetypes="ccccccc" /></g><g
           id="g96"
           transform="translate(703.7959,438.8018)"><path
             d="m 0,0 c 3.156,-30.768 -19.226,-58.268 -49.994,-61.424 -30.769,-3.156 -58.268,19.228 -61.423,49.995 -3.156,30.768 19.226,58.266 49.994,61.422 C -30.655,53.149 -3.156,30.768 0,0"
             style="fill:#070409;fill-opacity:1;fill-rule:nonzero;stroke:none"
             id="path98"
             inkscape:connector-curvature="0" /></g><g
           id="g100"
           transform="translate(229.8887,444.7656)"><path
             d="m 11.467255,0 c 23.82552,-34.321 120.886695,-160.414 221.504235,-66.025 0,0 17.38951,15.379 18.67901,24.296 1.28662,8.916 -3.48955,32.97 -3.48955,32.97 0,0 -23.35592,99.096 -113.14975,88.817 0,0 -38.846042,1.339 -121.348661,-65.49 0,0 -8.1378247,-6.005 -2.195284,-14.568"
             style="fill:#070409;fill-opacity:1;fill-rule:nonzero;stroke:none"
             id="path102"
             inkscape:connector-curvature="0" /></g><g
           id="g104"
           transform="translate(244.1875,444.6221)"><path
             d="m 15.323677,0 c 19.631295,-29.012 103.579873,-142.66 190.704273,-58.872 0,0 14.93413,13.539 16.04301,21.386 1.1033,7.851 -2.9952,29.028 -2.9952,29.028 0,0 -20.05586,87.236 -97.16583,78.184 0,0 -33.006837,1.169 -103.084555,-56.72 0,0 -8.08342,-6.237 -3.501698,-13.006"
             style="fill:#efe8d3;fill-opacity:1;fill-rule:nonzero;stroke:none"
             id="path106"
             inkscape:connector-curvature="0" /></g><g
           id="g108"
           transform="translate(311.5752,438.8018)"><path
             d="m 0,0 c -3.156,-30.768 19.226,-58.268 49.994,-61.424 30.769,-3.156 58.268,19.228 61.423,49.995 C 114.573,19.339 92.191,46.837 61.423,49.993 30.655,53.149 3.156,30.768 0,0"
             style="fill:#070409;fill-opacity:1;fill-rule:nonzero;stroke:none"
             id="path110"
             inkscape:connector-curvature="0" /></g><g
           id="g112"
           transform="translate(608.501,209.5)" /><g
           id="g116"
           transform="translate(406.5732,209.5)" /><g
           id="g120"><g
             id="g122" /><g
             id="g164"><g
               clip-path="url(#clipPath124)"
               id="g166"
               style="opacity:0.30000299"><g
                 id="g168"><g
                   clip-path="url(#clipPath128)"
                   id="g170"><g
                     id="g172"><g
                       id="g174" /><g
                       mask="url(#mask144)"
                       id="g176"><g
                         id="g178"><path
                           d="m 380.049,289.029 c 16.323,-30.594 12.877,-64.293 -7.696,-75.268 -20.572,-10.975 -50.48,4.928 -66.803,35.523 -16.321,30.596 -12.876,64.295 7.697,75.271 20.572,10.973 50.481,-4.932 66.802,-35.526"
                           style="fill:url(#radialGradient156);stroke:none"
                           id="path180"
                           inkscape:connector-curvature="0" /></g></g></g></g></g></g></g></g><g
           id="g182"><g
             id="g184" /><g
             id="g230"><g
               clip-path="url(#clipPath186)"
               id="g232"
               style="opacity:0.30000299"><g
                 id="g234"><g
                   clip-path="url(#clipPath190)"
                   id="g236"><g
                     id="g238"><g
                       id="g240" /><g
                       mask="url(#mask208)"
                       id="g242"><g
                         id="g244"><path
                           d="m 637.523,294.512 c -15.895,-29.797 -12.541,-62.616 7.496,-73.305 20.035,-10.688 49.164,4.8 65.059,34.596 15.896,29.797 12.541,62.617 -7.495,73.305 -20.035,10.688 -49.164,-4.802 -65.06,-34.596"
                           style="fill:url(#radialGradient220);stroke:none"
                           id="path246"
                           inkscape:connector-curvature="0" /></g></g></g></g></g></g></g></g></g></g></g><g
     inkscape:groupmode="layer"
     id="layer1"
     inkscape:label="Lips 1"
     style="display:none"><path
       transform="matrix(1.25,0,0,-1.25,642.85887,1015.4406)"
       d="m 0,0 c 0.766,-0.007 1.47,-0.01 2.17,-0.01 36.693,0.001 43.181,9.131 47.624,18.063 3.11,6.256 10.519,11.738 14.115,15.627 -5.003,0.73 -11.532,1.465 -17.587,1.465 -2.164,0 -4.147,-0.095 -5.894,-0.282 C 34.585,34.239 25.6,32.124 16.906,30.08 6.38,27.603 -3.564,25.265 -9.088,25.265 c -0.558,0 -1.074,0.022 -1.54,0.064 -8.062,0.733 -33.272,6.739 -36.039,7.4 -6.037,0.936 -12.304,1.41 -18.626,1.41 -4.935,0 -9.239,-0.286 -12.654,-0.637 3.57,-3.879 10.891,-9.29 13.955,-15.451 4.438,-8.93 10.93,-18.061 47.623,-18.061 0.697,0 1.405,0.003 2.12,0.01 L 0,0 Z m 2.17,-8.804 c -0.734,0 -1.468,0.004 -2.221,0.011 l -14.147,0 c -0.699,-0.007 -1.44,-0.011 -2.171,-0.011 -33.569,0 -48.344,6.95 -56.446,23.235 -5.186,10.435 -18.004,18.773 -18.101,18.856 l -6.576,5.537 8.699,1.958 c 0.391,0.087 9.727,2.15 23.5,2.15 6.942,0 13.835,-0.529 20.479,-1.57 l 0.416,-0.08 c 7.524,-1.811 28.433,-6.632 34.733,-7.203 0.175,-0.016 0.365,-0.021 0.577,-0.021 4.291,0 14.091,2.304 23.567,4.534 9.005,2.118 18.32,4.309 24.817,5.005 2.124,0.225 4.486,0.341 7.026,0.341 13.136,0 27.592,-3.013 28.202,-3.14 l 8.912,-1.877 -6.722,-5.637 C 76.62,33.204 63.8,24.866 58.616,14.434 50.515,-1.853 35.738,-8.804 2.17,-8.804"
       style="fill:#421404;fill-opacity:1;fill-rule:nonzero;stroke:none"
       id="path74"
       inkscape:connector-curvature="0" /><path
       transform="matrix(1.25,0,0,-1.25,670.24662,1048.2825)"
       d="m 0,0 c -0.196,0.783 -0.684,1.441 -1.377,1.856 -8.701,5.222 -18.216,7.87 -28.274,7.87 -16.884,0 -29.643,-7.548 -30.176,-7.87 -0.693,-0.415 -1.183,-1.073 -1.378,-1.858 -0.195,-0.781 -0.074,-1.592 0.341,-2.281 0.541,-0.905 1.532,-1.469 2.59,-1.469 0.545,0 1.084,0.149 1.546,0.428 0.479,0.282 11.932,6.917 27.186,6.917 8.981,0 17.413,-2.324 25.06,-6.914 1.374,-0.823 3.317,-0.336 4.141,1.035 C 0.075,-1.594 0.195,-0.783 0,0"
       style="fill:#330400;fill-opacity:1;fill-rule:nonzero;stroke:none"
       id="path70"
       inkscape:connector-curvature="0" /><path
       transform="matrix(1.25,0,0,-1.25,734.6485,969.79863)"
       d="m 0,0 c 0,0 -13.549,-8.846 -19.227,-20.271 -5.681,-11.424 -14.852,-21.007 -54.205,-20.639 l -14.197,0 c -39.354,-0.368 -48.526,9.215 -54.206,20.639 C -147.516,-8.846 -161.062,0 -161.062,0 c 0,0 18.603,4.182 41.995,0.517 0,0 27.423,-6.594 35.488,-7.328 8.067,-0.731 36.298,8.061 50.011,9.527 C -19.857,4.182 0,0 0,0"
       style="fill:#82301d;fill-opacity:1;fill-rule:nonzero;stroke:none"
       id="path78"
       inkscape:connector-curvature="0" /><path
       transform="matrix(1.25,0,0,-1.25,748.18112,962.65988)"
       d="m 0,0 c -2.751,-1.559 -4.755,-2.267 -5.354,-2.462 2.042,0.225 3.501,0.678 4.42,1.367 C -0.615,-0.855 -0.12,-0.429 0,0 m -182.714,0 c 0.12,-0.429 0.614,-0.855 0.929,-1.092 0.921,-0.692 2.382,-1.145 4.431,-1.37 -0.599,0.194 -2.604,0.903 -5.36,2.462 m 29.762,-1.56 c 5.026,0 30.677,-0.327 42.287,-6.793 7.026,-3.909 17.115,-4.017 17.216,-4.017 l 4.177,0 c 0.101,0 10.147,0.079 17.222,4.017 11.615,6.466 37.265,6.793 42.29,6.793 1.57,0 3.126,-0.044 4.663,-0.118 -4.864,1.004 -9.568,2.419 -14.184,3.808 C -47.64,4.646 -55.492,7.028 -63.725,6.848 -68.828,6.736 -73.35,5.792 -76.798,4.117 -77.719,3.671 -78.434,3.26 -79.075,2.893 -82.009,1.216 -84.202,0.176 -89.909,-0.149 l -0.301,-0.008 -2.594,0.008 c -5.705,0.325 -7.899,1.365 -10.831,3.042 -0.647,0.367 -1.363,0.778 -2.279,1.224 -3.45,1.675 -7.971,2.619 -13.075,2.731 -8.116,0.175 -16.082,-2.201 -24.441,-4.718 -4.619,-1.389 -9.32,-2.804 -14.188,-3.808 1.541,0.074 3.097,0.118 4.666,0.118 m 63.689,-19.603 -4.186,0 c -0.52,0 -12.834,0.059 -22.273,5.314 -6.821,3.797 -23.611,5.496 -37.23,5.496 -3.632,0 -7.366,-0.283 -10.981,-0.553 -3.507,-0.264 -6.818,-0.514 -9.968,-0.514 -4.339,0 -9.859,0.403 -14.049,3.55 -3.955,2.968 -5.426,7.298 -3.841,11.299 1.401,3.542 4.952,6.016 8.629,6.016 1.541,0 3.025,-0.424 4.295,-1.222 2.096,-1.318 3.708,-2.005 4.398,-2.271 1.381,-0.15 2.796,-0.225 4.219,-0.225 7.991,0 15.656,2.307 23.776,4.751 8.763,2.64 17.866,5.367 27.715,5.16 6.707,-0.146 12.565,-1.413 17.407,-3.767 1.188,-0.576 2.118,-1.107 2.868,-1.536 1.883,-1.077 2.607,-1.489 6.137,-1.7 l 1.982,0 c 3.529,0.211 4.25,0.623 6.138,1.7 0.748,0.429 1.678,0.96 2.867,1.536 4.842,2.354 10.698,3.621 17.405,3.767 9.944,0.224 18.955,-2.522 27.718,-5.16 8.116,-2.444 15.782,-4.751 23.775,-4.751 1.425,0 2.842,0.075 4.222,0.225 0.666,0.258 2.286,0.946 4.393,2.271 1.269,0.798 2.753,1.222 4.29,1.222 3.684,0 7.236,-2.475 8.635,-6.016 1.583,-4.001 0.112,-8.332 -3.845,-11.299 -4.184,-3.146 -9.705,-3.55 -14.046,-3.55 -3.151,0 -6.462,0.25 -9.969,0.514 -3.614,0.272 -7.348,0.553 -10.978,0.553 -13.617,0 -30.411,-1.699 -37.232,-5.496 -9.441,-5.255 -21.75,-5.314 -22.271,-5.314"
       style="fill:#330400;fill-opacity:1;fill-rule:nonzero;stroke:none"
       id="path82"
       inkscape:connector-curvature="0" /><path
       transform="matrix(1.25,0,0,-1.25,635.41875,957.36088)"
       d="m 1.8181818,0.2181818 c 6.489,0.369 6.932,1.716 11.1310002,3.755 4.617,2.242 10.059,3.136 15.24,3.249 19.562,0.417 36.676,-12.0809999 56.797,-9.5819999 0,0 2.435,0.735 5.948,2.9469999 3.521,2.21 9.468998,-4.4209999 3.245,-9.0899999 -6.216,-4.6709999 -19.201,-1.474 -31.911,-1.474 -12.713,0 -31.374,-1.4779999 -39.76,-6.1449999 -8.383,-4.666 -19.7430002,-4.666 -19.7430002,-4.666 l -4.186,0 c 0,0 -11.3579998,0 -19.7419998,4.666 -8.385,4.667 -27.05,6.1449999 -39.761,6.1449999 -12.714,0 -25.695,-3.1969999 -31.918,1.474 -6.215,4.669 -0.267,11.2999999 3.246,9.0899999 3.519,-2.2119999 5.955,-2.9469999 5.955,-2.9469999 20.117,-2.499 37.236,9.9989999 56.797,9.5819999 5.179,-0.113 10.624,-1.007 15.239,-3.249 4.2009998,-2.039 4.6409998,-3.386 11.13199982,-3.755 l 2.29099998,0 z"
       style="fill:#82301d;fill-opacity:1;fill-rule:nonzero;stroke:none"
       id="path86"
       inkscape:connector-curvature="0" /><path
       transform="matrix(1.25,0,0,-1.25,760.62625,988.125)"
       d="m 0,0 c -0.822,0 -1.642,0.336 -2.233,0.996 -1.107,1.233 -1.005,3.13 0.228,4.236 17.098,15.344 1.837,34.562 1.179,35.372 -1.043,1.286 -0.851,3.174 0.431,4.219 1.283,1.045 3.167,0.859 4.216,-0.424 C 10.675,36.023 19.114,16.124 2.003,0.768 1.43,0.253 0.714,0 0,0"
       style="fill:#421404;fill-opacity:1;fill-rule:nonzero;stroke:none"
       id="path114"
       inkscape:connector-curvature="0" /><path
       transform="matrix(1.25,0,0,-1.25,508.2165,988.125)"
       d="m 0,0 c -0.714,0 -1.43,0.253 -2.003,0.768 -17.111,15.356 -8.671,35.255 -1.818,43.631 1.048,1.285 2.939,1.473 4.222,0.423 C 1.682,43.773 1.872,41.887 0.826,40.604 0.167,39.792 -15.091,20.575 2.005,5.232 3.238,4.126 3.34,2.229 2.234,0.996 1.641,0.336 0.822,0 0,0"
       style="fill:#421404;fill-opacity:1;fill-rule:nonzero;stroke:none"
       id="path118"
       inkscape:connector-curvature="0" /></g><g
     inkscape:groupmode="layer"
     id="layer2"
     inkscape:label="Lips 2"
     style="display:inline"><ellipse
       style="fill:url(#radialGradient4401);fill-opacity:1"
       id="path4383"
       cx="634.60693"
       cy="1012.5"
       rx="77.272728"
       ry="62.500004" /></g></svg>