<?xml version="1.0" encoding="UTF-8" standalone="no"?>
<!-- Created with Inkscape (http://www.inkscape.org/) -->

<svg
   xmlns:dc="http://purl.org/dc/elements/1.1/"
   xmlns:cc="http://creativecommons.org/ns#"
   xmlns:rdf="http://www.w3.org/1999/02/22-rdf-syntax-ns#"
   xmlns:svg="http://www.w3.org/2000/svg"
   xmlns="http://www.w3.org/2000/svg"
   xmlns:sodipodi="http://sodipodi.sourceforge.net/DTD/sodipodi-0.dtd"
   xmlns:inkscape="http://www.inkscape.org/namespaces/inkscape"
   id="svg2"
   version="1.1"
   inkscape:version="0.91 r13725"
   xml:space="preserve"
   width="1250"
   height="1250"
   viewBox="0 0 1250 1250"
   sodipodi:docname="thumbs_up.ai.svg"
   inkscape:export-filename="/Users/antenehs/Pictures/Emojis/Final V1/thumbs-up-face.png"
   inkscape:export-xdpi="90"
   inkscape:export-ydpi="90"><metadata
     id="metadata8"><rdf:RDF><cc:Work
         rdf:about=""><dc:format>image/svg+xml</dc:format><dc:type
           rdf:resource="http://purl.org/dc/dcmitype/StillImage" /><dc:title></dc:title></cc:Work></rdf:RDF></metadata><defs
     id="defs6"><clipPath
       clipPathUnits="userSpaceOnUse"
       id="clipPath16"><path
         d="m 0,1000 1000,0 L 1000,0 0,0 0,1000 Z"
         id="path18"
         inkscape:connector-curvature="0" /></clipPath><clipPath
       clipPathUnits="userSpaceOnUse"
       id="clipPath28"><path
         d="m 520.291,775.461 c -196.453,0 -241.158,-135.409 -239.869,-278.556 l 0,0 c 1.386,-153.837 86.024,-278.554 239.869,-278.554 l 0,0 3.606,0 c 153.84,0 238.479,124.717 239.866,278.554 l 0,0 c 1.291,143.147 -43.416,278.556 -239.866,278.556 l 0,0 -3.606,0 z"
         id="path30"
         inkscape:connector-curvature="0" /></clipPath><radialGradient
       fx="0"
       fy="0"
       cx="0"
       cy="0"
       r="1"
       gradientUnits="userSpaceOnUse"
       gradientTransform="matrix(275.26733,0,0,-306.2514,522.09277,496.90625)"
       spreadMethod="pad"
       id="radialGradient36"><stop
         style="stop-opacity:1;stop-color:#f77b28"
         offset="0"
         id="stop38" /><stop
         style="stop-opacity:1;stop-color:#f77b28"
         offset="0.422272"
         id="stop40" /><stop
         style="stop-opacity:1;stop-color:#f77b28"
         offset="0.72506948"
         id="stop42" /><stop
         style="stop-opacity:1;stop-color:#630c05"
         offset="1"
         id="stop44" /></radialGradient><clipPath
       clipPathUnits="userSpaceOnUse"
       id="clipPath52"><path
         d="m 0,1000 1000,0 L 1000,0 0,0 0,1000 Z"
         id="path54"
         inkscape:connector-curvature="0" /></clipPath><clipPath
       clipPathUnits="userSpaceOnUse"
       id="clipPath128"><path
         d="m 323.399,439.147 c -6.352,-19.054 -12.068,-49.329 -23.29,-67.962 l 0,0 c -11.221,-18.631 -30.699,-45.942 -45.73,-57.163 l 0,0 C 239.347,302.8 216.271,285.654 208.436,275.913 l 0,0 c -7.833,-9.739 -29.852,-42.131 -30.416,-74.595 l 0,0 c -0.565,-32.463 -3.106,-88.921 8.468,-100.21 l 0,0 c 11.574,-11.293 20.889,-30.207 64.927,-30.773 l 0,0 c 44.037,-0.563 68.596,-3.102 88.074,-1.409 l 0,0 c 19.478,1.694 45.731,8.469 48.836,31.335 l 0,0 c 0,0 -10.515,0.669 -16.02,5.75 l 0,0 c 0,0 22.971,2.434 29.535,11.009 l 0,0 c 6.562,8.575 9.914,22.373 5.539,27.701 l 0,0 c 0,0 -12.42,0.844 -16.795,3.527 l 0,0 c 0,0 19.054,4.519 23.429,10.022 l 0,0 c 4.374,5.503 16.09,29.216 7.904,37.685 l 0,0 c 0,0 -10.303,1.13 -15.526,0.988 l 0,0 c 0,0 16.232,7.199 19.477,16.092 l 0,0 c 3.248,8.891 5.716,28.156 -7.199,45.942 l 0,0 c -12.066,13.125 -23.499,21.806 -48.057,25.617 l 0,0 c -24.56,3.81 -36.84,4.658 -56.952,6.564 l 0,0 c -20.113,1.905 -33.027,3.598 -33.027,3.598 l 0,0 c 0,0 40.649,1.694 46.788,10.375 l 0,0 c 6.14,8.68 22.865,25.195 33.451,56.527 l 0,0 c 10.586,31.336 12.281,74.737 -10.586,85.746 l 0,0 c -1.924,1.069 -7.141,3.811 -12.653,3.811 l 0,0 c -5.404,0 -11.09,-2.635 -14.234,-12.068"
         id="path130"
         inkscape:connector-curvature="0" /></clipPath><radialGradient
       fx="0"
       fy="0"
       cx="0"
       cy="0"
       r="1"
       gradientUnits="userSpaceOnUse"
       gradientTransform="matrix(136.2874,0,0,-236.12201,312.95264,219.68164)"
       spreadMethod="pad"
       id="radialGradient136"><stop
         style="stop-opacity:1;stop-color:#f77b28"
         offset="0"
         id="stop138" /><stop
         style="stop-opacity:1;stop-color:#f77b28"
         offset="0.422272"
         id="stop140" /><stop
         style="stop-opacity:1;stop-color:#f77b28"
         offset="0.72506948"
         id="stop142" /><stop
         style="stop-opacity:1;stop-color:#630c05"
         offset="1"
         id="stop144" /></radialGradient></defs><sodipodi:namedview
     pagecolor="#ffffff"
     bordercolor="#666666"
     borderopacity="1"
     objecttolerance="10"
     gridtolerance="10"
     guidetolerance="10"
     inkscape:pageopacity="0"
     inkscape:pageshadow="2"
     inkscape:window-width="1287"
     inkscape:window-height="746"
     id="namedview4"
     showgrid="false"
     inkscape:zoom="0.4352"
     inkscape:cx="625"
     inkscape:cy="625"
     inkscape:window-x="0"
     inkscape:window-y="0"
     inkscape:window-maximized="0"
     inkscape:current-layer="layer1" /><g
     id="g10"
     inkscape:groupmode="layer"
     inkscape:label="thumbs_up"
     transform="matrix(1.25,0,0,-1.25,0,1250)"
     style="display:inline"><g
       id="g4295"
       transform="matrix(0.98850029,-0.15121895,0.15121895,0.98850029,-79.76591,85.472832)"
       style="opacity:0.76999996"><g
         id="g12"><g
           clip-path="url(#clipPath16)"
           id="g14"><g
             transform="translate(523.3838,916.0283)"
             id="g20"><path
               inkscape:connector-curvature="0"
               id="path22"
               style="fill:#0a0205;fill-opacity:1;fill-rule:nonzero;stroke:none"
               d="m 0,0 0.514,0 c 231.476,0 380.432,-177.966 367.537,-419.123 0,0 -15.476,-201.61 -196.02,-203.329 0,0 -67.919,-73.94 -170.227,-70.929 l -6.188,0 c -102.309,-3.011 -170.228,70.929 -170.228,70.929 -180.545,1.719 -196.021,203.329 -196.021,203.329 C -383.529,-177.966 -234.571,0 -3.093,0 L -2.579,0 0,0 Z" /></g></g></g><g
         id="g24"><g
           clip-path="url(#clipPath28)"
           id="g26"><g
             id="g32"><g
               id="g34"><path
                 inkscape:connector-curvature="0"
                 id="path46"
                 style="fill:url(#radialGradient36);stroke:none"
                 d="m 520.291,775.461 c -196.453,0 -241.158,-135.409 -239.869,-278.556 l 0,0 c 1.386,-153.837 86.024,-278.554 239.869,-278.554 l 0,0 3.606,0 c 153.84,0 238.479,124.717 239.866,278.554 l 0,0 c 1.291,143.147 -43.416,278.556 -239.866,278.556 l 0,0 -3.606,0 z" /></g></g></g></g><g
         id="g48"><g
           clip-path="url(#clipPath52)"
           id="g50"><g
             transform="translate(563.0176,603.9429)"
             id="g56"><path
               inkscape:connector-curvature="0"
               id="path58"
               style="fill:#330400;fill-opacity:1;fill-rule:nonzero;stroke:none"
               d="m 0,0 c 0,0 52.443,61.041 122.081,34.39 0,0 40.408,-17.195 61.041,-55.024 C 203.755,-58.463 121.222,57.603 0,0" /></g><g
             transform="translate(754.2871,509.813)"
             id="g60"><path
               inkscape:connector-curvature="0"
               id="path62"
               style="fill:#0a0205;fill-opacity:1;fill-rule:nonzero;stroke:none"
               d="m 0,0 c -23.049,-23.043 -115.811,-106.957 -193.286,-30.631 0,0 -13.468,12.513 -13.821,19.082 -0.35,6.569 5.696,23.65 5.696,23.65 0,0 28.029,70.073 103.309,55.614 0,0 33.047,-2.056 97.451,-56.974 0,0 6.402,-4.991 0.651,-10.741" /></g><g
             transform="translate(742.7061,510.7725)"
             id="g64"><path
               inkscape:connector-curvature="0"
               id="path66"
               style="fill:#efe8d3;fill-opacity:1;fill-rule:nonzero;stroke:none"
               d="m 0,0 c -19.474,-19.48 -101.876,-95.223 -170.648,-27.468 0,0 -11.855,11.016 -12.166,16.798 -0.309,5.783 5.01,20.821 5.01,20.821 0,0 24.675,61.686 90.946,48.956 0,0 28.787,-1.79 84.893,-49.391 0,0 6.508,-5.171 1.965,-9.716" /></g><g
             transform="translate(701.8525,513.6382)"
             id="g68"><path
               inkscape:connector-curvature="0"
               id="path70"
               style="fill:#070409;fill-opacity:1;fill-rule:nonzero;stroke:none"
               d="m 0,0 c 0,22.65 -12.741,42.315 -31.44,52.245 -9.665,3.685 -14.565,3.997 -14.565,3.997 -10.149,1.949 -19.321,2.147 -27.584,1.094 C -99.249,50.883 -118.25,27.664 -118.25,0 c 0,-28.409 20.039,-52.13 46.753,-57.82 15.328,-0.843 30.302,2.493 44.142,7.965 C -10.914,-39.354 0,-20.958 0,0" /></g><g
             transform="translate(482.9136,603.9429)"
             id="g72"><path
               inkscape:connector-curvature="0"
               id="path74"
               style="fill:#330400;fill-opacity:1;fill-rule:nonzero;stroke:none"
               d="m 0,0 c 0,0 -52.443,61.041 -122.082,34.39 0,0 -40.409,-17.195 -61.043,-55.024 C -203.758,-58.463 -121.223,57.603 0,0" /></g><g
             transform="translate(291.6406,509.813)"
             id="g76"><path
               inkscape:connector-curvature="0"
               id="path78"
               style="fill:#0a0205;fill-opacity:1;fill-rule:nonzero;stroke:none"
               d="m 0,0 c 23.049,-23.043 115.813,-106.957 193.289,-30.631 0,0 13.467,12.513 13.816,19.082 0.354,6.569 -5.691,23.65 -5.691,23.65 0,0 -28.029,70.073 -103.31,55.614 0,0 -33.049,-2.056 -97.451,-56.974 C 0.653,10.741 -5.75,5.75 0,0" /></g><g
             transform="translate(303.2222,510.7725)"
             id="g80"><path
               inkscape:connector-curvature="0"
               id="path82"
               style="fill:#efe8d3;fill-opacity:1;fill-rule:nonzero;stroke:none"
               d="m 0,0 c 19.475,-19.48 101.874,-95.223 170.649,-27.468 0,0 11.856,11.016 12.166,16.798 0.31,5.783 -5.013,20.821 -5.013,20.821 0,0 -24.673,61.686 -90.945,48.956 0,0 -28.784,-1.79 -84.892,-49.391 C 1.965,9.716 -4.544,4.545 0,0" /></g><g
             transform="translate(344.0767,513.6382)"
             id="g84"><path
               inkscape:connector-curvature="0"
               id="path86"
               style="fill:#070409;fill-opacity:1;fill-rule:nonzero;stroke:none"
               d="m 0,0 c 0,22.65 12.74,42.315 31.442,52.245 9.664,3.685 14.561,3.997 14.561,3.997 10.153,1.949 19.324,2.147 27.585,1.094 C 99.25,50.883 118.249,27.664 118.249,0 c 0,-28.409 -20.04,-52.13 -46.751,-57.82 -15.332,-0.843 -30.304,2.493 -44.142,7.965 C 10.914,-39.354 0,-20.958 0,0" /></g><g
             transform="translate(528.1289,304.375)"
             id="g88"><path
               inkscape:connector-curvature="0"
               id="path90"
               style="fill:#421404;fill-opacity:1;fill-rule:nonzero;stroke:none"
               d="m 0,0 c 0.611,-0.006 1.176,-0.01 1.735,-0.01 29.334,0.002 36.918,8.035 40.468,15.896 2.487,5.505 6.011,10.329 8.887,13.753 -4,0.642 -9.219,1.288 -14.06,1.288 -1.729,0 -3.313,-0.083 -4.712,-0.248 C 27.647,30.13 20.464,28.27 13.515,26.469 5.101,24.29 -2.85,22.231 -7.264,22.231 c -0.445,0 -0.859,0.021 -1.232,0.059 -6.445,0.643 -26.6,5.929 -28.811,6.512 -4.825,0.822 -9.835,1.24 -14.89,1.24 -3.945,0 -7.386,-0.252 -10.116,-0.562 2.855,-3.411 6.31,-8.172 8.758,-13.594 3.549,-7.861 11.136,-15.896 40.468,-15.896 0.558,0 1.126,0.004 1.696,0.01 L 0,0 Z m 1.735,-7.746 c -0.587,0 -1.173,0.003 -1.775,0.009 l -11.312,0 c -0.557,-0.006 -1.148,-0.009 -1.735,-0.009 -26.833,0 -41.045,6.115 -47.52,20.446 -4.146,9.182 -11.995,16.521 -12.073,16.593 l -5.257,4.872 6.955,1.724 c 0.312,0.074 7.775,1.891 18.785,1.891 5.551,0 11.059,-0.467 16.371,-1.382 l 0.333,-0.071 c 6.014,-1.594 22.731,-5.835 27.767,-6.339 0.14,-0.014 0.293,-0.018 0.462,-0.018 3.43,0 11.264,2.028 18.839,3.991 7.2,1.863 14.646,3.792 19.84,4.402 1.696,0.2 3.586,0.301 5.615,0.301 10.501,0 22.058,-2.651 22.545,-2.764 l 7.124,-1.65 -5.372,-4.961 C 61.251,29.221 53.4,21.882 49.257,12.702 42.78,-1.631 28.57,-7.746 1.735,-7.746" /></g><g
             transform="translate(586.8301,336.5068)"
             id="g92"><path
               inkscape:connector-curvature="0"
               id="path94"
               style="fill:#82301d;fill-opacity:1;fill-rule:nonzero;stroke:none"
               d="M 0,0 C 0,0 -8.431,-7.784 -12.97,-17.838 -17.513,-27.89 -27.242,-36.325 -58.701,-36 l -11.352,0 c -31.458,-0.325 -41.188,8.11 -45.729,18.162 C -120.324,-7.784 -128.754,0 -128.754,0 c 0,0 14.871,3.68 33.569,0.456 0,0 21.925,-5.805 28.373,-6.45 6.448,-0.643 29.016,7.095 39.977,8.383 C -15.873,3.68 0,0 0,0" /></g><g
             transform="translate(595.4854,341.5332)"
             id="g96"><path
               inkscape:connector-curvature="0"
               id="path98"
               style="fill:#421404;fill-opacity:1;fill-rule:nonzero;stroke:none"
               d="m 0,0 c -2.199,-1.372 -3.802,-1.994 -4.278,-2.167 1.631,0.198 2.797,0.598 3.533,1.205 C -0.491,-0.754 -0.096,-0.377 0,0 m -146.064,0 c 0.096,-0.377 0.491,-0.754 0.743,-0.962 0.736,-0.607 1.904,-1.007 3.542,-1.205 -0.479,0.171 -2.081,0.795 -4.285,2.167 m 23.793,-1.374 c 4.017,0 24.523,-0.289 33.805,-5.978 5.616,-3.439 13.682,-3.535 13.763,-3.535 l 3.338,0 c 0.081,0 8.112,0.071 13.768,3.535 9.284,5.689 29.79,5.978 33.807,5.978 1.256,0 2.498,-0.039 3.727,-0.102 -3.887,0.88 -7.648,2.127 -11.337,3.351 -6.683,2.214 -12.96,4.308 -19.542,4.149 -4.079,-0.097 -7.695,-0.929 -10.451,-2.401 -0.734,-0.394 -1.306,-0.756 -1.82,-1.078 -2.346,-1.476 -4.099,-2.392 -8.66,-2.677 l -0.241,-0.008 -2.074,0.008 c -4.561,0.285 -6.316,1.201 -8.659,2.677 -0.516,0.322 -1.089,0.684 -1.821,1.078 -2.758,1.472 -6.373,2.304 -10.454,2.401 -6.488,0.157 -12.855,-1.935 -19.537,-4.149 -3.694,-1.224 -7.451,-2.471 -11.343,-3.351 1.232,0.063 2.476,0.102 3.731,0.102 m 50.915,-17.251 -3.347,0 c -0.417,0 -10.261,0.055 -17.807,4.677 -5.453,3.342 -18.875,4.837 -29.761,4.837 -2.905,0 -5.89,-0.248 -8.779,-0.488 -2.803,-0.231 -5.45,-0.452 -7.969,-0.452 -3.468,0 -7.881,0.355 -11.231,3.124 -3.161,2.613 -4.337,6.421 -3.07,9.945 1.121,3.115 3.959,5.292 6.899,5.292 1.232,0 2.418,-0.372 3.433,-1.074 1.675,-1.16 2.965,-1.765 3.516,-1.998 1.103,-0.134 2.235,-0.2 3.373,-0.2 6.387,0 12.516,2.031 19.006,4.181 7.005,2.323 14.281,4.722 22.155,4.542 5.363,-0.13 10.045,-1.245 13.917,-3.316 0.95,-0.506 1.693,-0.974 2.292,-1.35 1.507,-0.949 2.085,-1.312 4.906,-1.497 l 1.584,0 c 2.822,0.185 3.398,0.548 4.907,1.497 0.598,0.376 1.343,0.844 2.291,1.35 3.874,2.071 8.554,3.186 13.915,3.316 7.95,0.197 15.153,-2.219 22.158,-4.542 6.488,-2.15 12.616,-4.181 19.006,-4.181 1.138,0 2.273,0.066 3.375,0.2 0.533,0.225 1.825,0.83 3.511,1.998 1.015,0.702 2.202,1.074 3.432,1.074 2.943,0 5.784,-2.177 6.901,-5.292 1.267,-3.524 0.09,-7.332 -3.073,-9.945 -3.345,-2.767 -7.757,-3.124 -11.229,-3.124 -2.518,0 -5.165,0.221 -7.969,0.452 -2.89,0.242 -5.875,0.488 -8.776,0.488 -10.887,0 -24.31,-1.495 -29.763,-4.837 -7.546,-4.622 -17.387,-4.677 -17.803,-4.677" /></g><g
             transform="translate(523.3711,345.2627)"
             id="g100"><path
               inkscape:connector-curvature="0"
               id="path102"
               style="fill:#82301d;fill-opacity:1;fill-rule:nonzero;stroke:none"
               d="m 0,0 c 5.188,0.324 5.54,1.511 8.898,3.305 3.691,1.972 8.042,2.759 12.184,2.857 15.636,0.368 29.319,-10.629 45.403,-8.431 0,0 1.946,0.647 4.755,2.593 2.814,1.947 7.57,-3.889 2.596,-7.998 -4.97,-4.11 -15.351,-1.299 -25.512,-1.299 -10.162,0 -25.082,-1.298 -31.783,-5.406 -6.703,-4.106 -15.783,-4.106 -15.783,-4.106 l -3.347,0 c 0,0 -9.08,0 -15.784,4.106 -6.702,4.108 -21.623,5.406 -31.784,5.406 -10.163,0 -20.541,-2.811 -25.515,1.299 -4.97,4.109 -0.215,9.945 2.594,7.998 2.814,-1.946 4.761,-2.593 4.761,-2.593 16.082,-2.198 29.766,8.799 45.403,8.431 4.142,-0.098 8.493,-0.885 12.184,-2.857 C -7.372,1.511 -7.02,0.324 -1.832,0 L 0,0 Z" /></g><g
             transform="translate(524.5342,364.7793)"
             id="g104"><path
               inkscape:connector-curvature="0"
               id="path106"
               style="fill:#361100;fill-opacity:1;fill-rule:nonzero;stroke:none"
               d="m 0,0 c -16.602,0 -29.165,11.88 -29.354,12.061 -0.655,0.632 -0.926,1.562 -0.717,2.449 5.685,24.003 9.569,89.175 9.609,89.828 3.719,127.792 -30.542,137.817 -30.889,137.903 -1.363,0.34 -2.227,1.716 -1.912,3.086 0.313,1.371 1.641,2.246 3.021,1.952 1.586,-0.334 38.818,-9.716 34.93,-143.168 -0.158,-2.714 -3.801,-63.85 -9.396,-89.291 4.929,-4.189 25.801,-19.567 47.17,-0.048 -5.688,24.155 -6.845,33.156 -9.397,89.297 -3.887,133.494 33.343,142.876 34.931,143.21 1.388,0.291 2.762,-0.598 3.056,-1.992 0.293,-1.394 -0.6,-2.763 -1.992,-3.056 C 48.758,242.155 14.495,232.13 18.219,104.263 20.802,47.499 21.936,39.372 27.823,14.51 28.033,13.623 27.761,12.693 27.107,12.061 17.759,3.016 8.368,0 0,0" /></g><g
             transform="translate(545.9492,281.7031)"
             id="g108"><path
               inkscape:connector-curvature="0"
               id="path110"
               style="fill:#330400;fill-opacity:1;fill-rule:nonzero;stroke:none"
               d="m 0,0 c -0.168,0.668 -0.585,1.23 -1.176,1.584 -7.435,4.462 -15.562,6.725 -24.158,6.725 -14.425,0 -25.325,-6.451 -25.781,-6.725 -0.592,-0.354 -1.01,-0.916 -1.176,-1.586 -0.169,-0.668 -0.064,-1.359 0.29,-1.95 0.463,-0.773 1.311,-1.253 2.214,-1.253 0.466,0 0.925,0.127 1.32,0.364 0.408,0.241 10.195,5.911 23.227,5.911 7.674,0 14.878,-1.988 21.409,-5.909 1.174,-0.703 2.837,-0.287 3.54,0.885 C 0.063,-1.361 0.167,-0.67 0,0" /></g><g
             transform="translate(196.6812,91.3691)"
             id="g112" /><g
             transform="translate(193.0205,101.7002)"
             id="g116" /><g
             transform="translate(283.1724,56.7871)"
             id="g120" /></g></g></g></g><g
     inkscape:groupmode="layer"
     id="layer1"
     inkscape:label="Hand"
     style="display:inline"><g
       id="g4285"
       transform="matrix(1.3464109,0,0,1.2631271,-69.009158,-387.34203)"
       inkscape:export-filename="/Users/antenehs/Pictures/Emojis/Final V1/thumbs-up.png"
       inkscape:export-xdpi="90"
       inkscape:export-ydpi="90"><g
         id="g124"
         transform="matrix(1.25,0,0,-1.25,0,1250)"><g
           clip-path="url(#clipPath128)"
           id="g126"><g
             id="g132"><g
               id="g134" /></g></g></g><path
         inkscape:connector-curvature="0"
         id="path114"
         style="fill:#000000;fill-opacity:1;fill-rule:nonzero;stroke:none"
         d="M 0,0 C 0,0 -11.806,-31.402 -40.754,-24.878 -69.7,-18.352 -75.449,1.709 -81.64,40.4 c -6.393,39.958 -2.131,74.057 7.459,103.892 19.641,61.105 76.086,82.059 83.703,18.437 C 17.14,99.104 4.952,15.499 0,0"
         transform="matrix(1.25,0,0,-1.25,245.8515,1135.7886)" /><path
         inkscape:connector-curvature="0"
         id="path118"
         style="fill:#a20d0d;fill-opacity:1;fill-rule:nonzero;stroke:none"
         d="m 0,0 c 0,0 -9.81,-27.711 -33.863,-21.954 -24.053,5.761 -28.83,23.461 -33.974,57.6 -5.312,35.26 -1.77,65.347 6.198,91.674 16.321,53.919 63.222,72.409 69.552,16.269 C 14.243,87.447 4.115,13.674 0,0"
         transform="matrix(1.25,0,0,-1.25,241.27562,1122.8748)" /><path
         inkscape:connector-curvature="0"
         id="path122"
         style="fill:#000000;fill-opacity:1;fill-rule:nonzero;stroke:none"
         d="m 0,0 c 0,0 56.599,-2.542 73.818,2.258 17.22,4.799 39.803,18.633 38.956,44.037 0,0 22.866,9.032 21.736,44.885 0,0 19.759,21.736 12.984,51.092 0,0 10.163,18.915 5.928,42.911 -4.234,23.993 -33.308,42.058 -51.092,46.857 -17.785,4.801 -44.602,15.244 -44.602,15.244 0,0 28.229,35.851 34.439,74.809 6.21,38.955 -3.669,76.216 -29.922,81.015 C 35.992,407.907 30.064,382.22 25.83,363.022 21.595,343.828 4.375,306.281 -11.151,291.039 -26.677,275.795 -59.139,245.591 -74.948,230.064 -90.756,214.539 -115.315,186.027 -116.163,157.518 -117.009,129.005 -127.454,73.253 -105.858,41.919 -84.263,10.587 -75.456,4.216 -48.131,1.13 -23.147,-1.694 0,0 0,0"
         transform="matrix(1.25,0,0,-1.25,353.9655,1179.0161)" /><path
         inkscape:connector-curvature="0"
         id="path146"
         style="fill:url(#radialGradient136);stroke:none"
         d="m 323.399,439.147 c -6.352,-19.054 -12.068,-49.329 -23.29,-67.962 l 0,0 c -11.221,-18.631 -30.699,-45.942 -45.73,-57.163 l 0,0 C 239.347,302.8 216.271,285.654 208.436,275.913 l 0,0 c -7.833,-9.739 -29.852,-42.131 -30.416,-74.595 l 0,0 c -0.565,-32.463 -3.106,-88.921 8.468,-100.21 l 0,0 c 11.574,-11.293 20.889,-30.207 64.927,-30.773 l 0,0 c 44.037,-0.563 68.596,-3.102 88.074,-1.409 l 0,0 c 19.478,1.694 45.731,8.469 48.836,31.335 l 0,0 c 0,0 -10.515,0.669 -16.02,5.75 l 0,0 c 0,0 22.971,2.434 29.535,11.009 l 0,0 c 6.562,8.575 9.914,22.373 5.539,27.701 l 0,0 c 0,0 -12.42,0.844 -16.795,3.527 l 0,0 c 0,0 19.054,4.519 23.429,10.022 l 0,0 c 4.374,5.503 16.09,29.216 7.904,37.685 l 0,0 c 0,0 -10.303,1.13 -15.526,0.988 l 0,0 c 0,0 16.232,7.199 19.477,16.092 l 0,0 c 3.248,8.891 5.716,28.156 -7.199,45.942 l 0,0 c -12.066,13.125 -23.499,21.806 -48.057,25.617 l 0,0 c -24.56,3.81 -36.84,4.658 -56.952,6.564 l 0,0 c -20.113,1.905 -33.027,3.598 -33.027,3.598 l 0,0 c 0,0 40.649,1.694 46.788,10.375 l 0,0 c 6.14,8.68 22.865,25.195 33.451,56.527 l 0,0 c 10.586,31.336 12.281,74.737 -10.586,85.746 l 0,0 c -1.924,1.069 -7.141,3.811 -12.653,3.811 l 0,0 c -5.404,0 -11.09,-2.635 -14.234,-12.068"
         transform="matrix(1.25,0,0,-1.25,0,1250)" /></g></g></svg>