<?xml version="1.0" encoding="UTF-8" standalone="no"?>
<!-- Created with Inkscape (http://www.inkscape.org/) -->

<svg
   xmlns:dc="http://purl.org/dc/elements/1.1/"
   xmlns:cc="http://creativecommons.org/ns#"
   xmlns:rdf="http://www.w3.org/1999/02/22-rdf-syntax-ns#"
   xmlns:svg="http://www.w3.org/2000/svg"
   xmlns="http://www.w3.org/2000/svg"
   xmlns:sodipodi="http://sodipodi.sourceforge.net/DTD/sodipodi-0.dtd"
   xmlns:inkscape="http://www.inkscape.org/namespaces/inkscape"
   id="svg2"
   version="1.1"
   inkscape:version="0.91 r13725"
   xml:space="preserve"
   width="1250"
   height="1250"
   viewBox="0 0 1250 1250"
   sodipodi:docname="thumbs_down.ai.svg"
   inkscape:export-filename="/Users/antenehs/Pictures/Emojis/Final V1/Final-thumbs-down.png"
   inkscape:export-xdpi="90"
   inkscape:export-ydpi="90"><metadata
     id="metadata8"><rdf:RDF><cc:Work
         rdf:about=""><dc:format>image/svg+xml</dc:format><dc:type
           rdf:resource="http://purl.org/dc/dcmitype/StillImage" /><dc:title></dc:title></cc:Work></rdf:RDF></metadata><defs
     id="defs6"><clipPath
       clipPathUnits="userSpaceOnUse"
       id="clipPath16"><path
         d="m 0,1000 1000,0 L 1000,0 0,0 0,1000 Z"
         id="path18"
         inkscape:connector-curvature="0" /></clipPath><clipPath
       clipPathUnits="userSpaceOnUse"
       id="clipPath28"><path
         d="m 537.707,778.975 c -184.364,0 -226.32,-127.078 -225.109,-261.417 l 0,0 c 1.299,-144.371 80.731,-261.416 225.109,-261.416 l 0,0 3.385,0 c 144.376,0 223.807,117.045 225.109,261.416 l 0,0 c 1.209,134.339 -40.745,261.417 -225.109,261.417 l 0,0 -3.385,0 z"
         id="path30"
         inkscape:connector-curvature="0" /></clipPath><radialGradient
       fx="0"
       fy="0"
       cx="0"
       cy="0"
       r="1"
       gradientUnits="userSpaceOnUse"
       gradientTransform="matrix(258.33136,0,0,-287.40912,539.39844,517.55859)"
       spreadMethod="pad"
       id="radialGradient36"><stop
         style="stop-opacity:1;stop-color:#f77b28"
         offset="0"
         id="stop38" /><stop
         style="stop-opacity:1;stop-color:#f77b28"
         offset="0.422272"
         id="stop40" /><stop
         style="stop-opacity:1;stop-color:#f77b28"
         offset="0.72506948"
         id="stop42" /><stop
         style="stop-opacity:1;stop-color:#630c05"
         offset="1"
         id="stop44" /></radialGradient><clipPath
       clipPathUnits="userSpaceOnUse"
       id="clipPath52"><path
         d="m 0,1000 1000,0 L 1000,0 0,0 0,1000 Z"
         id="path54"
         inkscape:connector-curvature="0" /></clipPath><clipPath
       clipPathUnits="userSpaceOnUse"
       id="clipPath128"><path
         d="m 235.679,427.08 c -43.644,-21.057 -31.777,-76.186 -31.777,-76.186 l 0,0 c 8.088,8.948 19.334,10.718 19.334,10.718 l 0,0 c 35.223,3.829 46.901,-13.782 46.901,-13.782 l 0,0 c -27.407,14.794 -43.598,8.079 -51.833,1.364 l 0,0 c -4.764,-3.886 -6.865,-7.771 -6.935,-7.49 l 0,0 c -16.654,-27.948 -9.209,-44.519 -2.202,-63.936 l 0,0 c 10.05,-27.852 56.854,-54.557 70.35,-63.744 l 0,0 c 6.206,-4.226 31.584,-27.95 44.793,-44.987 l 0,0 c 13.209,-17.036 18.378,-38.859 21.057,-45.941 l 0,0 c 2.68,-7.084 6.126,-29.672 18.951,-33.31 l 0,0 c 12.826,-3.636 31.012,-0.764 35.414,26.418 l 0,0 c 4.404,27.183 -4.211,46.326 -15.314,66.999 l 0,0 c -11.102,20.675 -38.859,52.642 -38.859,52.642 l 0,0 c 14.644,-3.157 33.786,-2.967 41.634,-0.86 l 0,0 c 13.209,0.382 37.808,10.049 45.464,12.729 l 0,0 c 16.847,3.829 58.195,42.688 18.57,64.51 l 0,0 c -30.544,16.822 -52.977,10.194 -61.88,9.764 l 0,0 c -26.703,-2.01 -40.535,-12.443 -45.511,-26.799 l 0,0 c -3.838,-11.071 4.115,-23.259 14.166,-26.609 l 0,0 c 9.99,-3.331 47.522,-2.778 48.813,-2.967 l 0,0 c 0.267,-0.04 0.791,-0.025 1.454,-0.01 l 0,0 c 2.547,0.06 7.12,0.118 6.778,-2.958 l 0,0 c -0.431,-3.875 -3.829,-3.157 -3.829,-3.157 l 0,0 -22.11,0.286 c -2.967,-12.73 7.562,-18.663 7.562,-18.663 l 0,0 c -12.539,1.052 -14.07,18.663 -14.07,18.663 l 0,0 c -16.175,-1.626 -28.141,-0.192 -35.606,5.264 l 0,0 c -14.644,11.485 -13.244,24.191 -10.241,33.308 l 0,0 c 2.632,7.993 8.327,13.975 8.327,13.975 l 0,0 c -11.869,4.69 -14.262,13.974 -14.262,13.974 l 0,0 c 0.383,-3.637 -6.89,-14.835 -6.89,-14.835 l 0,0 c 0.765,6.221 0.885,12.035 0.526,14.189 l 0,0 c -0.359,2.153 -2.225,18.376 -8.686,28.497 l 0,0 c -6.461,10.123 -17.516,17.372 -17.516,17.372 l 0,0 c 11.988,-3.445 14.788,-9.187 20.172,-14.069 l 0,0 c 5.384,-4.88 7.968,-12.491 7.968,-12.491 l 0,0 c -0.215,2.084 1.747,7.37 1.747,7.37 l 0,0 c -3.733,0.768 -17.899,7.849 -16.654,20.675 l 0,0 c 1.243,12.825 14.166,19.811 14.166,19.811 l 0,0 c -4.403,1.341 -17.229,7.466 -15.124,21.059 l 0,0 c 2.107,13.591 14.74,19.334 14.74,19.334 l 0,0 c -14.122,2.586 -26.612,3.57 -37.458,3.57 l 0,0 c -30.91,-10e-4 -48.445,-7.996 -52.13,-9.697"
         id="path130"
         inkscape:connector-curvature="0" /></clipPath><radialGradient
       fx="0"
       fy="0"
       cx="0"
       cy="0"
       r="1"
       gradientUnits="userSpaceOnUse"
       gradientTransform="matrix(-121.35014,-60.659592,-89.46257,178.97083,323.43457,282.46973)"
       spreadMethod="pad"
       id="radialGradient136"><stop
         style="stop-opacity:1;stop-color:#f77b28"
         offset="0"
         id="stop138" /><stop
         style="stop-opacity:1;stop-color:#f77b28"
         offset="0.305939"
         id="stop140" /><stop
         style="stop-opacity:1;stop-color:#f77b28"
         offset="0.66970866"
         id="stop142" /><stop
         style="stop-opacity:1;stop-color:#630c05"
         offset="1"
         id="stop144" /></radialGradient><clipPath
       clipPathUnits="userSpaceOnUse"
       id="clipPath152"><path
         d="m 367.573,366.207 c -14.741,-3.254 -27.375,-7.465 -31.203,-22.78 l 0,0 c -3.828,-15.314 6.7,-21.056 12.635,-22.971 l 0,0 c 5.934,-1.914 11.294,1.533 20.673,4.212 l 0,0 c 9.38,2.68 31.394,4.787 49.771,3.445 l 0,0 c 18.378,-1.34 36.946,-11.868 36.946,-11.868 l 0,0 c 3.829,2.296 4.402,19.909 0,27.758 l 0,0 c -4.402,7.847 -8.614,15.887 -28.906,21.248 l 0,0 c -10.033,2.65 -21.188,3.709 -31.685,3.709 l 0,0 c -10.733,0 -20.779,-1.107 -28.231,-2.753"
         id="path154"
         inkscape:connector-curvature="0" /></clipPath><radialGradient
       fx="0"
       fy="0"
       cx="0"
       cy="0"
       r="1"
       gradientUnits="userSpaceOnUse"
       gradientTransform="matrix(-125.12195,-23.537781,-23.537781,125.12195,314.05566,350.88965)"
       spreadMethod="pad"
       id="radialGradient160"><stop
         style="stop-opacity:1;stop-color:#f77b28"
         offset="0"
         id="stop162" /><stop
         style="stop-opacity:1;stop-color:#f77b28"
         offset="0.422272"
         id="stop164" /><stop
         style="stop-opacity:1;stop-color:#f77b28"
         offset="0.72506948"
         id="stop166" /><stop
         style="stop-opacity:1;stop-color:#630c05"
         offset="1"
         id="stop168" /></radialGradient><clipPath
       clipPathUnits="userSpaceOnUse"
       id="clipPath176"><path
         d="m 370.444,403.344 c -23.163,-4.021 -35.605,-10.527 -44.028,-17.994 l 0,0 c -8.423,-7.465 -6.507,-19.525 -0.191,-23.545 l 0,0 c 6.317,-4.02 14.919,0.56 20.913,3.326 l 0,0 c 8.04,3.709 23.115,7.776 45.703,9.691 l 0,0 c 22.589,1.914 49.387,-8.806 49.387,-8.806 l 0,0 c 4.595,17.61 -10.144,28.906 -15.504,31.968 l 0,0 c -11.927,5.813 -23.485,7.429 -33.523,7.428 l 0,0 c -9.134,0 -17.011,-1.338 -22.757,-2.068"
         id="path178"
         inkscape:connector-curvature="0" /></clipPath><radialGradient
       fx="0"
       fy="0"
       cx="0"
       cy="0"
       r="1"
       gradientUnits="userSpaceOnUse"
       gradientTransform="matrix(-125.12259,-23.537903,-23.537903,125.1226,314.05566,350.88867)"
       spreadMethod="pad"
       id="radialGradient184"><stop
         style="stop-opacity:1;stop-color:#f77b28"
         offset="0"
         id="stop186" /><stop
         style="stop-opacity:1;stop-color:#f77b28"
         offset="0.422272"
         id="stop188" /><stop
         style="stop-opacity:1;stop-color:#f77b28"
         offset="0.72506948"
         id="stop190" /><stop
         style="stop-opacity:1;stop-color:#630c05"
         offset="1"
         id="stop192" /></radialGradient><clipPath
       clipPathUnits="userSpaceOnUse"
       id="clipPath200"><path
         d="m 341.156,435.313 c -13.113,-5.072 -22.732,-12.827 -21.632,-26.609 l 0,0 c 0.603,-7.548 7.228,-10.624 14.119,-9.907 l 0,0 c 6.688,0.697 11.533,3.973 16.892,6.27 l 0,0 c 5.36,2.297 23.546,6.317 31.969,7.083 l 0,0 c 12.252,2.49 39.816,-3.828 39.816,-3.828 l 0,0 c 0.576,6.699 -13.972,18.951 -20.864,22.78 l 0,0 c -12.739,7.483 -24.112,9.903 -33.799,9.902 l 0,0 c -11.311,0 -20.321,-3.301 -26.501,-5.691"
         id="path202"
         inkscape:connector-curvature="0" /></clipPath><radialGradient
       fx="0"
       fy="0"
       cx="0"
       cy="0"
       r="1"
       gradientUnits="userSpaceOnUse"
       gradientTransform="matrix(-125.1235,-23.538086,-23.538086,125.1235,314.05566,350.88867)"
       spreadMethod="pad"
       id="radialGradient208"><stop
         style="stop-opacity:1;stop-color:#f77b28"
         offset="0"
         id="stop210" /><stop
         style="stop-opacity:1;stop-color:#f77b28"
         offset="0.422272"
         id="stop212" /><stop
         style="stop-opacity:1;stop-color:#f77b28"
         offset="0.72506948"
         id="stop214" /><stop
         style="stop-opacity:1;stop-color:#630c05"
         offset="1"
         id="stop216" /></radialGradient></defs><sodipodi:namedview
     pagecolor="#ffffff"
     bordercolor="#666666"
     borderopacity="1"
     objecttolerance="10"
     gridtolerance="10"
     guidetolerance="10"
     inkscape:pageopacity="0"
     inkscape:pageshadow="2"
     inkscape:window-width="1280"
     inkscape:window-height="752"
     id="namedview4"
     showgrid="false"
     inkscape:zoom="0.44"
     inkscape:cx="625"
     inkscape:cy="625"
     inkscape:window-x="0"
     inkscape:window-y="0"
     inkscape:window-maximized="1"
     inkscape:current-layer="layer1" /><g
     id="g10"
     inkscape:groupmode="layer"
     inkscape:label="thumbs_down"
     transform="matrix(1.25,0,0,-1.25,0,1250)"
     style="display:inline"><g
       id="g4371"
       style="opacity:0.76999996"
       transform="matrix(0.98144212,-0.19175857,0.19175857,0.98144212,-58.29003,114.04609)"
       inkscape:export-filename="/Users/antenehs/Pictures/Emojis/Final V1/Final-thumbs-down.png"
       inkscape:export-xdpi="90"
       inkscape:export-ydpi="90"><g
         id="g12"><g
           clip-path="url(#clipPath16)"
           id="g14"><g
             transform="translate(540.6094,910.894)"
             id="g20"><path
               inkscape:connector-curvature="0"
               id="path22"
               style="fill:#0a0205;fill-opacity:1;fill-rule:nonzero;stroke:none"
               d="m 0,0 0.482,0 c 217.235,0 357.027,-167.017 344.925,-393.335 0,0 -14.523,-189.206 -183.959,-190.82 0,0 -63.74,-69.389 -159.755,-66.564 l -5.805,0 c -96.015,-2.825 -159.756,66.564 -159.756,66.564 -169.436,1.614 -183.96,190.82 -183.96,190.82 C -359.931,-167.017 -220.138,0 -2.902,0 L -2.42,0 0,0 Z" /></g></g></g><g
         id="g24"><g
           clip-path="url(#clipPath28)"
           id="g26"><g
             id="g32"><g
               id="g34"><path
                 inkscape:connector-curvature="0"
                 id="path46"
                 style="fill:url(#radialGradient36);stroke:none"
                 d="m 537.707,778.975 c -184.364,0 -226.32,-127.078 -225.109,-261.417 l 0,0 c 1.299,-144.371 80.731,-261.416 225.109,-261.416 l 0,0 3.385,0 c 144.376,0 223.807,117.045 225.109,261.416 l 0,0 c 1.209,134.339 -40.745,261.417 -225.109,261.417 l 0,0 -3.385,0 z" /></g></g></g></g><g
         id="g48"><g
           clip-path="url(#clipPath52)"
           id="g50"><g
             transform="translate(577.8047,618.0103)"
             id="g56"><path
               inkscape:connector-curvature="0"
               id="path58"
               style="fill:#330400;fill-opacity:1;fill-rule:nonzero;stroke:none"
               d="m 0,0 c 0,0 49.217,57.285 114.57,32.274 0,0 37.922,-16.137 57.286,-51.639 C 191.22,-54.866 113.765,54.059 0,0" /></g><g
             transform="translate(757.3076,529.6719)"
             id="g60"><path
               inkscape:connector-curvature="0"
               id="path62"
               style="fill:#0a0205;fill-opacity:1;fill-rule:nonzero;stroke:none"
               d="m 0,0 c -21.632,-21.626 -108.687,-100.376 -181.395,-28.746 0,0 -12.638,11.744 -12.97,17.908 -0.328,6.164 5.344,22.194 5.344,22.194 0,0 26.305,65.763 96.955,52.193 0,0 31.012,-1.93 91.454,-53.469 0,0 6.008,-4.684 0.612,-10.08" /></g><g
             transform="translate(746.4375,530.5723)"
             id="g64"><path
               inkscape:connector-curvature="0"
               id="path66"
               style="fill:#efe8d3;fill-opacity:1;fill-rule:nonzero;stroke:none"
               d="m 0,0 c -18.274,-18.281 -95.606,-89.363 -160.147,-25.778 0,0 -11.126,10.339 -11.419,15.764 -0.289,5.428 4.704,19.54 4.704,19.54 0,0 23.155,57.891 85.348,45.945 0,0 27.017,-1.68 79.67,-46.353 0,0 6.108,-4.852 1.844,-9.118" /></g><g
             transform="translate(708.0986,533.2617)"
             id="g68"><path
               inkscape:connector-curvature="0"
               id="path70"
               style="fill:#070409;fill-opacity:1;fill-rule:nonzero;stroke:none"
               d="m 0,0 c 0,21.257 -11.958,39.712 -29.507,49.03 -9.07,3.459 -13.668,3.751 -13.668,3.751 -9.525,1.83 -18.133,2.016 -25.886,1.028 C -93.143,47.753 -110.976,25.962 -110.976,0 c 0,-26.66 18.807,-48.922 43.877,-54.262 14.386,-0.792 28.439,2.339 41.426,7.475 C -10.242,-36.933 0,-19.669 0,0" /></g><g
             transform="translate(502.6309,618.0103)"
             id="g72"><path
               inkscape:connector-curvature="0"
               id="path74"
               style="fill:#330400;fill-opacity:1;fill-rule:nonzero;stroke:none"
               d="m 0,0 c 0,0 -49.217,57.285 -114.571,32.274 0,0 -37.923,-16.137 -57.287,-51.639 C -191.222,-54.866 -113.765,54.059 0,0" /></g><g
             transform="translate(323.126,529.6719)"
             id="g76"><path
               inkscape:connector-curvature="0"
               id="path78"
               style="fill:#0a0205;fill-opacity:1;fill-rule:nonzero;stroke:none"
               d="m 0,0 c 21.631,-21.626 108.688,-100.376 181.396,-28.746 0,0 12.638,11.744 12.967,17.908 0.331,6.164 -5.342,22.194 -5.342,22.194 0,0 -26.304,65.763 -96.953,52.193 0,0 -31.016,-1.93 -91.455,-53.469 C 0.613,10.08 -5.396,5.396 0,0" /></g><g
             transform="translate(333.9951,530.5723)"
             id="g80"><path
               inkscape:connector-curvature="0"
               id="path82"
               style="fill:#efe8d3;fill-opacity:1;fill-rule:nonzero;stroke:none"
               d="m 0,0 c 18.276,-18.281 95.606,-89.363 160.149,-25.778 0,0 11.127,10.339 11.418,15.764 0.29,5.428 -4.705,19.54 -4.705,19.54 0,0 -23.155,57.891 -85.349,45.945 0,0 -27.013,-1.68 -79.669,-46.353 C 1.844,9.118 -4.265,4.266 0,0" /></g><g
             transform="translate(372.3359,533.2617)"
             id="g84"><path
               inkscape:connector-curvature="0"
               id="path86"
               style="fill:#070409;fill-opacity:1;fill-rule:nonzero;stroke:none"
               d="m 0,0 c 0,21.257 11.956,39.712 29.507,49.03 9.07,3.459 13.665,3.751 13.665,3.751 9.529,1.83 18.135,2.016 25.889,1.028 C 93.143,47.753 110.973,25.962 110.973,0 110.973,-26.66 92.167,-48.922 67.099,-54.262 52.71,-55.054 38.66,-51.923 25.673,-46.787 10.242,-36.933 0,-19.669 0,0" /></g><g
             transform="translate(545.0625,336.874)"
             id="g88"><path
               inkscape:connector-curvature="0"
               id="path90"
               style="fill:#421404;fill-opacity:1;fill-rule:nonzero;stroke:none"
               d="m 0,0 c 0.575,-0.006 1.104,-0.009 1.63,-0.009 27.528,10e-4 34.645,7.541 37.978,14.918 2.333,5.166 5.641,9.694 8.34,12.905 -3.754,0.604 -8.652,1.21 -13.195,1.21 -1.623,0 -3.11,-0.079 -4.423,-0.233 -4.382,-0.516 -11.124,-2.262 -17.645,-3.95 -7.898,-2.046 -15.358,-3.977 -19.501,-3.977 -0.418,0 -0.806,0.019 -1.157,0.054 -6.048,0.604 -24.962,5.565 -27.037,6.112 -4.529,0.772 -9.23,1.163 -13.974,1.163 -3.702,0 -6.931,-0.236 -9.494,-0.526 2.679,-3.202 5.922,-7.671 8.22,-12.759 3.33,-7.376 10.45,-14.917 37.979,-14.917 0.522,0 1.054,0.003 1.591,0.009 L 0,0 Z m 1.63,-7.27 c -0.552,0 -1.102,0.003 -1.667,0.009 l -10.614,0 c -0.525,-0.006 -1.079,-0.009 -1.628,-0.009 -25.184,0 -38.521,5.739 -44.598,19.188 -3.891,8.618 -11.256,15.504 -11.33,15.572 l -4.933,4.573 6.527,1.617 c 0.293,0.071 7.297,1.775 17.629,1.775 5.21,0 10.379,-0.436 15.365,-1.296 l 0.311,-0.067 c 5.645,-1.495 21.331,-5.476 26.058,-5.948 0.131,-0.014 0.275,-0.018 0.434,-0.018 3.218,0 10.571,1.904 17.68,3.745 6.757,1.749 13.743,3.56 18.618,4.132 1.593,0.187 3.367,0.282 5.271,0.282 9.854,0 20.7,-2.487 21.158,-2.593 l 6.685,-1.548 -5.041,-4.657 C 57.483,27.422 50.115,20.536 46.228,11.92 40.149,-1.53 26.813,-7.27 1.63,-7.27" /></g><g
             transform="translate(600.1533,367.0293)"
             id="g92"><path
               inkscape:connector-curvature="0"
               id="path94"
               style="fill:#82301d;fill-opacity:1;fill-rule:nonzero;stroke:none"
               d="m 0,0 c 0,0 -7.913,-7.306 -12.173,-16.741 -4.263,-9.434 -13.393,-17.349 -42.918,-17.045 l -10.651,0 c -29.523,-0.304 -38.654,7.611 -42.916,17.045 C -112.92,-7.306 -120.832,0 -120.832,0 c 0,0 13.956,3.453 31.505,0.427 0,0 20.574,-5.447 26.626,-6.052 6.051,-0.604 27.23,6.657 37.517,7.867 C -14.896,3.453 0,0 0,0" /></g><g
             transform="translate(608.2754,371.7451)"
             id="g96"><path
               inkscape:connector-curvature="0"
               id="path98"
               style="fill:#421404;fill-opacity:1;fill-rule:nonzero;stroke:none"
               d="m 0,0 c -2.063,-1.287 -3.567,-1.871 -4.016,-2.033 1.533,0.185 2.626,0.56 3.317,1.131 C -0.46,-0.707 -0.089,-0.354 0,0 m -137.076,0 c 0.09,-0.354 0.461,-0.707 0.697,-0.901 0.691,-0.572 1.787,-0.947 3.324,-1.132 -0.449,0.161 -1.953,0.746 -4.021,2.033 m 22.328,-1.289 c 3.77,0 23.015,-0.271 31.725,-5.608 5.271,-3.23 12.839,-3.32 12.916,-3.32 l 3.133,0 c 0.077,0 7.613,0.067 12.922,3.32 8.713,5.337 27.956,5.608 31.727,5.608 1.177,0 2.344,-0.036 3.498,-0.096 -3.65,0.827 -7.179,1.997 -10.642,3.145 -6.271,2.078 -12.162,4.044 -18.339,3.895 -3.829,-0.092 -7.221,-0.873 -9.807,-2.255 -0.69,-0.369 -1.227,-0.708 -1.709,-1.011 -2.2,-1.384 -3.846,-2.244 -8.127,-2.512 l -0.227,-0.007 -1.944,0.007 c -4.281,0.268 -5.927,1.128 -8.128,2.512 -0.483,0.303 -1.021,0.642 -1.709,1.011 -2.588,1.382 -5.98,2.163 -9.81,2.255 -6.088,0.146 -12.064,-1.816 -18.335,-3.895 -3.466,-1.148 -6.993,-2.318 -10.645,-3.145 1.156,0.06 2.324,0.096 3.501,0.096 m 47.782,-16.19 -3.141,0 c -0.39,0 -9.627,0.051 -16.709,4.39 -5.119,3.137 -17.715,4.539 -27.932,4.539 -2.725,0 -5.526,-0.233 -8.238,-0.458 -2.63,-0.217 -5.115,-0.423 -7.479,-0.423 -3.255,0 -7.396,0.332 -10.54,2.932 -2.966,2.451 -4.07,6.025 -2.881,9.331 1.052,2.925 3.716,4.967 6.474,4.967 1.156,0 2.269,-0.349 3.223,-1.008 1.571,-1.088 2.781,-1.655 3.299,-1.875 1.035,-0.125 2.097,-0.187 3.165,-0.187 5.995,0 11.746,1.906 17.837,3.923 6.574,2.181 13.404,4.433 20.792,4.262 5.033,-0.12 9.427,-1.167 13.06,-3.11 0.891,-0.476 1.589,-0.915 2.151,-1.268 1.414,-0.89 1.958,-1.23 4.605,-1.404 l 1.486,0 c 2.648,0.174 3.19,0.514 4.606,1.404 0.56,0.353 1.259,0.792 2.15,1.268 3.634,1.943 8.026,2.99 13.059,3.11 7.459,0.186 14.22,-2.082 20.793,-4.262 6.089,-2.017 11.84,-3.923 17.837,-3.923 1.069,0 2.132,0.062 3.167,0.187 0.5,0.212 1.714,0.78 3.296,1.875 0.952,0.659 2.067,1.008 3.22,1.008 2.763,0 5.428,-2.043 6.477,-4.967 C 8,-0.474 6.896,-4.049 3.927,-6.499 0.787,-9.098 -3.354,-9.431 -6.61,-9.431 c -2.365,0 -4.849,0.206 -7.48,0.423 -2.712,0.227 -5.513,0.458 -8.235,0.458 -10.217,0 -22.816,-1.402 -27.933,-4.539 -7.082,-4.339 -16.318,-4.39 -16.708,-4.39" /></g><g
             transform="translate(540.5977,375.2461)"
             id="g100"><path
               inkscape:connector-curvature="0"
               id="path102"
               style="fill:#82301d;fill-opacity:1;fill-rule:nonzero;stroke:none"
               d="m 0,0 c 4.87,0.305 5.2,1.417 8.352,3.102 3.462,1.851 7.547,2.589 11.433,2.681 14.674,0.345 27.516,-9.975 42.61,-7.913 0,0 1.827,0.609 4.463,2.435 2.641,1.826 7.103,-3.652 2.435,-7.507 -4.664,-3.858 -14.405,-1.218 -23.94,-1.218 -9.539,0 -23.54,-1.22 -29.83,-5.074 -6.29,-3.855 -14.811,-3.855 -14.811,-3.855 l -3.142,0 c 0,0 -8.521,0 -14.811,3.855 -6.29,3.854 -20.293,5.074 -29.829,5.074 -9.538,0 -19.277,-2.64 -23.945,1.218 -4.664,3.855 -0.201,9.333 2.434,7.507 2.641,-1.826 4.468,-2.435 4.468,-2.435 15.093,-2.062 27.935,8.258 42.61,7.913 3.886,-0.092 7.971,-0.83 11.433,-2.681 C -6.918,1.417 -6.588,0.305 -1.719,0 L 0,0 Z" /></g><g
             transform="translate(541.6904,393.5625)"
             id="g104"><path
               inkscape:connector-curvature="0"
               id="path106"
               style="fill:#361100;fill-opacity:1;fill-rule:nonzero;stroke:none"
               d="m 0,0 c -15.581,0 -27.372,11.148 -27.548,11.318 -0.613,0.594 -0.869,1.466 -0.673,2.298 5.335,22.527 8.98,83.688 9.017,84.302 3.492,119.929 -28.662,129.337 -28.987,129.418 -1.28,0.319 -2.091,1.61 -1.795,2.896 0.294,1.287 1.541,2.108 2.835,1.832 1.489,-0.314 36.429,-9.119 32.783,-134.359 -0.15,-2.548 -3.569,-59.922 -8.82,-83.797 4.625,-3.932 24.213,-18.363 44.267,-0.046 -5.338,22.669 -6.423,31.116 -8.818,83.804 -3.649,125.279 31.292,134.084 32.781,134.398 1.303,0.273 2.592,-0.562 2.867,-1.87 0.276,-1.308 -0.561,-2.592 -1.869,-2.867 C 45.757,227.255 13.603,217.847 17.098,97.848 19.521,44.576 20.585,36.949 26.11,13.616 26.308,12.784 26.053,11.912 25.438,11.318 16.665,2.83 7.853,0 0,0" /></g><g
             transform="translate(561.7871,315.5967)"
             id="g108"><path
               inkscape:connector-curvature="0"
               id="path110"
               style="fill:#330400;fill-opacity:1;fill-rule:nonzero;stroke:none"
               d="m 0,0 c -0.157,0.628 -0.549,1.155 -1.104,1.487 -6.977,4.188 -14.605,6.311 -22.67,6.311 -13.538,0 -23.768,-6.053 -24.196,-6.311 -0.555,-0.332 -0.948,-0.859 -1.104,-1.489 -0.156,-0.626 -0.061,-1.275 0.273,-1.829 0.434,-0.726 1.23,-1.177 2.076,-1.177 0.438,0 0.87,0.119 1.241,0.343 0.384,0.227 9.568,5.547 21.797,5.547 7.202,0 13.962,-1.865 20.092,-5.545 1.102,-0.66 2.661,-0.27 3.322,0.829 C 0.06,-1.277 0.157,-0.628 0,0" /></g><g
             transform="translate(217.8623,260.8135)"
             id="g112" /><g
             transform="translate(214.4268,270.5078)"
             id="g116" /><g
             transform="translate(193.1836,337.876)"
             id="g120" /></g></g></g><g
       id="g148"><g
         id="g150"
         clip-path="url(#clipPath152)"><g
           id="g156"><g
             id="g158" /></g></g></g><g
       id="g172"><g
         id="g174"
         clip-path="url(#clipPath176)"><g
           id="g180"><g
             id="g182" /></g></g></g><g
       id="g196"><g
         id="g198"
         clip-path="url(#clipPath200)"><g
           id="g204"><g
             id="g206" /></g></g></g></g><g
     inkscape:groupmode="layer"
     id="layer1"
     inkscape:label="Hand"
     style="display:inline"><g
       id="g4358"
       transform="matrix(1.3093434,0,0,1.3578718,-62.604353,-489.28647)"
       inkscape:export-filename="/Users/antenehs/Pictures/Emojis/Final V1/thumbs-down.png"
       inkscape:export-xdpi="90"
       inkscape:export-ydpi="90"><path
         inkscape:connector-curvature="0"
         id="path114"
         style="fill:#000000;fill-opacity:1;fill-rule:nonzero;stroke:none"
         d="m 0,0 c 0,0 -11.08,-29.472 -38.247,-23.348 -27.165,6.125 -32.56,24.952 -38.37,61.262 -6,37.5 -2,69.5 7,97.5 18.433,57.346 71.405,77.01 78.554,17.302 C 16.085,93.006 4.647,14.544 0,0"
         transform="matrix(1.25,0,0,-1.25,272.32787,923.98312)" /><path
         inkscape:connector-curvature="0"
         id="path118"
         style="fill:#a30d0d;fill-opacity:1;fill-rule:nonzero;stroke:none"
         d="m 0,0 c 0,0 -9.207,-26.006 -31.78,-20.603 -22.572,5.406 -27.056,22.018 -31.883,54.057 -4.985,33.09 -1.662,61.326 5.817,86.033 C -42.53,170.089 1.486,187.44 7.426,134.755 13.366,82.067 3.862,12.833 0,0"
         transform="matrix(1.25,0,0,-1.25,268.0335,911.86525)" /><path
         inkscape:connector-curvature="0"
         id="path122"
         style="fill:#030302;fill-opacity:1;fill-rule:nonzero;stroke:none"
         d="m 0,0 c 0,0 -22.973,-62.404 23.354,-98.777 9.57,-9.189 23.927,-19.334 57.427,-39.433 11.869,-6.317 37.137,-29.576 53.791,-64.894 3.063,-9.188 14.645,-58.578 36.563,-60.682 34.732,-3.338 51.877,35.413 45.56,71.594 0,4.21 -13.783,47.091 -43.646,81.739 0,0 26.991,0.956 55.992,10.145 29.002,9.189 49.389,23.258 51.111,50.825 0.554,6.362 -1.865,15.82 -7.56,24.359 -0.217,0.323 -1.532,1.006 -0.623,4.785 -0.287,1.005 7.609,25.986 -12.921,46.086 0,0 2.872,9.476 -2.584,21.679 -5.456,12.203 -19.095,19.813 -19.095,19.813 0,0 -0.575,16.367 -19.383,30.58 -1.435,0.718 -5.885,5.026 -24.838,9.763 1.724,-1.292 -12.442,5.552 -42.639,-1.005 4.307,1.149 -4.882,-1.867 -9.189,-4.02 0,0 -29.288,6.396 -46.803,6.317 C 62.5,108.73 51.589,106.577 38.812,99.83 26.45,93.302 39.25,100.062 26.033,93.082 c 0,0 -15.361,-10.911 -22.109,-26.992 0,0 -6.987,-14.309 -7.753,-22.54 C -4.596,35.318 -7.85,6.796 0.189,-0.574"
         transform="matrix(1.25,0,0,-1.25,241.4795,827.655)" /><g
         id="g124"
         transform="matrix(1.25,0,0,-1.25,0,1250)"><g
           clip-path="url(#clipPath128)"
           id="g126"><g
             id="g132"><g
               id="g134"><path
                 inkscape:connector-curvature="0"
                 id="path146"
                 style="fill:url(#radialGradient136);stroke:none"
                 d="m 235.679,427.08 c -43.644,-21.057 -31.777,-76.186 -31.777,-76.186 l 0,0 c 8.088,8.948 19.334,10.718 19.334,10.718 l 0,0 c 35.223,3.829 46.901,-13.782 46.901,-13.782 l 0,0 c -27.407,14.794 -43.598,8.079 -51.833,1.364 l 0,0 c -4.764,-3.886 -6.865,-7.771 -6.935,-7.49 l 0,0 c -16.654,-27.948 -9.209,-44.519 -2.202,-63.936 l 0,0 c 10.05,-27.852 56.854,-54.557 70.35,-63.744 l 0,0 c 6.206,-4.226 31.584,-27.95 44.793,-44.987 l 0,0 c 13.209,-17.036 18.378,-38.859 21.057,-45.941 l 0,0 c 2.68,-7.084 6.126,-29.672 18.951,-33.31 l 0,0 c 12.826,-3.636 31.012,-0.764 35.414,26.418 l 0,0 c 4.404,27.183 -4.211,46.326 -15.314,66.999 l 0,0 c -11.102,20.675 -38.859,52.642 -38.859,52.642 l 0,0 c 14.644,-3.157 33.786,-2.967 41.634,-0.86 l 0,0 c 13.209,0.382 37.808,10.049 45.464,12.729 l 0,0 c 16.847,3.829 58.195,42.688 18.57,64.51 l 0,0 c -30.544,16.822 -52.977,10.194 -61.88,9.764 l 0,0 c -26.703,-2.01 -40.535,-12.443 -45.511,-26.799 l 0,0 c -3.838,-11.071 4.115,-23.259 14.166,-26.609 l 0,0 c 9.99,-3.331 47.522,-2.778 48.813,-2.967 l 0,0 c 0.267,-0.04 0.791,-0.025 1.454,-0.01 l 0,0 c 2.547,0.06 7.12,0.118 6.778,-2.958 l 0,0 c -0.431,-3.875 -3.829,-3.157 -3.829,-3.157 l 0,0 -22.11,0.286 c -2.967,-12.73 7.562,-18.663 7.562,-18.663 l 0,0 c -12.539,1.052 -14.07,18.663 -14.07,18.663 l 0,0 c -16.175,-1.626 -28.141,-0.192 -35.606,5.264 l 0,0 c -14.644,11.485 -13.244,24.191 -10.241,33.308 l 0,0 c 2.632,7.993 8.327,13.975 8.327,13.975 l 0,0 c -11.869,4.69 -14.262,13.974 -14.262,13.974 l 0,0 c 0.383,-3.637 -6.89,-14.835 -6.89,-14.835 l 0,0 c 0.765,6.221 0.885,12.035 0.526,14.189 l 0,0 c -0.359,2.153 -2.225,18.376 -8.686,28.497 l 0,0 c -6.461,10.123 -17.516,17.372 -17.516,17.372 l 0,0 c 11.988,-3.445 14.788,-9.187 20.172,-14.069 l 0,0 c 5.384,-4.88 7.968,-12.491 7.968,-12.491 l 0,0 c -0.215,2.084 1.747,7.37 1.747,7.37 l 0,0 c -3.733,0.768 -17.899,7.849 -16.654,20.675 l 0,0 c 1.243,12.825 14.166,19.811 14.166,19.811 l 0,0 c -4.403,1.341 -17.229,7.466 -15.124,21.059 l 0,0 c 2.107,13.591 14.74,19.334 14.74,19.334 l 0,0 c -14.122,2.586 -26.612,3.57 -37.458,3.57 l 0,0 c -30.91,-10e-4 -48.445,-7.996 -52.13,-9.697" /></g></g></g></g><path
         inkscape:connector-curvature="0"
         id="path170"
         style="fill:url(#radialGradient160);stroke:none"
         d="m 367.573,366.207 c -14.741,-3.254 -27.375,-7.465 -31.203,-22.78 l 0,0 c -3.828,-15.314 6.7,-21.056 12.635,-22.971 l 0,0 c 5.934,-1.914 11.294,1.533 20.673,4.212 l 0,0 c 9.38,2.68 31.394,4.787 49.771,3.445 l 0,0 c 18.378,-1.34 36.946,-11.868 36.946,-11.868 l 0,0 c 3.829,2.296 4.402,19.909 0,27.758 l 0,0 c -4.402,7.847 -8.614,15.887 -28.906,21.248 l 0,0 c -10.033,2.65 -21.188,3.709 -31.685,3.709 l 0,0 c -10.733,0 -20.779,-1.107 -28.231,-2.753"
         transform="matrix(1.25,0,0,-1.25,0,1250)" /><path
         inkscape:connector-curvature="0"
         id="path194"
         style="fill:url(#radialGradient184);stroke:none"
         d="m 370.444,403.344 c -23.163,-4.021 -35.605,-10.527 -44.028,-17.994 l 0,0 c -8.423,-7.465 -6.507,-19.525 -0.191,-23.545 l 0,0 c 6.317,-4.02 14.919,0.56 20.913,3.326 l 0,0 c 8.04,3.709 23.115,7.776 45.703,9.691 l 0,0 c 22.589,1.914 49.387,-8.806 49.387,-8.806 l 0,0 c 4.595,17.61 -10.144,28.906 -15.504,31.968 l 0,0 c -11.927,5.813 -23.485,7.429 -33.523,7.428 l 0,0 c -9.134,0 -17.011,-1.338 -22.757,-2.068"
         transform="matrix(1.25,0,0,-1.25,0,1250)" /><path
         inkscape:connector-curvature="0"
         id="path218"
         style="fill:url(#radialGradient208);stroke:none"
         d="m 341.156,435.313 c -13.113,-5.072 -22.732,-12.827 -21.632,-26.609 l 0,0 c 0.603,-7.548 7.228,-10.624 14.119,-9.907 l 0,0 c 6.688,0.697 11.533,3.973 16.892,6.27 l 0,0 c 5.36,2.297 23.546,6.317 31.969,7.083 l 0,0 c 12.252,2.49 39.816,-3.828 39.816,-3.828 l 0,0 c 0.576,6.699 -13.972,18.951 -20.864,22.78 l 0,0 c -12.739,7.483 -24.112,9.903 -33.799,9.902 l 0,0 c -11.311,0 -20.321,-3.301 -26.501,-5.691"
         transform="matrix(1.25,0,0,-1.25,0,1250)" /></g></g></svg>